# Blender 4.3.0
# www.blender.org
mtllib Chimney02_White.mtl
o Chimney02_White
v 0.511121 2.138910 0.237513
v 0.544845 2.505980 0.203790
v 0.511121 2.138910 -0.209770
v 0.544845 2.505980 -0.176047
v 0.958405 1.691844 0.237513
v 0.924682 2.505980 0.203790
v 0.958405 1.691844 -0.209770
v 0.924682 2.505980 -0.176047
v 0.511121 2.489453 0.237513
v 0.511121 2.489453 -0.209770
v 0.958405 2.489453 -0.209770
v 0.958405 2.489453 0.237513
v 0.544845 2.661910 0.203790
v 0.544845 2.661910 -0.176047
v 0.924682 2.661910 -0.176047
v 0.924682 2.661910 0.203790
v 0.498678 2.694409 0.249956
v 0.498678 2.694409 -0.222213
v 0.970848 2.694409 -0.222213
v 0.970848 2.694409 0.249956
v 0.498678 2.813792 0.249956
v 0.498678 2.813792 -0.222213
v 0.970848 2.813792 -0.222213
v 0.970848 2.813792 0.249956
v 0.483830 2.836247 0.264804
v 0.483830 2.836247 -0.237061
v 0.985696 2.836247 -0.237061
v 0.985696 2.836247 0.264804
v 0.570218 2.952247 0.178416
v 0.570218 2.952247 -0.150673
v 0.899307 2.952247 -0.150673
v 0.899307 2.952247 0.178416
v 0.483830 2.952247 0.264804
v 0.483830 2.952247 -0.237061
v 0.985696 2.952247 -0.237061
v 0.985696 2.952247 0.264804
v 0.600573 2.681642 0.148062
v 0.600573 2.681642 -0.120319
v 0.868954 2.681642 -0.120319
v 0.868954 2.681642 0.148062
v 0.497541 2.281706 0.251093
v 0.497541 2.281706 -0.223350
v 0.971985 2.281706 -0.223350
v 0.971985 2.281706 0.251093
v 0.549976 2.546730 0.198658
v 0.549976 2.546730 -0.170915
v 0.919550 2.546730 0.198658
v 0.919550 2.546730 -0.170915
vn -0.9999 -0.0140 -0.0000
vn -0.9979 0.0652 -0.0000
vn -0.0089 0.0146 -0.9999
vn -0.0000 0.0652 -0.9979
vn -0.0091 0.0134 -0.9999
vn 0.9998 0.0205 -0.0000
vn 0.9979 0.0652 -0.0000
vn -0.0091 0.0134 0.9999
vn -0.0000 0.0652 0.9979
vn -0.0089 0.0146 0.9999
vn -0.7069 -0.7073 -0.0000
vn -0.9991 0.0424 -0.0000
vn -0.9990 -0.0445 -0.0000
vn -0.2315 0.9449 0.2315
vn -0.2315 0.9449 -0.2315
vn 0.2315 0.9449 -0.2315
vn 0.2315 0.9449 0.2315
vn -0.3151 -0.8952 0.3151
vn 0.3151 -0.8952 0.3151
vn -0.0000 0.0424 0.9991
vn -0.0000 -0.0445 0.9990
vn -0.0000 0.0424 -0.9991
vn -0.0000 -0.0445 -0.9990
vn 0.9991 0.0424 -0.0000
vn 0.9990 -0.0445 -0.0000
vn 1.0000 -0.0000 -0.0000
vn 0.3151 -0.8952 -0.3151
vn -0.3151 -0.8952 -0.3151
vn -0.5165 -0.6830 0.5165
vn 0.5165 -0.6830 0.5165
vn -1.0000 -0.0000 -0.0000
vn -0.0000 -0.0000 1.0000
vn -0.0000 -0.0000 -1.0000
vn 0.5165 -0.6830 -0.5165
vn -0.5165 -0.6830 -0.5165
vn -0.0000 0.1115 0.9938
vn 0.5459 0.6356 0.5459
vn -0.5459 0.6356 0.5459
vn -0.0000 1.0000 -0.0000
vn 0.5459 0.6356 -0.5459
vn -0.5459 0.6356 -0.5459
vn -0.9938 0.1115 -0.0000
vn 0.9938 0.1115 -0.0000
vn -0.0000 0.1115 -0.9938
vn -0.0180 -0.0370 0.9992
vn 0.9997 -0.0230 -0.0000
vn -0.0180 -0.0370 -0.9992
vn -0.9955 -0.0947 -0.0000
vn 0.9922 0.1249 -0.0000
vn -0.0000 0.1249 -0.9922
vn -0.0000 0.1249 0.9922
vn -0.9922 0.1249 -0.0000
vt 0.310698 0.872817
vt 0.394682 0.872817
vt 0.445463 0.872817
vt 0.070463 0.872817
vt 0.314604 0.872817
vt 0.022612 0.872817
vt 0.465971 0.872817
vt 0.020659 0.872817
vt 0.027494 0.872817
s 1
usemtl Tex_MultiGradient
f 41/1/1 9/1/2 10/1/2 42/1/1
f 42/2/3 10/2/4 11/2/4 43/2/5
f 43/3/6 11/3/7 12/3/7 44/3/6
f 44/2/8 12/2/9 9/2/9 41/2/10
f 3/4/11 7/4/11 5/4/11 1/4/11
f 46/1/12 45/1/12 13/1/13 14/1/13
f 2/5/14 4/5/15 10/5/15 9/5/14
f 4/5/15 8/5/16 11/5/16 10/5/15
f 8/5/16 6/5/17 12/5/17 11/5/16
f 6/5/17 2/5/14 9/5/14 12/5/17
f 13/5/18 16/5/19 20/5/19 17/5/18
f 45/2/20 47/2/20 16/2/21 13/2/21
f 48/2/22 46/2/22 14/2/23 15/2/23
f 47/3/24 48/3/24 15/3/25 16/3/25
f 20/3/26 19/3/26 23/3/26 24/3/26
f 15/5/27 14/5/28 18/5/28 19/5/27
f 16/5/19 15/5/27 19/5/27 20/5/19
f 14/5/28 13/5/18 17/5/18 18/5/28
f 21/5/29 24/5/30 28/5/30 25/5/29
f 18/1/31 17/1/31 21/1/31 22/1/31
f 17/2/32 20/2/32 24/2/32 21/2/32
f 19/2/33 18/2/33 22/2/33 23/2/33
f 27/2/33 26/2/33 34/2/33 35/2/33
f 23/5/34 22/5/35 26/5/35 27/5/34
f 24/5/30 23/5/34 27/5/34 28/5/30
f 22/5/35 21/5/29 25/5/29 26/5/35
f 31/6/36 30/6/36 38/6/37 39/6/38
f 28/3/26 27/3/26 35/3/26 36/3/26
f 26/1/31 25/1/31 33/1/31 34/1/31
f 25/2/32 28/2/32 36/2/32 33/2/32
f 29/7/39 30/7/39 34/7/39 33/7/39
f 30/7/39 31/7/39 35/7/39 34/7/39
f 31/7/39 32/7/39 36/7/39 35/7/39
f 32/7/39 29/7/39 33/7/39 36/7/39
f 39/8/38 38/8/37 37/8/40 40/8/41
f 32/9/42 31/9/42 39/9/38 40/9/41
f 30/9/43 29/9/43 37/9/40 38/9/37
f 29/6/44 32/6/44 40/6/41 37/6/40
f 5/2/45 44/2/8 41/2/10 1/2/45
f 7/3/46 43/3/6 44/3/6 5/3/46
f 3/2/47 42/2/3 43/2/5 7/2/47
f 1/1/48 41/1/1 42/1/1 3/1/48
f 6/3/49 8/3/49 48/3/24 47/3/24
f 8/2/50 4/2/50 46/2/22 48/2/22
f 2/2/51 6/2/51 47/2/20 45/2/20
f 4/1/52 2/1/52 45/1/12 46/1/12
