# Blender 4.3.0
# www.blender.org
mtllib Chimney02_Grey.mtl
o Chimney02_Grey
v 0.511121 2.138910 0.237513
v 0.544845 2.505980 0.203790
v 0.511121 2.138910 -0.209770
v 0.544845 2.505980 -0.176047
v 0.958405 1.691844 0.237513
v 0.924682 2.505980 0.203790
v 0.958405 1.691844 -0.209770
v 0.924682 2.505980 -0.176047
v 0.511121 2.489453 0.237513
v 0.511121 2.489453 -0.209770
v 0.958405 2.489453 -0.209770
v 0.958405 2.489453 0.237513
v 0.544845 2.661910 0.203790
v 0.544845 2.661910 -0.176047
v 0.924682 2.661910 -0.176047
v 0.924682 2.661910 0.203790
v 0.498678 2.694409 0.249956
v 0.498678 2.694409 -0.222213
v 0.970848 2.694409 -0.222213
v 0.970848 2.694409 0.249956
v 0.498678 2.813792 0.249956
v 0.498678 2.813792 -0.222213
v 0.970848 2.813792 -0.222213
v 0.970848 2.813792 0.249956
v 0.483830 2.836247 0.264804
v 0.483830 2.836247 -0.237061
v 0.985696 2.836247 -0.237061
v 0.985696 2.836247 0.264804
v 0.570218 2.952247 0.178416
v 0.570218 2.952247 -0.150673
v 0.899307 2.952247 -0.150673
v 0.899307 2.952247 0.178416
v 0.483830 2.952247 0.264804
v 0.483830 2.952247 -0.237061
v 0.985696 2.952247 -0.237061
v 0.985696 2.952247 0.264804
v 0.600573 2.681642 0.148062
v 0.600573 2.681642 -0.120319
v 0.868954 2.681642 -0.120319
v 0.868954 2.681642 0.148062
v 0.497541 2.281706 0.251093
v 0.497541 2.281706 -0.223350
v 0.971985 2.281706 -0.223350
v 0.971985 2.281706 0.251093
v 0.549976 2.546730 0.198658
v 0.549976 2.546730 -0.170915
v 0.919550 2.546730 0.198658
v 0.919550 2.546730 -0.170915
vn -0.9999 -0.0140 -0.0000
vn -0.9979 0.0652 -0.0000
vn -0.0089 0.0146 -0.9999
vn -0.0000 0.0652 -0.9979
vn -0.0091 0.0134 -0.9999
vn 0.9998 0.0205 -0.0000
vn 0.9979 0.0652 -0.0000
vn -0.0091 0.0134 0.9999
vn -0.0000 0.0652 0.9979
vn -0.0089 0.0146 0.9999
vn -0.7069 -0.7073 -0.0000
vn -0.9991 0.0424 -0.0000
vn -0.9990 -0.0445 -0.0000
vn -0.2315 0.9449 0.2315
vn -0.2315 0.9449 -0.2315
vn 0.2315 0.9449 -0.2315
vn 0.2315 0.9449 0.2315
vn -0.3151 -0.8952 0.3151
vn 0.3151 -0.8952 0.3151
vn -0.0000 0.0424 0.9991
vn -0.0000 -0.0445 0.9990
vn -0.0000 0.0424 -0.9991
vn -0.0000 -0.0445 -0.9990
vn 0.9991 0.0424 -0.0000
vn 0.9990 -0.0445 -0.0000
vn 1.0000 -0.0000 -0.0000
vn 0.3151 -0.8952 -0.3151
vn -0.3151 -0.8952 -0.3151
vn -0.5165 -0.6830 0.5165
vn 0.5165 -0.6830 0.5165
vn -1.0000 -0.0000 -0.0000
vn -0.0000 -0.0000 1.0000
vn -0.0000 -0.0000 -1.0000
vn 0.5165 -0.6830 -0.5165
vn -0.5165 -0.6830 -0.5165
vn -0.0000 0.1115 0.9938
vn 0.5459 0.6356 0.5459
vn -0.5459 0.6356 0.5459
vn -0.0000 1.0000 -0.0000
vn 0.5459 0.6356 -0.5459
vn -0.5459 0.6356 -0.5459
vn -0.9938 0.1115 -0.0000
vn 0.9938 0.1115 -0.0000
vn -0.0000 0.1115 -0.9938
vn -0.0180 -0.0370 0.9992
vn 0.9997 -0.0230 -0.0000
vn -0.0180 -0.0370 -0.9992
vn -0.9955 -0.0947 -0.0000
vn 0.9922 0.1249 -0.0000
vn -0.0000 0.1249 -0.9922
vn -0.0000 0.1249 0.9922
vn -0.9922 0.1249 -0.0000
vt 0.175004 0.872817
vt 0.209183 0.872817
vt 0.250199 0.872817
vt 0.022660 0.872817
vt 0.151566 0.872817
vt 0.083207 0.872817
vt 0.117387 0.872817
vt 0.158402 0.872817
vt 0.185746 0.872817
vt 0.226762 0.872817
vt 0.112966 0.946127
vt 0.289262 0.872817
vt 0.016119 0.872817
vt 0.021917 0.872817
s 1
usemtl Tex_MultiGradient
f 41/1/1 9/1/2 10/1/2 42/1/1
f 42/2/3 10/2/4 11/2/4 43/2/5
f 43/3/6 11/3/7 12/3/7 44/3/6
f 44/2/8 12/2/9 9/2/9 41/2/10
f 3/4/11 7/4/11 5/4/11 1/4/11
f 46/5/12 45/5/12 13/5/13 14/5/13
f 2/6/14 4/6/15 10/6/15 9/6/14
f 4/7/15 8/7/16 11/7/16 10/7/15
f 8/8/16 6/8/17 12/8/17 11/8/16
f 6/7/17 2/7/14 9/7/14 12/7/17
f 13/7/18 16/7/19 20/7/19 17/7/18
f 45/9/20 47/9/20 16/9/21 13/9/21
f 48/9/22 46/9/22 14/9/23 15/9/23
f 47/10/24 48/10/24 15/10/25 16/10/25
f 20/3/26 19/3/26 23/3/26 24/3/26
f 15/7/27 14/7/28 18/7/28 19/7/27
f 16/8/19 15/8/27 19/8/27 20/8/19
f 14/6/28 13/6/18 17/6/18 18/6/28
f 21/7/29 24/7/30 28/7/30 25/7/29
f 18/1/31 17/1/31 21/1/31 22/1/31
f 17/2/32 20/2/32 24/2/32 21/2/32
f 19/2/33 18/2/33 22/2/33 23/2/33
f 27/2/33 26/2/33 34/2/33 35/2/33
f 23/7/34 22/7/35 26/7/35 27/7/34
f 24/8/30 23/8/34 27/8/34 28/8/30
f 22/6/35 21/6/29 25/6/29 26/6/35
f 31/11/36 30/11/36 38/11/37 39/11/38
f 28/3/26 27/3/26 35/3/26 36/3/26
f 26/1/31 25/1/31 33/1/31 34/1/31
f 25/2/32 28/2/32 36/2/32 33/2/32
f 29/12/39 30/12/39 34/12/39 33/12/39
f 30/12/39 31/12/39 35/12/39 34/12/39
f 31/12/39 32/12/39 36/12/39 35/12/39
f 32/12/39 29/12/39 33/12/39 36/12/39
f 39/13/38 38/13/37 37/13/40 40/13/41
f 32/14/42 31/14/42 39/14/38 40/14/41
f 30/14/43 29/14/43 37/14/40 38/14/37
f 29/11/44 32/11/44 40/11/41 37/11/40
f 5/2/45 44/2/8 41/2/10 1/2/45
f 7/3/46 43/3/6 44/3/6 5/3/46
f 3/2/47 42/2/3 43/2/5 7/2/47
f 1/1/48 41/1/1 42/1/1 3/1/48
f 6/10/49 8/10/49 48/10/24 47/10/24
f 8/9/50 4/9/50 46/9/22 48/9/22
f 2/9/51 6/9/51 47/9/20 45/9/20
f 4/5/52 2/5/52 45/5/12 46/5/12
