# Blender 4.3.0
# www.blender.org
mtllib Chimney01_Black.mtl
o Chimney01_Black
v 0.384201 2.322464 0.267947
v 0.384201 2.591153 0.267947
v 0.384201 2.322464 -0.229530
v 0.384201 2.591153 -0.229530
v 0.881677 1.756585 0.267947
v 0.881677 2.591153 0.267947
v 0.881677 1.756585 -0.229530
v 0.881677 2.591153 -0.229530
v 0.321693 2.671043 0.330454
v 0.321693 2.671043 -0.292037
v 0.944185 2.671043 -0.292037
v 0.944185 2.671043 0.330454
v 0.455888 2.897129 0.196261
v 0.455888 2.897129 -0.157844
v 0.809992 2.897129 -0.157844
v 0.809992 2.897129 0.196261
v 0.321693 2.897129 0.330454
v 0.321693 2.897129 -0.292037
v 0.944185 2.897129 -0.292037
v 0.944185 2.897129 0.330454
v 0.455888 2.681642 0.196261
v 0.455888 2.681642 -0.157844
v 0.809992 2.681642 -0.157844
v 0.809992 2.681642 0.196261
vn -1.0000 -0.0000 -0.0000
vn -0.0000 -0.0000 -1.0000
vn 1.0000 -0.0000 -0.0000
vn -0.0000 -0.0000 1.0000
vn -0.7510 -0.6603 -0.0000
vn -0.7876 -0.6162 -0.0000
vn -0.0000 -0.6162 0.7876
vn -0.0000 -0.6162 -0.7876
vn 0.7876 -0.6162 -0.0000
vn -0.0000 1.0000 -0.0000
vt 0.032330 0.946127
vt 0.062604 0.946127
vt 0.131940 0.946127
vt 0.017682 0.946127
vt 0.082135 0.946127
vt 0.027447 0.946127
vt 0.064557 0.946127
vt 0.175885 0.946127
vt 0.019635 0.946127
vt 0.081158 0.946127
s 0
usemtl Tex_MultiGradient
f 1/1/1 2/1/1 4/1/1 3/1/1
f 3/2/2 4/2/2 8/2/2 7/2/2
f 7/3/3 8/3/3 6/3/3 5/3/3
f 5/2/4 6/2/4 2/2/4 1/2/4
f 3/4/5 7/4/5 5/4/5 1/4/5
f 4/5/6 2/5/6 9/5/6 10/5/6
f 11/2/2 10/2/2 18/2/2 19/2/2
f 2/6/7 6/6/7 12/6/7 9/6/7
f 8/6/8 4/6/8 10/6/8 11/6/8
f 6/5/9 8/5/9 11/5/9 12/5/9
f 16/7/1 15/7/1 23/7/1 24/7/1
f 12/3/3 11/3/3 19/3/3 20/3/3
f 10/1/1 9/1/1 17/1/1 18/1/1
f 9/2/4 12/2/4 20/2/4 17/2/4
f 13/8/10 14/8/10 18/8/10 17/8/10
f 14/8/10 15/8/10 19/8/10 18/8/10
f 15/8/10 16/8/10 20/8/10 19/8/10
f 16/8/10 13/8/10 17/8/10 20/8/10
f 23/9/10 22/9/10 21/9/10 24/9/10
f 14/7/3 13/7/3 21/7/3 22/7/3
f 13/10/2 16/10/2 24/10/2 21/10/2
f 15/10/4 14/10/4 22/10/4 23/10/4
