# Blender 4.3.0
# www.blender.org
mtllib Door02_Pink_Wood.mtl
o Door02_Pink_Wood
v -0.489741 0.000000 0.640669
v -0.489741 0.174561 0.640669
v -0.489741 0.000000 0.000000
v -0.489741 0.174561 0.000000
v 0.489741 0.000000 0.640669
v 0.489741 0.174561 0.640669
v 0.489741 0.000000 0.000000
v 0.489741 0.174561 0.000000
v -0.489741 0.173527 0.491146
v -0.489741 0.348087 0.491146
v -0.489741 0.173527 0.000000
v -0.489741 0.348087 0.000000
v 0.489741 0.173527 0.491146
v 0.489741 0.348087 0.491146
v 0.489741 0.173527 0.000000
v 0.489741 0.348087 0.000000
v -0.252985 0.930595 0.105414
v -0.416744 0.342200 0.000000
v 0.261368 0.930595 0.105414
v 0.425126 0.342200 0.000000
v -0.100033 1.263054 0.105414
v -0.252986 1.124105 0.105414
v -0.252225 1.272129 0.105414
v -0.416744 1.153697 0.000000
v -0.132606 1.411820 -0.012001
v -0.413255 1.411667 -0.011766
v 0.261368 1.124105 0.105414
v 0.108415 1.263054 0.105414
v 0.265209 1.272129 0.105414
v 0.140989 1.411820 -0.012001
v 0.425126 1.153697 0.000000
v 0.426779 1.411667 -0.011766
v -0.416744 0.342200 0.105414
v 0.425126 0.342200 0.105414
v -0.413255 1.411667 0.092362
v -0.132606 1.411820 0.093413
v -0.416744 1.153697 0.105414
v 0.140989 1.411820 0.093413
v 0.426779 1.411667 0.092362
v 0.425126 1.153697 0.105414
v -0.319015 0.870611 0.105414
v 0.327397 0.870611 0.105414
v -0.313788 1.318038 0.105414
v -0.113167 1.323038 0.105414
v -0.319015 1.136037 0.105414
v 0.121550 1.323038 0.105414
v 0.326773 1.318038 0.105414
v 0.327397 1.136037 0.105414
v -0.252985 0.930595 0.073329
v 0.261368 0.930595 0.073329
v -0.252225 1.272129 0.073329
v -0.100033 1.263054 0.073329
v -0.252986 1.124105 0.073329
v 0.108415 1.263054 0.073329
v 0.265209 1.272129 0.073329
v 0.261368 1.124105 0.073329
v -0.319015 0.870611 0.120975
v 0.327397 0.870611 0.120975
v -0.313788 1.318038 0.120975
v -0.113167 1.323038 0.120975
v -0.319015 1.136037 0.120975
v 0.121550 1.323038 0.120975
v 0.326773 1.318038 0.120975
v 0.327397 1.136037 0.120975
v -0.252985 0.930595 0.120975
v 0.261368 0.930595 0.120975
v -0.252225 1.272129 0.120975
v -0.100033 1.263054 0.120975
v -0.252986 1.124105 0.120975
v 0.108415 1.263054 0.120975
v 0.265209 1.272129 0.120975
v 0.261368 1.124105 0.120975
v -0.031457 0.913256 0.103731
v -0.031457 1.293887 0.103731
v -0.031457 0.913256 0.077438
v -0.031457 1.293887 0.077438
v 0.033325 0.913256 0.103731
v 0.033325 1.293887 0.103731
v 0.033325 0.913256 0.077438
v 0.033325 1.293887 0.077438
v -0.258307 1.107309 0.103731
v 0.270784 1.107309 0.103731
v -0.258307 1.107309 0.077438
v 0.270784 1.107309 0.077438
v -0.258307 1.048458 0.103731
v 0.270784 1.048458 0.103731
v -0.258307 1.048458 0.077438
v 0.270784 1.048458 0.077438
v -0.255714 0.744123 0.075494
v -0.264773 0.718794 0.050947
v -0.289131 0.736705 0.235529
v -0.291784 0.744123 0.218171
v -0.282725 0.718794 0.242718
v -0.289131 0.736705 0.058136
v -0.291784 0.744123 0.075494
v -0.282725 0.718794 0.050947
v -0.314019 0.720278 0.235529
v -0.320966 0.724862 0.218171
v -0.297248 0.709208 0.242718
v -0.314019 0.720278 0.058136
v -0.320966 0.724862 0.075494
v -0.297248 0.709208 0.050947
v -0.323526 0.693698 0.235529
v -0.332112 0.693698 0.218171
v -0.302796 0.693698 0.242718
v -0.323526 0.693698 0.058136
v -0.332112 0.693698 0.075494
v -0.302796 0.693698 0.050947
v -0.258367 0.736705 0.058136
v -0.264773 0.718794 0.242718
v -0.255714 0.744123 0.218171
v -0.258367 0.736705 0.235529
v -0.250250 0.709208 0.050947
v -0.226532 0.724862 0.075494
v -0.233479 0.720278 0.058136
v -0.250250 0.709208 0.242718
v -0.226532 0.724862 0.218171
v -0.233479 0.720278 0.235529
v -0.244702 0.693698 0.050947
v -0.215386 0.693698 0.075494
v -0.223973 0.693698 0.058136
v -0.244702 0.693698 0.242718
v -0.215386 0.693698 0.218171
v -0.223973 0.693698 0.235529
v -0.250250 0.678188 0.050947
v -0.226532 0.662534 0.075494
v -0.233479 0.667119 0.058136
v -0.250250 0.678188 0.242718
v -0.226532 0.662534 0.218171
v -0.233479 0.667119 0.235529
v -0.264773 0.668602 0.050947
v -0.255714 0.643274 0.075494
v -0.258367 0.650692 0.058136
v -0.264773 0.668602 0.242718
v -0.255714 0.643274 0.218171
v -0.258367 0.650692 0.235529
v -0.282725 0.668602 0.050947
v -0.291784 0.643274 0.075494
v -0.289131 0.650692 0.058136
v -0.282725 0.668602 0.242718
v -0.291784 0.643274 0.218171
v -0.289131 0.650692 0.235529
v -0.297248 0.678188 0.050947
v -0.320966 0.662534 0.075494
v -0.314019 0.667119 0.058136
v -0.297248 0.678188 0.242718
v -0.320966 0.662534 0.218171
v -0.314019 0.667119 0.235529
v -0.205504 0.693698 0.164915
v -0.248712 0.693698 0.124915
v -0.218159 0.693698 0.136631
v -0.360489 0.693698 0.164425
v -0.316747 0.693698 0.123932
v -0.347678 0.693698 0.135792
v -0.205504 0.717734 0.172484
v -0.248712 0.741994 0.140124
v -0.218159 0.734889 0.149602
v -0.360489 0.718031 0.172088
v -0.316747 0.742590 0.139328
v -0.347678 0.735397 0.148923
v -0.205504 0.732590 0.192299
v -0.248712 0.771842 0.179939
v -0.218159 0.760345 0.183559
v -0.360489 0.733070 0.192148
v -0.316747 0.772807 0.179635
v -0.347678 0.761168 0.183300
v -0.205504 0.732590 0.216793
v -0.248712 0.771842 0.229153
v -0.218159 0.760345 0.225533
v -0.360489 0.733070 0.216944
v -0.316747 0.772807 0.229457
v -0.347678 0.761168 0.225792
v -0.205504 0.717734 0.236609
v -0.248712 0.741994 0.268969
v -0.218159 0.734888 0.259491
v -0.360489 0.718031 0.237004
v -0.316747 0.742590 0.269764
v -0.347678 0.735397 0.260169
v -0.205504 0.693698 0.244177
v -0.248712 0.693698 0.284177
v -0.218159 0.693698 0.272461
v -0.360489 0.693698 0.244667
v -0.316747 0.693698 0.285160
v -0.347678 0.693698 0.273300
v -0.205504 0.669662 0.236609
v -0.248712 0.645403 0.268969
v -0.218159 0.652508 0.259491
v -0.360489 0.669365 0.237004
v -0.316747 0.644806 0.269764
v -0.347678 0.651999 0.260169
v -0.205504 0.654806 0.216793
v -0.248712 0.615554 0.229153
v -0.218159 0.627051 0.225533
v -0.360489 0.654327 0.216944
v -0.316747 0.614590 0.229457
v -0.347678 0.626228 0.225792
v -0.205504 0.654807 0.192299
v -0.248712 0.615554 0.179939
v -0.218159 0.627051 0.183559
v -0.360489 0.654327 0.192148
v -0.316747 0.614590 0.179635
v -0.347678 0.626228 0.183300
v -0.205504 0.669662 0.172484
v -0.248712 0.645403 0.140124
v -0.218159 0.652508 0.149602
v -0.360489 0.669365 0.172088
v -0.316747 0.644806 0.139328
v -0.347678 0.651999 0.148923
vn -1.0000 -0.0000 -0.0000
vn -0.0000 -0.0000 -1.0000
vn 1.0000 -0.0000 -0.0000
vn -0.0000 -0.0000 1.0000
vn -0.0000 -1.0000 -0.0000
vn 0.0003 1.0000 -0.0000
vn -0.0003 1.0000 -0.0000
vn 1.0000 -0.0032 -0.0000
vn -1.0000 0.0067 -0.0000
vn -1.0000 0.0069 -0.0000
vn -0.0000 -0.0111 -0.9999
vn -0.0005 1.0000 -0.0000
vn -0.9999 0.0135 -0.0000
vn 0.0005 1.0000 -0.0000
vn 1.0000 -0.0064 -0.0000
vn 0.0578 -0.9983 -0.0000
vn 0.0289 -0.9996 -0.0000
vn -0.0259 0.0830 0.9962
vn -0.0016 0.1339 0.9910
vn -0.0020 0.1339 0.9910
vn -0.0272 0.0801 0.9964
vn -0.0219 0.0137 0.9997
vn -0.0271 0.0170 0.9995
vn 0.0015 0.1339 0.9910
vn 0.0262 0.0823 0.9963
vn 0.0272 0.0800 0.9964
vn 0.0020 0.1339 0.9910
vn 0.0219 0.0131 0.9997
vn 0.0275 0.0165 0.9995
vn -0.0298 -0.9996 -0.0000
vn -0.9999 0.0144 -0.0000
vn -0.9999 0.0130 -0.0000
vn 0.0122 0.9999 -0.0000
vn -0.0125 0.9999 -0.0000
vn -0.9997 0.0259 -0.0000
vn 1.0000 0.0017 -0.0000
vn 1.0000 0.0034 -0.0000
vn -0.0595 -0.9982 -0.0000
vn 1.0000 -0.0051 -0.0000
vn 1.0000 -0.0026 -0.0000
vn -0.0000 1.0000 -0.0000
vn -0.0249 0.9997 -0.0000
vn -0.9996 0.0287 -0.0000
vn 0.0244 0.9997 -0.0000
vn -0.7705 -0.6011 -0.2121
vn -0.7705 -0.6011 0.2121
vn -0.9761 -0.0000 0.2175
vn -0.9761 -0.0000 -0.2175
vn -0.2831 0.9372 -0.2037
vn -0.2831 0.9372 0.2037
vn 0.2831 0.9372 0.2037
vn 0.2831 0.9372 -0.2037
vn 0.7705 0.6011 0.2121
vn 0.7705 0.6011 -0.2121
vn 0.9761 -0.0000 0.2175
vn 0.9761 -0.0000 -0.2175
vn 0.7705 -0.6011 0.2121
vn 0.7705 -0.6011 -0.2121
vn 0.2831 -0.9372 0.2037
vn 0.2831 -0.9372 -0.2037
vn -0.2831 -0.9372 0.2037
vn -0.2831 -0.9372 -0.2037
vn -0.7705 0.6011 -0.2121
vn -0.7705 0.6011 0.2121
vn -0.1589 0.1304 0.9787
vn -0.2010 -0.0000 0.9796
vn -0.1589 -0.1304 0.9787
vn -0.0585 -0.2037 0.9773
vn 0.0585 -0.2037 0.9773
vn 0.1589 -0.1304 0.9787
vn 0.2010 -0.0000 0.9796
vn 0.1589 0.1304 0.9787
vn 0.0585 0.2037 0.9773
vn -0.0585 0.2037 0.9773
vn -0.5561 0.4397 -0.7053
vn -0.7029 -0.0000 -0.7112
vn -0.1589 0.1304 -0.9787
vn -0.2010 -0.0000 -0.9796
vn -0.7029 -0.0000 0.7112
vn -0.5561 0.4397 0.7053
vn -0.2054 0.6883 -0.6957
vn -0.0585 0.2037 -0.9773
vn -0.2054 0.6883 0.6957
vn 0.2054 0.6883 -0.6957
vn 0.0585 0.2037 -0.9773
vn 0.2054 0.6883 0.6957
vn 0.5561 0.4397 -0.7053
vn 0.1589 0.1304 -0.9787
vn 0.5561 0.4397 0.7053
vn 0.7029 -0.0000 -0.7112
vn 0.2010 -0.0000 -0.9796
vn 0.7029 -0.0000 0.7112
vn 0.5561 -0.4397 -0.7053
vn 0.1589 -0.1304 -0.9787
vn 0.5561 -0.4397 0.7053
vn 0.2054 -0.6883 -0.6957
vn 0.0585 -0.2037 -0.9773
vn 0.2054 -0.6883 0.6957
vn -0.2054 -0.6883 -0.6957
vn -0.0585 -0.2037 -0.9773
vn -0.2054 -0.6883 0.6957
vn -0.5561 -0.4397 -0.7053
vn -0.1589 -0.1304 -0.9787
vn -0.5561 -0.4397 0.7053
vn 0.1848 -0.5687 -0.8015
vn -0.1705 -0.5702 -0.8036
vn -0.1690 -0.0000 -0.9856
vn 0.1832 -0.0000 -0.9831
vn 0.1875 0.9320 -0.3101
vn -0.1729 0.9346 -0.3109
vn -0.1729 0.9346 0.3109
vn 0.1875 0.9320 0.3101
vn -0.1705 0.5702 0.8036
vn 0.1848 0.5687 0.8015
vn -0.1690 -0.0000 0.9856
vn 0.1832 -0.0000 0.9831
vn -0.1705 -0.5702 0.8036
vn 0.1848 -0.5687 0.8015
vn -0.1729 -0.9346 0.3109
vn 0.1875 -0.9320 0.3101
vn -0.1729 -0.9346 -0.3109
vn 0.1875 -0.9320 -0.3101
vn 0.1848 0.5687 -0.8015
vn -0.1705 0.5702 -0.8036
vn -0.9694 0.1405 -0.2012
vn -0.9690 -0.0000 -0.2469
vn -0.9694 -0.1405 -0.2012
vn -0.9700 -0.2302 -0.0778
vn -0.9700 -0.2302 0.0778
vn -0.9694 -0.1405 0.2012
vn -0.9690 -0.0000 0.2469
vn -0.9694 0.1405 0.2012
vn -0.9700 0.2302 0.0778
vn -0.9700 0.2302 -0.0778
vn 0.6549 0.4365 -0.6170
vn 0.6528 -0.0000 -0.7575
vn 0.9694 0.1405 -0.2012
vn 0.9690 -0.0000 -0.2469
vn -0.6528 -0.0000 -0.7575
vn -0.6549 0.4365 -0.6170
vn 0.6582 0.7141 -0.2383
vn 0.9700 0.2302 -0.0778
vn -0.6582 0.7141 -0.2383
vn 0.6582 0.7141 0.2383
vn 0.9700 0.2302 0.0778
vn -0.6582 0.7141 0.2383
vn 0.6549 0.4365 0.6170
vn 0.9694 0.1405 0.2012
vn -0.6549 0.4365 0.6170
vn 0.6528 -0.0000 0.7575
vn 0.9690 -0.0000 0.2469
vn -0.6528 -0.0000 0.7575
vn 0.6549 -0.4365 0.6170
vn 0.9694 -0.1405 0.2012
vn -0.6549 -0.4365 0.6170
vn 0.6582 -0.7141 0.2383
vn 0.9700 -0.2302 0.0778
vn -0.6582 -0.7141 0.2383
vn 0.6582 -0.7141 -0.2383
vn 0.9700 -0.2302 -0.0778
vn -0.6582 -0.7141 -0.2383
vn 0.6549 -0.4365 -0.6170
vn 0.9694 -0.1405 -0.2012
vn -0.6549 -0.4365 -0.6170
vt 0.173798 0.651722
vt 0.315641 0.651722
vt 0.114116 0.648622
vt 0.250212 0.120443
vt 0.026797 0.120443
vt 0.378878 0.120443
vt 0.186735 0.946127
vt 0.370661 0.646800
vt 0.386967 0.651722
vt 0.854704 0.872817
vt 0.815641 0.872817
vt 0.770719 0.872817
s 1
usemtl Tex_MultiGradient
f 1/1/1 2/1/1 4/1/1 3/1/1
f 3/2/2 4/2/2 8/2/2 7/2/2
f 7/1/3 8/1/3 6/1/3 5/1/3
f 5/2/4 6/2/4 2/2/4 1/2/4
f 3/3/5 7/3/5 5/3/5 1/3/5
f 9/1/1 10/1/1 12/1/1 11/1/1
f 11/2/2 12/2/2 16/2/2 15/2/2
f 15/1/3 16/1/3 14/1/3 13/1/3
f 13/2/4 14/2/4 10/2/4 9/2/4
f 11/2/5 15/2/5 13/2/5 9/2/5
f 30/4/6 25/4/7 36/4/7 38/4/6
f 20/4/3 31/4/8 40/4/8 34/4/3
f 33/4/1 37/4/9 24/4/10 18/4/1
f 18/4/5 20/4/5 34/4/5 33/4/5
f 18/5/11 24/5/11 26/5/11 25/5/11 30/5/11 32/5/11 31/5/11 20/5/11
f 36/4/7 25/4/7 26/4/12 35/4/12
f 35/4/13 26/4/13 24/4/10 37/4/9
f 30/4/6 38/4/6 39/4/14 32/4/14
f 32/4/15 39/4/15 40/4/8 31/4/8
f 29/1/16 28/1/17 54/1/17 55/1/16
f 42/6/4 41/6/4 33/6/4 34/6/4
f 43/6/18 44/6/19 36/6/20 35/6/21
f 45/6/22 43/6/18 35/6/21 37/6/23
f 46/6/24 47/6/25 39/6/26 38/6/27
f 47/6/25 48/6/28 40/6/29 39/6/26
f 48/6/28 42/6/4 34/6/4 40/6/29
f 44/6/19 46/6/24 38/6/27 36/6/20
f 41/6/4 45/6/22 37/6/23 33/6/4
f 21/1/30 28/1/17 70/1/17 68/1/30
f 45/1/31 41/1/1 57/1/1 61/1/31
f 27/1/32 19/1/1 66/1/1 72/1/32
f 46/1/33 44/1/34 60/1/34 62/1/33
f 29/1/35 27/1/32 72/1/32 71/1/35
f 42/1/3 48/1/36 64/1/36 58/1/3
f 28/1/17 29/1/16 71/1/16 70/1/17
f 48/1/36 47/1/37 63/1/37 64/1/36
f 50/7/4 56/7/4 55/7/4 54/7/4 52/7/4 51/7/4 53/7/4 49/7/4
f 21/1/30 23/1/38 51/1/38 52/1/30
f 28/1/17 21/1/30 52/1/30 54/1/17
f 27/1/32 29/1/35 55/1/35 56/1/32
f 23/1/39 22/1/40 53/1/40 51/1/39
f 17/8/41 19/8/41 50/8/41 49/8/41
f 22/1/40 17/1/3 49/1/3 53/1/40
f 19/1/1 27/1/32 56/1/32 50/1/1
f 66/2/4 65/2/4 57/2/4 58/2/4
f 67/2/4 68/2/4 60/2/4 59/2/4
f 69/2/4 67/2/4 59/2/4 61/2/4
f 70/2/4 71/2/4 63/2/4 62/2/4
f 71/2/4 72/2/4 64/2/4 63/2/4
f 72/2/4 66/2/4 58/2/4 64/2/4
f 68/2/4 70/2/4 62/2/4 60/2/4
f 65/2/4 69/2/4 61/2/4 57/2/4
f 41/1/5 42/1/5 58/1/5 57/1/5
f 17/1/3 22/1/40 69/1/40 65/1/3
f 44/1/34 43/1/42 59/1/42 60/1/34
f 19/8/41 17/8/41 65/8/41 66/8/41
f 43/1/43 45/1/31 61/1/31 59/1/43
f 23/1/38 21/1/30 68/1/30 67/1/38
f 47/1/44 46/1/33 62/1/33 63/1/44
f 22/1/40 23/1/39 67/1/39 69/1/40
f 73/1/1 74/1/1 76/1/1 75/1/1
f 75/2/2 76/2/2 80/2/2 79/2/2
f 79/9/3 80/9/3 78/9/3 77/9/3
f 77/2/4 78/2/4 74/2/4 73/2/4
f 75/2/5 79/2/5 77/2/5 73/2/5
f 80/2/41 76/2/41 74/2/41 78/2/41
f 81/9/41 82/9/41 84/9/41 83/9/41
f 83/2/2 84/2/2 88/2/2 87/2/2
f 87/1/5 88/1/5 86/1/5 85/1/5
f 85/2/4 86/2/4 82/2/4 81/2/4
f 83/2/1 87/2/1 85/2/1 81/2/1
f 88/2/3 84/2/3 82/2/3 86/2/3
f 144/10/45 147/10/46 104/10/47 107/10/48
f 95/10/49 92/10/50 111/10/51 89/10/52
f 89/10/52 111/10/51 117/10/53 114/10/54
f 114/10/54 117/10/53 123/10/55 120/10/56
f 120/10/56 123/10/55 129/10/57 126/10/58
f 126/10/58 129/10/57 135/10/59 132/10/60
f 132/10/60 135/10/59 141/10/61 138/10/62
f 138/10/62 141/10/61 147/10/46 144/10/45
f 101/10/63 98/10/64 92/10/50 95/10/49
f 99/10/65 105/10/66 146/10/67 140/10/68 134/10/69 128/10/70 122/10/71 116/10/72 110/10/73 93/10/74
f 107/10/48 104/10/47 98/10/64 101/10/63
f 107/10/48 101/10/63 100/10/75 106/10/76
f 106/10/76 100/10/75 102/10/77 108/10/78
f 98/10/64 104/10/47 103/10/79 97/10/80
f 97/10/80 103/10/79 105/10/66 99/10/65
f 101/10/63 95/10/49 94/10/81 100/10/75
f 100/10/75 94/10/81 96/10/82 102/10/77
f 92/10/50 98/10/64 97/10/80 91/10/83
f 91/10/83 97/10/80 99/10/65 93/10/74
f 95/10/49 89/10/52 109/10/84 94/10/81
f 94/10/81 109/10/84 90/10/85 96/10/82
f 111/10/51 92/10/50 91/10/83 112/10/86
f 112/10/86 91/10/83 93/10/74 110/10/73
f 89/10/52 114/10/54 115/10/87 109/10/84
f 109/10/84 115/10/87 113/10/88 90/10/85
f 117/10/53 111/10/51 112/10/86 118/10/89
f 118/10/89 112/10/86 110/10/73 116/10/72
f 114/10/54 120/10/56 121/10/90 115/10/87
f 115/10/87 121/10/90 119/10/91 113/10/88
f 123/10/55 117/10/53 118/10/89 124/10/92
f 124/10/92 118/10/89 116/10/72 122/10/71
f 120/10/56 126/10/58 127/10/93 121/10/90
f 121/10/90 127/10/93 125/10/94 119/10/91
f 129/10/57 123/10/55 124/10/92 130/10/95
f 130/10/95 124/10/92 122/10/71 128/10/70
f 126/10/58 132/10/60 133/10/96 127/10/93
f 127/10/93 133/10/96 131/10/97 125/10/94
f 135/10/59 129/10/57 130/10/95 136/10/98
f 136/10/98 130/10/95 128/10/70 134/10/69
f 132/10/60 138/10/62 139/10/99 133/10/96
f 133/10/96 139/10/99 137/10/100 131/10/97
f 141/10/61 135/10/59 136/10/98 142/10/101
f 142/10/101 136/10/98 134/10/69 140/10/68
f 138/10/62 144/10/45 145/10/102 139/10/99
f 139/10/99 145/10/102 143/10/103 137/10/100
f 147/10/46 141/10/61 142/10/101 148/10/104
f 148/10/104 142/10/101 140/10/68 146/10/67
f 144/10/45 107/10/48 106/10/76 145/10/102
f 145/10/102 106/10/76 108/10/78 143/10/103
f 104/10/47 147/10/46 148/10/104 103/10/79
f 103/10/79 148/10/104 146/10/67 105/10/66
f 108/10/78 102/10/77 96/10/82 90/10/85 113/10/88 119/10/91 125/10/94 131/10/97 137/10/100 143/10/103
f 204/11/105 207/11/106 153/11/107 150/11/108
f 162/11/109 165/11/110 171/11/111 168/11/112
f 168/11/112 171/11/111 177/11/113 174/11/114
f 174/11/114 177/11/113 183/11/115 180/11/116
f 180/11/116 183/11/115 189/11/117 186/11/118
f 186/11/118 189/11/117 195/11/119 192/11/120
f 192/11/120 195/11/119 201/11/121 198/11/122
f 198/11/122 201/11/121 207/11/106 204/11/105
f 156/11/123 159/11/124 165/11/110 162/11/109
f 158/12/125 152/12/126 206/12/127 200/12/128 194/12/129 188/12/130 182/12/131 176/12/132 170/12/133 164/12/134
f 150/11/108 153/11/107 159/11/124 156/11/123
f 150/11/108 156/11/123 157/11/135 151/11/136
f 151/11/136 157/11/135 155/11/137 149/11/138
f 159/11/124 153/11/107 154/11/139 160/11/140
f 160/11/140 154/11/139 152/11/126 158/11/125
f 156/11/123 162/11/109 163/11/141 157/11/135
f 157/11/135 163/11/141 161/11/142 155/11/137
f 165/11/110 159/11/124 160/11/140 166/11/143
f 166/11/143 160/11/140 158/11/125 164/11/134
f 162/11/109 168/11/112 169/11/144 163/11/141
f 163/11/141 169/11/144 167/11/145 161/11/142
f 171/11/111 165/11/110 166/11/143 172/11/146
f 172/11/146 166/11/143 164/11/134 170/11/133
f 168/11/112 174/11/114 175/11/147 169/11/144
f 169/11/144 175/11/147 173/11/148 167/11/145
f 177/11/113 171/11/111 172/11/146 178/11/149
f 178/11/149 172/11/146 170/11/133 176/11/132
f 174/11/114 180/11/116 181/11/150 175/11/147
f 175/11/147 181/11/150 179/11/151 173/11/148
f 183/11/115 177/11/113 178/11/149 184/11/152
f 184/11/152 178/11/149 176/11/132 182/11/131
f 180/11/116 186/11/118 187/11/153 181/11/150
f 181/11/150 187/11/153 185/11/154 179/11/151
f 189/11/117 183/11/115 184/11/152 190/11/155
f 190/11/155 184/11/152 182/11/131 188/11/130
f 186/11/118 192/11/120 193/11/156 187/11/153
f 187/11/153 193/11/156 191/11/157 185/11/154
f 195/11/119 189/11/117 190/11/155 196/11/158
f 196/11/158 190/11/155 188/11/130 194/11/129
f 192/11/120 198/11/122 199/11/159 193/11/156
f 193/11/156 199/11/159 197/11/160 191/11/157
f 201/11/121 195/11/119 196/11/158 202/11/161
f 202/11/161 196/11/158 194/11/129 200/11/128
f 198/11/122 204/11/105 205/11/162 199/11/159
f 199/11/159 205/11/162 203/11/163 197/11/160
f 207/11/106 201/11/121 202/11/161 208/11/164
f 208/11/164 202/11/161 200/11/128 206/11/127
f 204/11/105 150/11/108 151/11/136 205/11/162
f 205/11/162 151/11/136 149/11/138 203/11/163
f 153/11/107 207/11/106 208/11/164 154/11/139
f 154/11/139 208/11/164 206/11/127 152/11/126
f 149/12/138 155/12/137 161/12/142 167/12/145 173/12/148 179/12/151 185/12/154 191/12/157 197/12/160 203/12/163
f 2/9/41 6/9/41 8/9/41 4/9/41
f 10/9/41 14/9/41 16/9/41 12/9/41
