# Blender 4.3.0
# www.blender.org
mtllib Door01_Orange_White.mtl
o Door01_Orange_White
v -0.266148 0.846615 0.092073
v -0.427996 0.694111 -0.013353
v 0.242207 0.846615 0.092073
v 0.404055 0.694111 -0.013353
v -0.114979 1.237741 0.092073
v -0.266148 1.074272 0.092073
v -0.221871 1.189862 0.092073
v -0.427996 1.109085 -0.013353
v -0.147173 1.412758 -0.013353
v -0.345745 1.323814 -0.013353
v 0.242207 1.074272 0.092073
v 0.091038 1.237741 0.092073
v 0.197931 1.189862 0.092073
v 0.123232 1.412758 -0.013353
v 0.404055 1.109085 -0.013353
v 0.321804 1.323814 -0.013353
v -0.427996 0.694111 0.092073
v 0.404055 0.694111 0.092073
v -0.345745 1.323814 0.092073
v -0.147173 1.412758 0.092073
v -0.427996 1.109085 0.092073
v 0.123232 1.412758 0.092073
v 0.321804 1.323814 0.092073
v 0.404055 1.109085 0.092073
v -0.331407 0.776046 0.092073
v 0.307466 0.776046 0.092073
v -0.271819 1.243873 0.092073
v -0.127960 1.308310 0.092073
v -0.331407 1.088309 0.092073
v 0.104019 1.308310 0.092073
v 0.247878 1.243873 0.092073
v 0.307466 1.088309 0.092073
v -0.266148 0.846615 0.059674
v 0.242207 0.846615 0.059674
v -0.221871 1.189862 0.059674
v -0.114979 1.237741 0.059674
v -0.266148 1.074272 0.059674
v 0.091038 1.237741 0.059674
v 0.197931 1.189862 0.059674
v 0.242207 1.074272 0.059674
v -0.331407 0.776046 0.107786
v 0.307466 0.776046 0.107786
v -0.271819 1.243873 0.107786
v -0.127960 1.308310 0.107786
v -0.331407 1.088309 0.107786
v 0.104019 1.308310 0.107786
v 0.247878 1.243873 0.107786
v 0.307466 1.088309 0.107786
v -0.266148 0.846615 0.107786
v 0.242207 0.846615 0.107786
v -0.221871 1.189862 0.107786
v -0.114979 1.237741 0.107786
v -0.266148 1.074272 0.107786
v 0.091038 1.237741 0.107786
v 0.197931 1.189862 0.107786
v 0.242207 1.074272 0.107786
v -0.050070 0.840099 0.096206
v -0.050070 1.287898 0.096206
v -0.050070 0.840099 0.064289
v -0.050070 1.287898 0.064289
v 0.019166 0.840099 0.096206
v 0.019166 1.287898 0.096206
v 0.019166 0.840099 0.064289
v 0.019166 1.287898 0.064289
v -0.292516 1.067433 0.096206
v 0.272952 1.067433 0.096206
v -0.292516 1.067433 0.064289
v 0.272952 1.067433 0.064289
v -0.292516 0.998198 0.096206
v 0.272952 0.998197 0.096206
v -0.292516 0.998198 0.064289
v 0.272952 0.998198 0.064289
v -0.427996 0.322618 -0.013353
v -0.427996 0.322618 0.092073
v 0.404055 0.322618 -0.013353
v 0.404055 0.322618 0.092073
v -0.504230 0.003464 0.626920
v -0.504230 0.178025 0.626920
v -0.504230 0.003464 -0.013748
v -0.504230 0.178025 -0.013748
v 0.475251 0.003464 0.626921
v 0.475251 0.178025 0.626921
v 0.475251 0.003464 -0.013748
v 0.475251 0.178025 -0.013748
v -0.504230 0.176991 0.477397
v -0.504230 0.351552 0.477397
v -0.504230 0.176991 -0.013748
v -0.504230 0.351552 -0.013748
v 0.475251 0.176991 0.477398
v 0.475251 0.351552 0.477398
v 0.475251 0.176991 -0.013748
v 0.475251 0.351552 -0.013748
v -0.295316 0.747587 0.061746
v -0.304375 0.722258 0.037199
v -0.328733 0.740169 0.221781
v -0.331387 0.747587 0.204423
v -0.322327 0.722258 0.228970
v -0.328733 0.740169 0.044388
v -0.331387 0.747587 0.061746
v -0.322327 0.722258 0.037199
v -0.353621 0.723742 0.221781
v -0.360568 0.728327 0.204423
v -0.336851 0.712672 0.228970
v -0.353621 0.723742 0.044388
v -0.360568 0.728327 0.061746
v -0.336851 0.712673 0.037199
v -0.363128 0.697162 0.221781
v -0.371715 0.697162 0.204423
v -0.342398 0.697162 0.228970
v -0.363128 0.697163 0.044388
v -0.371715 0.697163 0.061746
v -0.342398 0.697163 0.037199
v -0.297970 0.740169 0.044388
v -0.304375 0.722258 0.228970
v -0.295316 0.747587 0.204423
v -0.297970 0.740169 0.221781
v -0.289852 0.712673 0.037199
v -0.266135 0.728327 0.061746
v -0.273081 0.723742 0.044388
v -0.289852 0.712672 0.228970
v -0.266135 0.728327 0.204423
v -0.273081 0.723742 0.221781
v -0.284305 0.697163 0.037199
v -0.254988 0.697163 0.061746
v -0.263575 0.697163 0.044388
v -0.284305 0.697162 0.228970
v -0.254988 0.697162 0.204423
v -0.263575 0.697162 0.221781
v -0.289852 0.681652 0.037199
v -0.266135 0.665998 0.061746
v -0.273081 0.670583 0.044388
v -0.289852 0.681652 0.228970
v -0.266135 0.665998 0.204423
v -0.273081 0.670583 0.221781
v -0.304375 0.672066 0.037199
v -0.295316 0.646738 0.061746
v -0.297970 0.654156 0.044388
v -0.304375 0.672066 0.228970
v -0.295316 0.646738 0.204423
v -0.297970 0.654156 0.221781
v -0.322327 0.672066 0.037199
v -0.331387 0.646738 0.061746
v -0.328733 0.654156 0.044388
v -0.322327 0.672066 0.228970
v -0.331387 0.646738 0.204423
v -0.328733 0.654156 0.221781
v -0.336851 0.681652 0.037199
v -0.360568 0.665998 0.061746
v -0.353621 0.670583 0.044388
v -0.336851 0.681652 0.228970
v -0.360568 0.665998 0.204423
v -0.353621 0.670583 0.221781
v -0.245106 0.697162 0.151167
v -0.288315 0.697162 0.111167
v -0.257762 0.697162 0.122883
v -0.400092 0.697162 0.150677
v -0.356350 0.697162 0.110184
v -0.387280 0.697162 0.122044
v -0.245106 0.721199 0.158736
v -0.288315 0.745458 0.126376
v -0.257762 0.738353 0.135854
v -0.400092 0.721495 0.158340
v -0.356350 0.746054 0.125580
v -0.387280 0.738861 0.135175
v -0.245106 0.736054 0.178551
v -0.288315 0.775306 0.166191
v -0.257762 0.763810 0.169811
v -0.400092 0.736534 0.178400
v -0.356350 0.776271 0.165887
v -0.387280 0.764632 0.169552
v -0.245106 0.736054 0.203045
v -0.288315 0.775306 0.215405
v -0.257762 0.763810 0.211785
v -0.400092 0.736534 0.203196
v -0.356350 0.776271 0.215709
v -0.387280 0.764632 0.212044
v -0.245106 0.721199 0.222861
v -0.288315 0.745458 0.255221
v -0.257762 0.738353 0.245743
v -0.400092 0.721495 0.223256
v -0.356350 0.746054 0.256016
v -0.387280 0.738861 0.246421
v -0.245106 0.697162 0.230429
v -0.288315 0.697162 0.270429
v -0.257762 0.697162 0.258713
v -0.400092 0.697162 0.230919
v -0.356350 0.697162 0.271412
v -0.387280 0.697162 0.259552
v -0.245106 0.673126 0.222861
v -0.288315 0.648867 0.255221
v -0.257762 0.655972 0.245743
v -0.400092 0.672829 0.223256
v -0.356350 0.648270 0.256016
v -0.387280 0.655463 0.246421
v -0.245106 0.658271 0.203045
v -0.288315 0.619018 0.215405
v -0.257762 0.630515 0.211785
v -0.400092 0.657791 0.203196
v -0.356350 0.618054 0.215709
v -0.387280 0.629692 0.212044
v -0.245106 0.658271 0.178551
v -0.288315 0.619018 0.166191
v -0.257762 0.630515 0.169811
v -0.400092 0.657791 0.178400
v -0.356350 0.618054 0.165887
v -0.387280 0.629692 0.169552
v -0.245106 0.673126 0.158736
v -0.288315 0.648867 0.126376
v -0.257762 0.655972 0.135854
v -0.400092 0.672829 0.158340
v -0.356350 0.648270 0.125580
v -0.387280 0.655463 0.135175
vn 0.2090 0.9779 -0.0000
vn -0.2090 0.9779 -0.0000
vn 1.0000 -0.0000 -0.0000
vn 0.9833 0.1819 -0.0000
vn -1.0000 -0.0000 -0.0000
vn -0.9833 0.1819 -0.0000
vn -0.0000 -0.0000 -1.0000
vn -0.7264 0.6873 -0.0000
vn 0.7264 0.6873 -0.0000
vn -0.7264 -0.6873 -0.0000
vn -0.2090 -0.9779 -0.0000
vn -0.0000 -0.0000 1.0000
vn 0.2090 -0.9779 -0.0000
vn -0.9833 -0.1819 -0.0000
vn 0.7264 -0.6873 -0.0000
vn 0.9833 -0.1819 -0.0000
vn -0.0000 1.0000 -0.0000
vn -0.0000 -1.0000 -0.0000
vn -0.7705 -0.6011 -0.2121
vn -0.7705 -0.6011 0.2121
vn -0.9761 -0.0000 0.2175
vn -0.9761 -0.0000 -0.2175
vn -0.2831 0.9372 -0.2037
vn -0.2831 0.9372 0.2037
vn 0.2831 0.9372 0.2037
vn 0.2831 0.9372 -0.2037
vn 0.7705 0.6011 0.2121
vn 0.7705 0.6011 -0.2121
vn 0.9761 -0.0000 0.2175
vn 0.9761 -0.0000 -0.2175
vn 0.7705 -0.6011 0.2121
vn 0.7705 -0.6011 -0.2121
vn 0.2831 -0.9372 0.2037
vn 0.2831 -0.9372 -0.2037
vn -0.2831 -0.9372 0.2037
vn -0.2831 -0.9372 -0.2037
vn -0.7705 0.6011 -0.2121
vn -0.7705 0.6011 0.2121
vn -0.1589 0.1304 0.9787
vn -0.2010 -0.0000 0.9796
vn -0.1589 -0.1304 0.9787
vn -0.0585 -0.2037 0.9773
vn 0.0585 -0.2037 0.9773
vn 0.1589 -0.1304 0.9787
vn 0.2010 -0.0000 0.9796
vn 0.1589 0.1304 0.9787
vn 0.0585 0.2037 0.9773
vn -0.0585 0.2037 0.9773
vn -0.5561 0.4397 -0.7053
vn -0.7029 -0.0000 -0.7112
vn -0.1589 0.1304 -0.9787
vn -0.2010 -0.0000 -0.9796
vn -0.7029 -0.0000 0.7112
vn -0.5561 0.4397 0.7053
vn -0.2054 0.6883 -0.6957
vn -0.0585 0.2037 -0.9773
vn -0.2054 0.6883 0.6957
vn 0.2054 0.6883 -0.6957
vn 0.0585 0.2037 -0.9773
vn 0.2054 0.6883 0.6957
vn 0.5561 0.4397 -0.7053
vn 0.1589 0.1304 -0.9787
vn 0.5561 0.4397 0.7053
vn 0.7029 -0.0000 -0.7112
vn 0.2010 -0.0000 -0.9796
vn 0.7029 -0.0000 0.7112
vn 0.5561 -0.4397 -0.7053
vn 0.1589 -0.1304 -0.9787
vn 0.5561 -0.4397 0.7053
vn 0.2054 -0.6883 -0.6957
vn 0.0585 -0.2037 -0.9773
vn 0.2054 -0.6883 0.6957
vn -0.2054 -0.6883 -0.6957
vn -0.0585 -0.2037 -0.9773
vn -0.2054 -0.6883 0.6957
vn -0.5561 -0.4397 -0.7053
vn -0.1589 -0.1304 -0.9787
vn -0.5561 -0.4397 0.7053
vn 0.1848 -0.5687 -0.8015
vn -0.1705 -0.5702 -0.8036
vn -0.1690 -0.0000 -0.9856
vn 0.1832 -0.0000 -0.9831
vn 0.1875 0.9320 -0.3101
vn -0.1729 0.9346 -0.3109
vn -0.1729 0.9346 0.3109
vn 0.1875 0.9320 0.3101
vn -0.1705 0.5702 0.8036
vn 0.1848 0.5687 0.8015
vn -0.1690 -0.0000 0.9856
vn 0.1832 -0.0000 0.9831
vn -0.1705 -0.5702 0.8036
vn 0.1848 -0.5687 0.8015
vn -0.1729 -0.9346 0.3109
vn 0.1875 -0.9320 0.3101
vn -0.1729 -0.9346 -0.3109
vn 0.1875 -0.9320 -0.3101
vn 0.1848 0.5687 -0.8015
vn -0.1705 0.5702 -0.8036
vn -0.9694 0.1405 -0.2012
vn -0.9690 -0.0000 -0.2469
vn -0.9694 -0.1405 -0.2012
vn -0.9700 -0.2302 -0.0778
vn -0.9700 -0.2302 0.0778
vn -0.9694 -0.1405 0.2012
vn -0.9690 -0.0000 0.2469
vn -0.9694 0.1405 0.2012
vn -0.9700 0.2302 0.0778
vn -0.9700 0.2302 -0.0778
vn 0.6549 0.4365 -0.6170
vn 0.6528 -0.0000 -0.7575
vn 0.9694 0.1405 -0.2012
vn 0.9690 -0.0000 -0.2469
vn -0.6528 -0.0000 -0.7575
vn -0.6549 0.4365 -0.6170
vn 0.6582 0.7141 -0.2383
vn 0.9700 0.2302 -0.0778
vn -0.6582 0.7141 -0.2383
vn 0.6582 0.7141 0.2383
vn 0.9700 0.2302 0.0778
vn -0.6582 0.7141 0.2383
vn 0.6549 0.4365 0.6170
vn 0.9694 0.1405 0.2012
vn -0.6549 0.4365 0.6170
vn 0.6528 -0.0000 0.7575
vn 0.9690 -0.0000 0.2469
vn -0.6528 -0.0000 0.7575
vn 0.6549 -0.4365 0.6170
vn 0.9694 -0.1405 0.2012
vn -0.6549 -0.4365 0.6170
vn 0.6582 -0.7141 0.2383
vn 0.9700 -0.2302 0.0778
vn -0.6582 -0.7141 0.2383
vn 0.6582 -0.7141 -0.2383
vn 0.9700 -0.2302 -0.0778
vn -0.6582 -0.7142 -0.2383
vn 0.6549 -0.4365 -0.6170
vn 0.9694 -0.1405 -0.2012
vn -0.6549 -0.4365 -0.6170
vt 0.308805 0.658764
vt 0.085390 0.658764
vt 0.310216 0.872817
vt 0.437472 0.658764
vt 0.186735 0.946127
vt 0.263461 0.867895
vt 0.452059 0.872817
vt 0.378878 0.656811
vt 0.250533 0.869716
vt 0.523384 0.872817
vt 0.854704 0.872817
vt 0.815641 0.872817
vt 0.770719 0.872817
s 1
usemtl Tex_MultiGradient
f 14/1/1 9/1/2 20/1/2 22/1/1
f 4/1/3 15/1/4 24/1/4 18/1/3
f 17/1/5 21/1/6 8/1/6 2/1/5
f 2/2/7 4/2/7 75/2/7 73/2/7
f 2/2/7 8/2/7 10/2/7 9/2/7 14/2/7 16/2/7 15/2/7 4/2/7
f 20/1/2 9/1/2 10/1/8 19/1/8
f 19/1/8 10/1/8 8/1/6 21/1/6
f 14/1/1 22/1/1 23/1/9 16/1/9
f 16/1/9 23/1/9 24/1/4 15/1/4
f 13/3/10 12/3/11 38/3/11 39/3/10
f 26/4/12 25/4/12 17/4/12 18/4/12
f 27/4/12 28/4/12 20/4/12 19/4/12
f 29/4/12 27/4/12 19/4/12 21/4/12
f 30/4/12 31/4/12 23/4/12 22/4/12
f 31/4/12 32/4/12 24/4/12 23/4/12
f 32/4/12 26/4/12 18/4/12 24/4/12
f 28/4/12 30/4/12 22/4/12 20/4/12
f 25/4/12 29/4/12 21/4/12 17/4/12
f 5/3/13 12/3/11 54/3/11 52/3/13
f 29/3/6 25/3/5 41/3/5 45/3/6
f 11/3/14 3/3/5 50/3/5 56/3/14
f 30/3/1 28/3/2 44/3/2 46/3/1
f 13/3/10 11/3/14 56/3/14 55/3/10
f 26/3/3 32/3/4 48/3/4 42/3/3
f 12/3/11 13/3/10 55/3/10 54/3/11
f 32/3/4 31/3/9 47/3/9 48/3/4
f 34/5/12 40/5/12 39/5/12 38/5/12 36/5/12 35/5/12 37/5/12 33/5/12
f 5/3/13 7/3/15 35/3/15 36/3/13
f 12/3/11 5/3/13 36/3/13 38/3/11
f 11/3/14 13/3/10 39/3/10 40/3/14
f 7/3/15 6/3/16 37/3/16 35/3/15
f 1/6/17 3/6/17 34/6/17 33/6/17
f 6/3/16 1/3/3 33/3/3 37/3/16
f 3/3/5 11/3/14 40/3/14 34/3/5
f 50/7/12 49/7/12 41/7/12 42/7/12
f 51/7/12 52/7/12 44/7/12 43/7/12
f 53/7/12 51/7/12 43/7/12 45/7/12
f 54/7/12 55/7/12 47/7/12 46/7/12
f 55/7/12 56/7/12 48/7/12 47/7/12
f 56/7/12 50/7/12 42/7/12 48/7/12
f 52/7/12 54/7/12 46/7/12 44/7/12
f 49/7/12 53/7/12 45/7/12 41/7/12
f 25/3/18 26/3/18 42/3/18 41/3/18
f 1/3/3 6/3/16 53/3/16 49/3/3
f 28/3/2 27/3/8 43/3/8 44/3/2
f 3/6/17 1/6/17 49/6/17 50/6/17
f 27/3/8 29/3/6 45/3/6 43/3/8
f 7/3/15 5/3/13 52/3/13 51/3/15
f 31/3/9 30/3/1 46/3/1 47/3/9
f 6/3/16 7/3/15 51/3/15 53/3/16
f 57/3/5 58/3/5 60/3/5 59/3/5
f 59/7/7 60/7/7 64/7/7 63/7/7
f 63/7/3 64/7/3 62/7/3 61/7/3
f 61/7/12 62/7/12 58/7/12 57/7/12
f 59/7/18 63/7/18 61/7/18 57/7/18
f 64/7/17 60/7/17 58/7/17 62/7/17
f 65/7/17 66/7/17 68/7/17 67/7/17
f 67/7/7 68/7/7 72/7/7 71/7/7
f 71/3/18 72/3/18 70/3/18 69/3/18
f 69/7/12 70/7/12 66/7/12 65/7/12
f 67/7/5 71/7/5 69/7/5 65/7/5
f 72/7/3 68/7/3 66/7/3 70/7/3
f 73/1/18 75/1/18 76/1/18 74/1/18
f 4/1/3 18/1/3 76/1/3 75/1/3
f 17/1/5 2/1/5 73/1/5 74/1/5
f 18/8/12 17/8/12 74/8/12 76/8/12
f 77/7/5 78/7/5 80/7/5 79/7/5
f 79/7/7 80/7/7 84/7/7 83/7/7
f 83/3/3 84/3/3 82/3/3 81/3/3
f 81/7/12 82/7/12 78/7/12 77/7/12
f 79/9/18 83/9/18 81/9/18 77/9/18
f 84/10/17 80/10/17 78/10/17 82/10/17
f 85/7/5 86/7/5 88/7/5 87/7/5
f 87/7/7 88/7/7 92/7/7 91/7/7
f 91/3/3 92/3/3 90/3/3 89/3/3
f 89/7/12 90/7/12 86/7/12 85/7/12
f 87/7/18 91/7/18 89/7/18 85/7/18
f 92/10/17 88/10/17 86/10/17 90/10/17
f 148/11/19 151/11/20 108/11/21 111/11/22
f 99/11/23 96/11/24 115/11/25 93/11/26
f 93/11/26 115/11/25 121/11/27 118/11/28
f 118/11/28 121/11/27 127/11/29 124/11/30
f 124/11/30 127/11/29 133/11/31 130/11/32
f 130/11/32 133/11/31 139/11/33 136/11/34
f 136/11/34 139/11/33 145/11/35 142/11/36
f 142/11/36 145/11/35 151/11/20 148/11/19
f 105/11/37 102/11/38 96/11/24 99/11/23
f 103/11/39 109/11/40 150/11/41 144/11/42 138/11/43 132/11/44 126/11/45 120/11/46 114/11/47 97/11/48
f 111/11/22 108/11/21 102/11/38 105/11/37
f 111/11/22 105/11/37 104/11/49 110/11/50
f 110/11/50 104/11/49 106/11/51 112/11/52
f 102/11/38 108/11/21 107/11/53 101/11/54
f 101/11/54 107/11/53 109/11/40 103/11/39
f 105/11/37 99/11/23 98/11/55 104/11/49
f 104/11/49 98/11/55 100/11/56 106/11/51
f 96/11/24 102/11/38 101/11/54 95/11/57
f 95/11/57 101/11/54 103/11/39 97/11/48
f 99/11/23 93/11/26 113/11/58 98/11/55
f 98/11/55 113/11/58 94/11/59 100/11/56
f 115/11/25 96/11/24 95/11/57 116/11/60
f 116/11/60 95/11/57 97/11/48 114/11/47
f 93/11/26 118/11/28 119/11/61 113/11/58
f 113/11/58 119/11/61 117/11/62 94/11/59
f 121/11/27 115/11/25 116/11/60 122/11/63
f 122/11/63 116/11/60 114/11/47 120/11/46
f 118/11/28 124/11/30 125/11/64 119/11/61
f 119/11/61 125/11/64 123/11/65 117/11/62
f 127/11/29 121/11/27 122/11/63 128/11/66
f 128/11/66 122/11/63 120/11/46 126/11/45
f 124/11/30 130/11/32 131/11/67 125/11/64
f 125/11/64 131/11/67 129/11/68 123/11/65
f 133/11/31 127/11/29 128/11/66 134/11/69
f 134/11/69 128/11/66 126/11/45 132/11/44
f 130/11/32 136/11/34 137/11/70 131/11/67
f 131/11/67 137/11/70 135/11/71 129/11/68
f 139/11/33 133/11/31 134/11/69 140/11/72
f 140/11/72 134/11/69 132/11/44 138/11/43
f 136/11/34 142/11/36 143/11/73 137/11/70
f 137/11/70 143/11/73 141/11/74 135/11/71
f 145/11/35 139/11/33 140/11/72 146/11/75
f 146/11/75 140/11/72 138/11/43 144/11/42
f 142/11/36 148/11/19 149/11/76 143/11/73
f 143/11/73 149/11/76 147/11/77 141/11/74
f 151/11/20 145/11/35 146/11/75 152/11/78
f 152/11/78 146/11/75 144/11/42 150/11/41
f 148/11/19 111/11/22 110/11/50 149/11/76
f 149/11/76 110/11/50 112/11/52 147/11/77
f 108/11/21 151/11/20 152/11/78 107/11/53
f 107/11/53 152/11/78 150/11/41 109/11/40
f 112/11/52 106/11/51 100/11/56 94/11/59 117/11/62 123/11/65 129/11/68 135/11/71 141/11/74 147/11/77
f 208/12/79 211/12/80 157/12/81 154/12/82
f 166/12/83 169/12/84 175/12/85 172/12/86
f 172/12/86 175/12/85 181/12/87 178/12/88
f 178/12/88 181/12/87 187/12/89 184/12/90
f 184/12/90 187/12/89 193/12/91 190/12/92
f 190/12/92 193/12/91 199/12/93 196/12/94
f 196/12/94 199/12/93 205/12/95 202/12/96
f 202/12/96 205/12/95 211/12/80 208/12/79
f 160/12/97 163/12/98 169/12/84 166/12/83
f 162/13/99 156/13/100 210/13/101 204/13/102 198/13/103 192/13/104 186/13/105 180/13/106 174/13/107 168/13/108
f 154/12/82 157/12/81 163/12/98 160/12/97
f 154/12/82 160/12/97 161/12/109 155/12/110
f 155/12/110 161/12/109 159/12/111 153/12/112
f 163/12/98 157/12/81 158/12/113 164/12/114
f 164/12/114 158/12/113 156/12/100 162/12/99
f 160/12/97 166/12/83 167/12/115 161/12/109
f 161/12/109 167/12/115 165/12/116 159/12/111
f 169/12/84 163/12/98 164/12/114 170/12/117
f 170/12/117 164/12/114 162/12/99 168/12/108
f 166/12/83 172/12/86 173/12/118 167/12/115
f 167/12/115 173/12/118 171/12/119 165/12/116
f 175/12/85 169/12/84 170/12/117 176/12/120
f 176/12/120 170/12/117 168/12/108 174/12/107
f 172/12/86 178/12/88 179/12/121 173/12/118
f 173/12/118 179/12/121 177/12/122 171/12/119
f 181/12/87 175/12/85 176/12/120 182/12/123
f 182/12/123 176/12/120 174/12/107 180/12/106
f 178/12/88 184/12/90 185/12/124 179/12/121
f 179/12/121 185/12/124 183/12/125 177/12/122
f 187/12/89 181/12/87 182/12/123 188/12/126
f 188/12/126 182/12/123 180/12/106 186/12/105
f 184/12/90 190/12/92 191/12/127 185/12/124
f 185/12/124 191/12/127 189/12/128 183/12/125
f 193/12/91 187/12/89 188/12/126 194/12/129
f 194/12/129 188/12/126 186/12/105 192/12/104
f 190/12/92 196/12/94 197/12/130 191/12/127
f 191/12/127 197/12/130 195/12/131 189/12/128
f 199/12/93 193/12/91 194/12/129 200/12/132
f 200/12/132 194/12/129 192/12/104 198/12/103
f 196/12/94 202/12/96 203/12/133 197/12/130
f 197/12/130 203/12/133 201/12/134 195/12/131
f 205/12/95 199/12/93 200/12/132 206/12/135
f 206/12/135 200/12/132 198/12/103 204/12/102
f 202/12/96 208/12/79 209/12/136 203/12/133
f 203/12/133 209/12/136 207/12/137 201/12/134
f 211/12/80 205/12/95 206/12/135 212/12/138
f 212/12/138 206/12/135 204/12/102 210/12/101
f 208/12/79 154/12/82 155/12/110 209/12/136
f 209/12/136 155/12/110 153/12/112 207/12/137
f 157/12/81 211/12/80 212/12/138 158/12/113
f 158/12/113 212/12/138 210/12/101 156/12/100
f 153/13/112 159/13/111 165/13/116 171/13/119 177/13/122 183/13/125 189/13/128 195/13/131 201/13/134 207/13/137
