# Blender 4.3.0
# www.blender.org
mtllib Door03_Green_White.mtl
o Door03_Green_White
v -0.489741 0.000000 0.640669
v -0.489741 0.174561 0.640669
v -0.489741 0.000000 0.000000
v -0.489741 0.174561 0.000000
v 0.489741 0.000000 0.640669
v 0.489741 0.174561 0.640669
v 0.489741 0.000000 0.000000
v 0.489741 0.174561 0.000000
v -0.489741 0.173527 0.491146
v -0.489741 0.348087 0.491146
v -0.489741 0.173527 0.000000
v -0.489741 0.348087 0.000000
v 0.489741 0.173527 0.491146
v 0.489741 0.348087 0.491146
v 0.489741 0.173527 0.000000
v 0.489741 0.348087 0.000000
v -0.417867 0.343244 0.000000
v 0.424003 0.343244 0.000000
v -0.455875 0.797006 -0.004759
v 0.462011 0.797006 -0.004759
v -0.324254 0.347140 0.106595
v 0.329064 0.347140 0.106595
v -0.353657 0.770959 0.110160
v 0.358424 0.770426 0.110149
v -0.272084 1.324903 -0.019080
v -0.095327 1.412863 -0.021861
v -0.192771 1.387100 -0.021047
v 0.071219 1.412863 -0.021861
v 0.252431 1.328454 -0.019193
v 0.169968 1.388140 -0.021080
v -0.078598 1.291770 0.126095
v -0.204654 1.226099 0.123660
v -0.148089 1.272536 0.125382
v 0.188183 1.227649 0.123736
v 0.056691 1.291770 0.126095
v 0.128344 1.272990 0.125404
v -0.436600 0.976765 -0.009159
v -0.328061 1.250853 -0.016739
v -0.398055 1.120036 -0.012921
v 0.321796 1.245926 -0.016583
v 0.439324 0.977092 -0.009167
v 0.396982 1.118689 -0.012878
v -0.247923 1.166177 0.121515
v -0.337408 0.929605 0.114356
v -0.305629 1.053266 0.117898
v 0.339390 0.928607 0.114337
v 0.243052 1.159307 0.121313
v 0.304682 1.050118 0.117816
v -0.417867 0.343244 0.105414
v 0.424003 0.343244 0.105414
v 0.462011 0.797006 0.110173
v -0.455875 0.797006 0.110173
v -0.192771 1.387100 0.126461
v -0.095327 1.412863 0.127276
v -0.272084 1.324903 0.124495
v 0.071219 1.412863 0.127276
v 0.169968 1.388140 0.126494
v 0.252431 1.328454 0.124607
v -0.436600 0.976765 0.114573
v -0.398055 1.120036 0.118336
v -0.328061 1.250853 0.122154
v 0.396982 1.118689 0.118292
v 0.439324 0.977092 0.114581
v 0.321796 1.245926 0.121998
v 0.424003 0.343244 0.120567
v 0.462011 0.797006 0.125326
v -0.455875 0.797006 0.125326
v -0.417867 0.343244 0.120567
v -0.192771 1.387100 0.141614
v -0.095327 1.412863 0.142429
v -0.272084 1.324903 0.139648
v 0.071219 1.412863 0.142429
v 0.169968 1.388140 0.141647
v 0.252431 1.328454 0.139760
v -0.436600 0.976765 0.129726
v -0.398055 1.120036 0.133488
v -0.328061 1.250853 0.137306
v 0.396982 1.118689 0.133445
v 0.439324 0.977092 0.129734
v 0.321796 1.245926 0.137151
v 0.329064 0.347140 0.121748
v 0.358424 0.770426 0.125302
v -0.353657 0.770959 0.125312
v -0.324254 0.347140 0.121748
v -0.148089 1.272536 0.140535
v -0.078598 1.291770 0.141248
v -0.204654 1.226099 0.138813
v 0.056691 1.291770 0.141248
v 0.128344 1.272990 0.140557
v 0.188183 1.227649 0.138889
v -0.337408 0.929605 0.129509
v -0.305629 1.053266 0.133051
v -0.247923 1.166177 0.136668
v 0.304682 1.050118 0.132969
v 0.339390 0.928607 0.129490
v 0.243052 1.159307 0.136466
v -0.236694 0.744123 0.075494
v -0.245753 0.718794 0.050947
v -0.270111 0.736705 0.235529
v -0.272764 0.744123 0.218171
v -0.263705 0.718794 0.242718
v -0.270111 0.736705 0.058136
v -0.272764 0.744123 0.075494
v -0.263705 0.718794 0.050947
v -0.294999 0.720278 0.235529
v -0.301946 0.724862 0.218171
v -0.278228 0.709208 0.242718
v -0.294999 0.720278 0.058136
v -0.301946 0.724862 0.075494
v -0.278228 0.709208 0.050947
v -0.304506 0.693698 0.235529
v -0.313092 0.693698 0.218171
v -0.283776 0.693698 0.242718
v -0.304506 0.693698 0.058136
v -0.313092 0.693698 0.075494
v -0.283776 0.693698 0.050947
v -0.239347 0.736705 0.058136
v -0.245753 0.718794 0.242718
v -0.236694 0.744123 0.218171
v -0.239347 0.736705 0.235529
v -0.231230 0.709208 0.050947
v -0.207512 0.724862 0.075494
v -0.214459 0.720278 0.058136
v -0.231230 0.709208 0.242718
v -0.207512 0.724862 0.218171
v -0.214459 0.720278 0.235529
v -0.225682 0.693698 0.050947
v -0.196366 0.693698 0.075494
v -0.204952 0.693698 0.058136
v -0.225682 0.693698 0.242718
v -0.196366 0.693698 0.218171
v -0.204953 0.693698 0.235529
v -0.231230 0.678188 0.050947
v -0.207512 0.662534 0.075494
v -0.214459 0.667119 0.058136
v -0.231230 0.678188 0.242718
v -0.207512 0.662534 0.218171
v -0.214459 0.667119 0.235529
v -0.245753 0.668602 0.050947
v -0.236694 0.643274 0.075494
v -0.239347 0.650692 0.058136
v -0.245753 0.668602 0.242718
v -0.236694 0.643274 0.218171
v -0.239347 0.650692 0.235529
v -0.263705 0.668602 0.050947
v -0.272764 0.643274 0.075494
v -0.270111 0.650692 0.058136
v -0.263705 0.668602 0.242718
v -0.272764 0.643274 0.218171
v -0.270111 0.650692 0.235529
v -0.278228 0.678188 0.050947
v -0.301946 0.662534 0.075494
v -0.294999 0.667119 0.058136
v -0.278228 0.678188 0.242718
v -0.301946 0.662534 0.218171
v -0.294999 0.667119 0.235529
v -0.186484 0.693698 0.164915
v -0.229692 0.693698 0.124915
v -0.199139 0.693698 0.136631
v -0.341469 0.693698 0.164425
v -0.297727 0.693698 0.123932
v -0.328657 0.693698 0.135792
v -0.186484 0.717734 0.172484
v -0.229692 0.741994 0.140124
v -0.199139 0.734889 0.149602
v -0.341469 0.718031 0.172088
v -0.297727 0.742590 0.139328
v -0.328657 0.735397 0.148923
v -0.186484 0.732590 0.192299
v -0.229692 0.771842 0.179939
v -0.199139 0.760345 0.183559
v -0.341469 0.733070 0.192148
v -0.297727 0.772807 0.179635
v -0.328657 0.761168 0.183300
v -0.186484 0.732590 0.216793
v -0.229692 0.771842 0.229153
v -0.199139 0.760345 0.225533
v -0.341469 0.733070 0.216944
v -0.297727 0.772807 0.229457
v -0.328657 0.761168 0.225792
v -0.186484 0.717734 0.236609
v -0.229692 0.741994 0.268969
v -0.199139 0.734888 0.259491
v -0.341469 0.718031 0.237004
v -0.297727 0.742590 0.269764
v -0.328657 0.735397 0.260169
v -0.186484 0.693698 0.244177
v -0.229692 0.693698 0.284177
v -0.199139 0.693698 0.272461
v -0.341469 0.693698 0.244667
v -0.297727 0.693698 0.285160
v -0.328657 0.693698 0.273300
v -0.186484 0.669662 0.236609
v -0.229692 0.645403 0.268969
v -0.199139 0.652508 0.259491
v -0.341469 0.669365 0.237004
v -0.297727 0.644806 0.269764
v -0.328657 0.651999 0.260169
v -0.186484 0.654806 0.216793
v -0.229692 0.615554 0.229153
v -0.199139 0.627051 0.225533
v -0.341469 0.654327 0.216944
v -0.297727 0.614590 0.229457
v -0.328657 0.626228 0.225792
v -0.186484 0.654807 0.192299
v -0.229692 0.615554 0.179939
v -0.199139 0.627051 0.183559
v -0.341469 0.654327 0.192148
v -0.297727 0.614590 0.179635
v -0.328657 0.626228 0.183300
v -0.186484 0.669662 0.172484
v -0.229692 0.645403 0.140124
v -0.199139 0.652508 0.149602
v -0.341469 0.669365 0.172088
v -0.297727 0.644806 0.139328
v -0.328657 0.651999 0.148923
vn -1.0000 -0.0000 -0.0000
vn -0.0000 -0.0000 -1.0000
vn 1.0000 -0.0000 -0.0000
vn -0.0000 -0.0000 1.0000
vn -0.0000 -1.0000 -0.0000
vn -0.0000 1.0000 -0.0000
vn -0.0000 -0.0192 0.9998
vn 0.9965 -0.0835 -0.0000
vn 0.9998 0.0220 -0.0000
vn -0.9965 -0.0835 -0.0000
vn -0.9999 0.0127 -0.0000
vn 0.1221 0.9925 -0.0000
vn -0.1285 0.9917 -0.0000
vn 0.9782 0.2077 -0.0000
vn -0.0000 -0.0193 -0.9998
vn 0.6798 0.7334 -0.0000
vn 0.8153 0.5791 -0.0000
vn -0.4439 0.8961 -0.0000
vn -0.7121 0.7021 -0.0000
vn 0.4208 0.9072 -0.0000
vn -0.9827 0.1850 -0.0000
vn -0.9291 0.3699 -0.0000
vn -0.8416 0.5401 -0.0000
vn 0.9155 0.4024 -0.0000
vn -0.4389 -0.8985 -0.0000
vn -0.6985 -0.7156 -0.0000
vn -0.6957 -0.7183 -0.0000
vn -0.4353 -0.9003 -0.0000
vn -0.7146 0.6995 -0.0000
vn -0.8430 0.5380 -0.0000
vn -0.1282 -0.9917 -0.0000
vn -0.1274 -0.9918 -0.0000
vn 0.7302 -0.6833 -0.0000
vn 0.4626 -0.8866 -0.0000
vn 0.4586 -0.8886 -0.0000
vn 0.7272 -0.6864 -0.0000
vn 0.1226 0.9925 -0.0000
vn -0.1292 0.9916 -0.0000
vn 0.0416 -0.9991 -0.0000
vn 0.1350 -0.9908 -0.0000
vn 0.1342 -0.9910 -0.0000
vn -0.0410 -0.9992 -0.0000
vn 0.9170 0.3988 -0.0000
vn 0.8168 0.5770 -0.0000
vn -0.4471 0.8945 -0.0000
vn 0.9976 0.0692 -0.0000
vn 0.9999 -0.0154 -0.0000
vn 0.9998 -0.0173 -0.0000
vn -0.8289 -0.5595 -0.0000
vn -0.8272 -0.5618 -0.0000
vn -0.9997 -0.0242 -0.0000
vn -0.9976 0.0692 -0.0000
vn -0.9997 -0.0263 -0.0000
vn 0.6823 0.7311 -0.0000
vn 0.4237 0.9058 -0.0000
vn -0.9805 -0.1963 -0.0000
vn -0.9800 -0.1990 -0.0000
vn 0.0073 -0.0163 0.9998
vn 0.0070 -0.0100 0.9999
vn 0.0074 -0.0184 0.9998
vn -0.0071 -0.0100 0.9999
vn -0.0074 -0.0163 0.9998
vn -0.0075 -0.0185 0.9998
vn -0.0103 -0.0139 0.9998
vn -0.0031 -0.0105 0.9999
vn -0.0098 -0.0136 0.9999
vn -0.0154 -0.0191 0.9997
vn -0.0151 -0.0185 0.9997
vn 0.0029 -0.0104 0.9999
vn 0.0099 -0.0135 0.9999
vn 0.0094 -0.0132 0.9999
vn 0.0147 -0.0183 0.9997
vn 0.0145 -0.0177 0.9997
vn -0.0092 -0.0245 0.9997
vn -0.0124 -0.0239 0.9996
vn -0.0128 -0.0237 0.9996
vn -0.0097 -0.0245 0.9997
vn -0.0151 -0.0223 0.9996
vn -0.0155 -0.0220 0.9996
vn 0.0121 -0.0234 0.9997
vn 0.0091 -0.0243 0.9997
vn 0.0096 -0.0243 0.9997
vn 0.0125 -0.0232 0.9997
vn 0.0146 -0.0216 0.9997
vn 0.0149 -0.0213 0.9997
vn 0.9998 0.0197 -0.0000
vn -0.9304 0.3664 -0.0000
vn -0.9832 0.1826 -0.0000
vn -0.9999 0.0106 -0.0000
vn 0.9846 -0.1746 -0.0000
vn 0.9359 -0.3523 -0.0000
vn 0.9345 -0.3560 -0.0000
vn 0.9842 -0.1771 -0.0000
vn 0.8538 -0.5206 -0.0000
vn 0.8523 -0.5230 -0.0000
vn -0.9234 -0.3838 -0.0000
vn -0.9218 -0.3877 -0.0000
vn 0.9787 0.2052 -0.0000
vn -0.7705 -0.6011 -0.2121
vn -0.7705 -0.6011 0.2121
vn -0.9761 -0.0000 0.2175
vn -0.9761 -0.0000 -0.2175
vn -0.2831 0.9372 -0.2037
vn -0.2831 0.9372 0.2037
vn 0.2831 0.9372 0.2037
vn 0.2831 0.9372 -0.2037
vn 0.7705 0.6011 0.2121
vn 0.7705 0.6011 -0.2121
vn 0.9761 -0.0000 0.2175
vn 0.9761 -0.0000 -0.2175
vn 0.7705 -0.6011 0.2121
vn 0.7705 -0.6011 -0.2121
vn 0.2831 -0.9372 0.2037
vn 0.2831 -0.9372 -0.2037
vn -0.2831 -0.9372 0.2037
vn -0.2831 -0.9372 -0.2037
vn -0.7705 0.6011 -0.2121
vn -0.7705 0.6011 0.2121
vn -0.1589 0.1304 0.9787
vn -0.2010 -0.0000 0.9796
vn -0.1589 -0.1304 0.9787
vn -0.0585 -0.2037 0.9773
vn 0.0585 -0.2037 0.9773
vn 0.1589 -0.1304 0.9787
vn 0.2010 -0.0000 0.9796
vn 0.1589 0.1304 0.9787
vn 0.0585 0.2037 0.9773
vn -0.0585 0.2037 0.9773
vn -0.5561 0.4397 -0.7053
vn -0.7029 -0.0000 -0.7112
vn -0.1589 0.1304 -0.9787
vn -0.2010 -0.0000 -0.9796
vn -0.7029 -0.0000 0.7112
vn -0.5561 0.4397 0.7053
vn -0.2054 0.6883 -0.6957
vn -0.0585 0.2037 -0.9773
vn -0.2054 0.6883 0.6957
vn 0.2054 0.6883 -0.6957
vn 0.0585 0.2037 -0.9773
vn 0.2054 0.6883 0.6957
vn 0.5561 0.4397 -0.7053
vn 0.1589 0.1304 -0.9787
vn 0.5561 0.4397 0.7053
vn 0.7029 -0.0000 -0.7112
vn 0.2010 -0.0000 -0.9796
vn 0.7029 -0.0000 0.7112
vn 0.5561 -0.4397 -0.7053
vn 0.1589 -0.1304 -0.9787
vn 0.5561 -0.4397 0.7053
vn 0.2054 -0.6883 -0.6957
vn 0.0585 -0.2037 -0.9773
vn 0.2054 -0.6883 0.6957
vn -0.2054 -0.6883 -0.6957
vn -0.0585 -0.2037 -0.9773
vn -0.2054 -0.6883 0.6957
vn -0.5561 -0.4397 -0.7053
vn -0.1589 -0.1304 -0.9787
vn -0.5561 -0.4397 0.7053
vn 0.1848 -0.5687 -0.8015
vn -0.1705 -0.5702 -0.8036
vn -0.1690 -0.0000 -0.9856
vn 0.1832 -0.0000 -0.9831
vn 0.1875 0.9320 -0.3101
vn -0.1729 0.9346 -0.3109
vn -0.1729 0.9346 0.3109
vn 0.1875 0.9320 0.3101
vn -0.1705 0.5702 0.8036
vn 0.1848 0.5687 0.8015
vn -0.1690 -0.0000 0.9856
vn 0.1832 -0.0000 0.9831
vn -0.1705 -0.5702 0.8036
vn 0.1848 -0.5687 0.8015
vn -0.1729 -0.9346 0.3109
vn 0.1875 -0.9320 0.3101
vn -0.1729 -0.9346 -0.3109
vn 0.1875 -0.9320 -0.3101
vn 0.1848 0.5687 -0.8015
vn -0.1705 0.5702 -0.8036
vn -0.9694 0.1405 -0.2012
vn -0.9690 -0.0000 -0.2469
vn -0.9694 -0.1405 -0.2012
vn -0.9700 -0.2302 -0.0778
vn -0.9700 -0.2302 0.0778
vn -0.9694 -0.1405 0.2012
vn -0.9690 -0.0000 0.2469
vn -0.9694 0.1405 0.2012
vn -0.9700 0.2302 0.0778
vn -0.9700 0.2302 -0.0778
vn 0.6549 0.4365 -0.6170
vn 0.6528 -0.0000 -0.7575
vn 0.9694 0.1405 -0.2012
vn 0.9690 -0.0000 -0.2469
vn -0.6528 -0.0000 -0.7575
vn -0.6549 0.4365 -0.6170
vn 0.6582 0.7141 -0.2383
vn 0.9700 0.2302 -0.0778
vn -0.6582 0.7141 -0.2383
vn 0.6582 0.7141 0.2383
vn 0.9700 0.2302 0.0778
vn -0.6582 0.7141 0.2383
vn 0.6549 0.4365 0.6170
vn 0.9694 0.1405 0.2012
vn -0.6549 0.4365 0.6170
vn 0.6528 -0.0000 0.7575
vn 0.9690 -0.0000 0.2469
vn -0.6528 -0.0000 0.7575
vn 0.6549 -0.4365 0.6170
vn 0.9694 -0.1405 0.2012
vn -0.6549 -0.4365 0.6170
vn 0.6582 -0.7141 0.2383
vn 0.9700 -0.2302 0.0778
vn -0.6582 -0.7141 0.2383
vn 0.6582 -0.7141 -0.2383
vn 0.9700 -0.2302 -0.0778
vn -0.6582 -0.7141 -0.2383
vn 0.6549 -0.4365 -0.6170
vn 0.9694 -0.1405 -0.2012
vn -0.6549 -0.4365 -0.6170
vt 0.310216 0.872817
vt 0.452059 0.872817
vt 0.250533 0.869716
vt 0.523384 0.872817
vt 0.378878 0.424281
vt 0.250212 0.424281
vt 0.026797 0.424281
vt 0.854704 0.872817
vt 0.815641 0.872817
vt 0.770719 0.872817
s 1
usemtl Tex_MultiGradient
f 1/1/1 2/1/1 4/1/1 3/1/1
f 3/2/2 4/2/2 8/2/2 7/2/2
f 7/1/3 8/1/3 6/1/3 5/1/3
f 5/2/4 6/2/4 2/2/4 1/2/4
f 3/3/5 7/3/5 5/3/5 1/3/5
f 8/4/6 4/4/6 2/4/6 6/4/6
f 9/1/1 10/1/1 12/1/1 11/1/1
f 11/2/2 12/2/2 16/2/2 15/2/2
f 15/1/3 16/1/3 14/1/3 13/1/3
f 13/2/4 14/2/4 10/2/4 9/2/4
f 11/2/5 15/2/5 13/2/5 9/2/5
f 16/4/6 12/4/6 10/4/6 14/4/6
f 21/5/7 22/5/7 24/5/7 46/5/7 48/5/7 47/5/7 34/5/7 36/5/7 35/5/7 31/5/7 33/5/7 32/5/7 43/5/7 45/5/7 44/5/7 23/5/7
f 18/6/8 20/6/9 51/6/9 50/6/8
f 49/6/10 52/6/11 19/6/11 17/6/10
f 28/6/12 26/6/13 54/6/13 56/6/12
f 41/6/14 63/6/14 51/6/9 20/6/9
f 17/7/15 19/7/15 37/7/15 39/7/15 38/7/15 25/7/15 27/7/15 26/7/15 28/7/15 30/7/15 29/7/15 40/7/15 42/7/15 41/7/15 20/7/15 18/7/15
f 29/6/16 58/6/16 64/6/17 40/6/17
f 54/6/13 26/6/13 27/6/18 53/6/18
f 53/6/18 27/6/18 25/6/19 55/6/19
f 28/6/12 56/6/12 57/6/20 30/6/20
f 30/6/20 57/6/20 58/6/16 29/6/16
f 59/6/21 37/6/21 19/6/11 52/6/11
f 37/6/21 59/6/21 60/6/22 39/6/22
f 39/6/22 60/6/22 61/6/23 38/6/23
f 63/6/14 41/6/14 42/6/24 62/6/24
f 62/6/24 42/6/24 40/6/17 64/6/17
f 55/6/19 25/6/19 38/6/23 61/6/23
f 36/6/25 34/6/26 90/6/27 89/6/28
f 55/6/29 61/6/30 77/6/23 71/6/19
f 35/6/31 36/6/25 89/6/28 88/6/32
f 32/6/33 33/6/34 85/6/35 87/6/36
f 56/6/37 54/6/38 70/6/13 72/6/12
s 0
f 49/5/39 21/5/39 84/5/39 68/5/39
s 1
f 33/6/34 31/6/40 86/6/41 85/6/35
s 0
f 22/5/42 50/5/42 65/5/42 81/5/42
s 1
f 62/6/43 64/6/44 80/6/17 78/6/24
f 54/6/38 53/6/45 69/6/18 70/6/13
f 21/6/46 23/6/47 83/6/48 84/6/46
f 34/6/26 47/6/49 96/6/50 90/6/27
f 24/6/51 22/6/52 81/6/52 82/6/53
f 58/6/54 57/6/55 73/6/20 74/6/16
f 46/6/56 24/6/51 82/6/53 95/6/57
f 82/5/58 81/5/59 65/5/59 66/5/60
f 84/5/61 83/5/62 67/5/63 68/5/61
f 85/5/64 86/5/65 70/5/65 69/5/66
f 87/5/67 85/5/64 69/5/66 71/5/68
f 88/5/69 89/5/70 73/5/71 72/5/69
f 89/5/70 90/5/72 74/5/73 73/5/71
f 86/5/65 88/5/69 72/5/69 70/5/65
f 91/5/74 92/5/75 76/5/76 75/5/77
f 92/5/75 93/5/78 77/5/79 76/5/76
f 94/5/80 95/5/81 79/5/82 78/5/83
f 96/5/84 94/5/80 78/5/83 80/5/85
f 93/5/78 87/5/67 71/5/68 77/5/79
f 83/5/62 91/5/74 75/5/77 67/5/63
f 95/5/81 82/5/58 66/5/60 79/5/82
f 90/5/72 96/5/84 80/5/85 74/5/73
f 50/6/8 51/6/86 66/6/9 65/6/8
f 53/6/45 55/6/29 71/6/19 69/6/18
f 60/6/87 59/6/88 75/6/21 76/6/22
f 52/6/89 49/6/10 68/6/10 67/6/11
f 31/6/40 35/6/31 88/6/32 86/6/41
f 59/6/88 52/6/89 67/6/11 75/6/21
f 44/6/90 45/6/91 92/6/92 91/6/93
f 45/6/91 43/6/94 93/6/95 92/6/92
f 61/6/30 60/6/87 76/6/22 77/6/23
f 48/6/96 46/6/56 95/6/57 94/6/97
f 47/6/49 48/6/96 94/6/97 96/6/50
f 57/6/55 56/6/37 72/6/12 73/6/20
f 51/6/86 63/6/98 79/6/14 66/6/9
f 63/6/98 62/6/43 78/6/24 79/6/14
f 43/6/94 32/6/33 87/6/36 93/6/95
f 64/6/44 58/6/54 74/6/16 80/6/17
f 23/6/47 44/6/90 91/6/93 83/6/48
f 152/8/99 155/8/100 112/8/101 115/8/102
f 103/8/103 100/8/104 119/8/105 97/8/106
f 97/8/106 119/8/105 125/8/107 122/8/108
f 122/8/108 125/8/107 131/8/109 128/8/110
f 128/8/110 131/8/109 137/8/111 134/8/112
f 134/8/112 137/8/111 143/8/113 140/8/114
f 140/8/114 143/8/113 149/8/115 146/8/116
f 146/8/116 149/8/115 155/8/100 152/8/99
f 109/8/117 106/8/118 100/8/104 103/8/103
f 107/8/119 113/8/120 154/8/121 148/8/122 142/8/123 136/8/124 130/8/125 124/8/126 118/8/127 101/8/128
f 115/8/102 112/8/101 106/8/118 109/8/117
f 115/8/102 109/8/117 108/8/129 114/8/130
f 114/8/130 108/8/129 110/8/131 116/8/132
f 106/8/118 112/8/101 111/8/133 105/8/134
f 105/8/134 111/8/133 113/8/120 107/8/119
f 109/8/117 103/8/103 102/8/135 108/8/129
f 108/8/129 102/8/135 104/8/136 110/8/131
f 100/8/104 106/8/118 105/8/134 99/8/137
f 99/8/137 105/8/134 107/8/119 101/8/128
f 103/8/103 97/8/106 117/8/138 102/8/135
f 102/8/135 117/8/138 98/8/139 104/8/136
f 119/8/105 100/8/104 99/8/137 120/8/140
f 120/8/140 99/8/137 101/8/128 118/8/127
f 97/8/106 122/8/108 123/8/141 117/8/138
f 117/8/138 123/8/141 121/8/142 98/8/139
f 125/8/107 119/8/105 120/8/140 126/8/143
f 126/8/143 120/8/140 118/8/127 124/8/126
f 122/8/108 128/8/110 129/8/144 123/8/141
f 123/8/141 129/8/144 127/8/145 121/8/142
f 131/8/109 125/8/107 126/8/143 132/8/146
f 132/8/146 126/8/143 124/8/126 130/8/125
f 128/8/110 134/8/112 135/8/147 129/8/144
f 129/8/144 135/8/147 133/8/148 127/8/145
f 137/8/111 131/8/109 132/8/146 138/8/149
f 138/8/149 132/8/146 130/8/125 136/8/124
f 134/8/112 140/8/114 141/8/150 135/8/147
f 135/8/147 141/8/150 139/8/151 133/8/148
f 143/8/113 137/8/111 138/8/149 144/8/152
f 144/8/152 138/8/149 136/8/124 142/8/123
f 140/8/114 146/8/116 147/8/153 141/8/150
f 141/8/150 147/8/153 145/8/154 139/8/151
f 149/8/115 143/8/113 144/8/152 150/8/155
f 150/8/155 144/8/152 142/8/123 148/8/122
f 146/8/116 152/8/99 153/8/156 147/8/153
f 147/8/153 153/8/156 151/8/157 145/8/154
f 155/8/100 149/8/115 150/8/155 156/8/158
f 156/8/158 150/8/155 148/8/122 154/8/121
f 152/8/99 115/8/102 114/8/130 153/8/156
f 153/8/156 114/8/130 116/8/132 151/8/157
f 112/8/101 155/8/100 156/8/158 111/8/133
f 111/8/133 156/8/158 154/8/121 113/8/120
f 116/8/132 110/8/131 104/8/136 98/8/139 121/8/142 127/8/145 133/8/148 139/8/151 145/8/154 151/8/157
f 212/9/159 215/9/160 161/9/161 158/9/162
f 170/9/163 173/9/164 179/9/165 176/9/166
f 176/9/166 179/9/165 185/9/167 182/9/168
f 182/9/168 185/9/167 191/9/169 188/9/170
f 188/9/170 191/9/169 197/9/171 194/9/172
f 194/9/172 197/9/171 203/9/173 200/9/174
f 200/9/174 203/9/173 209/9/175 206/9/176
f 206/9/176 209/9/175 215/9/160 212/9/159
f 164/9/177 167/9/178 173/9/164 170/9/163
f 166/10/179 160/10/180 214/10/181 208/10/182 202/10/183 196/10/184 190/10/185 184/10/186 178/10/187 172/10/188
f 158/9/162 161/9/161 167/9/178 164/9/177
f 158/9/162 164/9/177 165/9/189 159/9/190
f 159/9/190 165/9/189 163/9/191 157/9/192
f 167/9/178 161/9/161 162/9/193 168/9/194
f 168/9/194 162/9/193 160/9/180 166/9/179
f 164/9/177 170/9/163 171/9/195 165/9/189
f 165/9/189 171/9/195 169/9/196 163/9/191
f 173/9/164 167/9/178 168/9/194 174/9/197
f 174/9/197 168/9/194 166/9/179 172/9/188
f 170/9/163 176/9/166 177/9/198 171/9/195
f 171/9/195 177/9/198 175/9/199 169/9/196
f 179/9/165 173/9/164 174/9/197 180/9/200
f 180/9/200 174/9/197 172/9/188 178/9/187
f 176/9/166 182/9/168 183/9/201 177/9/198
f 177/9/198 183/9/201 181/9/202 175/9/199
f 185/9/167 179/9/165 180/9/200 186/9/203
f 186/9/203 180/9/200 178/9/187 184/9/186
f 182/9/168 188/9/170 189/9/204 183/9/201
f 183/9/201 189/9/204 187/9/205 181/9/202
f 191/9/169 185/9/167 186/9/203 192/9/206
f 192/9/206 186/9/203 184/9/186 190/9/185
f 188/9/170 194/9/172 195/9/207 189/9/204
f 189/9/204 195/9/207 193/9/208 187/9/205
f 197/9/171 191/9/169 192/9/206 198/9/209
f 198/9/209 192/9/206 190/9/185 196/9/184
f 194/9/172 200/9/174 201/9/210 195/9/207
f 195/9/207 201/9/210 199/9/211 193/9/208
f 203/9/173 197/9/171 198/9/209 204/9/212
f 204/9/212 198/9/209 196/9/184 202/9/183
f 200/9/174 206/9/176 207/9/213 201/9/210
f 201/9/210 207/9/213 205/9/214 199/9/211
f 209/9/175 203/9/173 204/9/212 210/9/215
f 210/9/215 204/9/212 202/9/183 208/9/182
f 206/9/176 212/9/159 213/9/216 207/9/213
f 207/9/213 213/9/216 211/9/217 205/9/214
f 215/9/160 209/9/175 210/9/215 216/9/218
f 216/9/218 210/9/215 208/9/182 214/9/181
f 212/9/159 158/9/162 159/9/190 213/9/216
f 213/9/216 159/9/190 157/9/192 211/9/217
f 161/9/161 215/9/160 216/9/218 162/9/193
f 162/9/193 216/9/218 214/9/181 160/9/180
f 157/10/192 163/10/191 169/10/196 175/10/199 181/10/202 187/10/205 193/10/208 199/10/211 205/10/214 211/10/217
