# Blender 4.3.0
# www.blender.org
mtllib House03_Black.mtl
o House03_Black
v -0.953466 0.000000 1.098730
v -0.928633 1.672929 1.070114
v -0.953466 0.000000 -1.098730
v -0.928633 1.672929 -1.070114
v 0.953465 0.000000 1.098730
v 0.928632 1.672929 1.070114
v 0.953465 0.000000 -1.098730
v 0.928632 1.672929 -1.070114
v -0.185727 2.509393 1.070114
v -0.185727 2.509393 -1.070114
v 0.185726 2.509393 -1.070114
v 0.185726 2.509393 1.070114
v -0.955979 0.836464 1.103136
v -0.955979 0.836464 -1.103136
v 0.955978 0.836464 -1.103136
v 0.955978 0.836464 1.103136
vn -0.9999 0.0146 -0.0000
vn -0.9995 0.0327 -0.0000
vn -0.0000 0.0169 -0.9999
vn -0.0000 0.0258 -0.9997
vn 0.9999 0.0146 -0.0000
vn 0.9995 0.0327 -0.0000
vn -0.0000 0.0169 0.9999
vn -0.0000 0.0258 0.9997
vn -0.0000 -1.0000 -0.0000
vn -0.0000 -0.0000 1.0000
vn -0.0000 1.0000 -0.0000
vn -0.0000 -0.0000 -1.0000
vn 0.7477 0.6641 -0.0000
vn -0.7477 0.6641 -0.0000
vn -0.0000 -0.0053 1.0000
vn 1.0000 -0.0030 -0.0000
vn -0.0000 -0.0053 -1.0000
vn -1.0000 -0.0030 -0.0000
vt -0.028824 0.945147
vt 0.100331 0.945147
vt 0.020596 0.982352
s 1
usemtl Tex_MultiGradient
f 13/1/1 2/1/2 4/1/2 14/1/1
f 14/2/3 4/2/4 8/2/4 15/2/3
f 15/1/5 8/1/6 6/1/6 16/1/5
f 16/2/7 6/2/8 2/2/8 13/2/7
f 3/1/9 7/1/9 5/1/9 1/1/9
f 2/2/8 6/2/8 12/2/10 9/2/10
f 11/3/11 10/3/11 9/3/11 12/3/11
f 8/2/4 4/2/4 10/2/12 11/2/12
f 6/3/13 8/3/13 11/3/13 12/3/13
f 4/3/14 2/3/14 9/3/14 10/3/14
f 5/2/15 16/2/7 13/2/7 1/2/15
f 7/1/16 15/1/5 16/1/5 5/1/16
f 3/2/17 14/2/3 15/2/3 7/2/17
f 1/1/18 13/1/1 14/1/1 3/1/18
