# Blender 4.3.0
# www.blender.org
mtllib House02_Black_Wood.mtl
o House02_Black_Wood
v -0.928633 0.000000 1.070114
v -0.928633 1.672929 1.070114
v -0.928633 0.000000 -1.070114
v -0.928633 1.672929 -1.070114
v 0.928632 0.000000 1.070114
v 0.928632 1.672929 1.070114
v 0.928632 0.000000 -1.070114
v 0.928632 1.672929 -1.070114
v -0.185727 2.509393 1.070114
v -0.185727 2.509393 -1.070114
v 0.185726 2.509393 -1.070114
v 0.185726 2.509393 1.070114
v -0.955979 0.836464 1.103136
v -0.955979 0.836464 -1.103136
v 0.955978 0.836464 -1.103136
v 0.955978 0.836464 1.103136
v -0.936155 0.230087 -1.079197
v 0.936154 0.230087 -1.079197
v 0.936154 0.230087 1.079197
v -0.936155 0.230087 1.079197
v -1.010712 -0.010168 -1.164698
v -1.010712 -0.010168 1.157213
v -1.018899 0.240255 -1.174584
v 1.010711 -0.010168 -1.164698
v 1.018898 0.240255 -1.174584
v 1.010711 -0.010168 1.157213
v 1.018898 0.240255 1.167099
v -1.018899 0.240255 1.167099
v 0.694123 0.159828 1.130983
v 0.694123 1.963008 1.130983
v 0.694123 0.159828 0.832192
v 0.694123 1.963008 0.832192
v 0.992914 0.159828 1.130983
v 0.992914 1.624922 1.130983
v 0.992914 0.159828 0.832192
v 0.992914 1.624922 0.832192
v 0.694123 0.159828 -0.849764
v 0.694123 1.963170 -0.849764
v 0.694123 0.159828 -1.148554
v 0.694123 1.963170 -1.148554
v 0.992914 0.159828 -0.849764
v 0.992914 1.625887 -0.849764
v 0.992914 0.159828 -1.148554
v 0.992914 1.625887 -1.148554
v -0.687979 0.159828 0.832192
v -0.687979 1.991371 0.832192
v -0.687979 0.159828 1.130983
v -0.687979 1.991371 1.130983
v -0.986770 0.159828 0.832192
v -0.986770 1.641807 0.832192
v -0.986770 0.159828 1.130983
v -0.986770 1.641807 1.130983
v -0.687979 0.159828 -1.148555
v -0.687979 1.990654 -1.148555
v -0.687979 0.159828 -0.849764
v -0.687979 1.990654 -0.849764
v -0.986770 0.159828 -1.148555
v -0.986770 1.641799 -1.148555
v -0.986770 0.159828 -0.849764
v -0.986770 1.641799 -0.849764
vn -1.0000 -0.0000 -0.0000
vn -0.9995 0.0327 -0.0000
vn -0.0000 -0.0000 -1.0000
vn -0.0000 0.0258 -0.9997
vn 1.0000 -0.0000 -0.0000
vn 0.9995 0.0327 -0.0000
vn -0.0000 -0.0000 1.0000
vn -0.0000 0.0258 0.9997
vn 0.0476 -0.9981 0.0390
vn -0.0476 -0.9981 0.0390
vn -0.0468 -0.9980 -0.0431
vn 0.0468 -0.9980 -0.0431
vn -0.0000 1.0000 -0.0000
vn 0.7477 0.6641 -0.0000
vn -0.7477 0.6641 -0.0000
vn -0.0000 -0.0394 0.9992
vn 0.9995 -0.0327 -0.0000
vn -0.0000 -0.0394 -0.9992
vn -0.9995 -0.0327 -0.0000
vn -0.0630 0.9967 0.0516
vn -0.0620 0.9965 -0.0569
vn -0.0589 0.9965 -0.0599
vn -0.0557 0.9968 0.0579
vn 0.0562 -0.9967 0.0584
vn -0.0562 -0.9967 0.0584
vn -0.0594 -0.9964 -0.0604
vn 0.0594 -0.9964 -0.0604
vn 0.0630 0.9967 0.0516
vn 0.0557 0.9968 0.0579
vn 0.0620 0.9965 -0.0569
vn 0.0589 0.9965 -0.0599
vn -0.0000 -1.0000 -0.0000
vn 0.7493 0.6622 -0.0000
vn 0.7485 0.6631 -0.0000
vn -0.7602 0.6497 -0.0000
vn -0.7595 0.6505 -0.0000
vt -0.028824 0.945147
vt 0.100331 0.945147
vt 0.027280 0.982270
vt 0.020596 0.982352
vt 0.347642 0.651722
vt 0.455176 0.670324
vt 0.222132 0.651722
vt 0.315641 0.651722
vt 0.386967 0.651722
vt 0.031421 0.651722
s 1
usemtl Tex_MultiGradient
f 13/1/1 2/1/2 4/1/2 14/1/1
f 14/2/3 4/2/4 8/2/4 15/2/3
f 15/1/5 8/1/6 6/1/6 16/1/5
f 16/2/7 6/2/8 2/2/8 13/2/7
f 3/3/9 7/3/10 5/3/11 1/3/12
f 2/2/8 6/2/8 12/2/7 9/2/7
f 11/4/13 10/4/13 9/4/13 12/4/13
f 8/2/4 4/2/4 10/2/3 11/2/3
f 6/4/14 8/4/14 11/4/14 12/4/14
f 4/4/15 2/4/15 9/4/15 10/4/15
f 19/2/16 16/2/7 13/2/7 20/2/16
f 18/1/17 15/1/5 16/1/5 19/1/17
f 17/2/18 14/2/3 15/2/3 18/2/18
f 20/1/19 13/1/1 14/1/1 17/1/19
f 18/5/20 19/5/21 27/5/22 25/5/23
f 7/3/10 3/3/9 21/3/24 24/3/25
f 1/3/12 5/3/11 26/3/26 22/3/27
f 17/6/28 18/6/20 25/6/23 23/6/29
f 22/7/19 28/7/19 23/7/19 21/7/19
f 21/8/18 23/8/18 25/8/18 24/8/18
f 24/7/17 25/7/17 27/7/17 26/7/17
f 26/8/16 27/8/16 28/8/16 22/8/16
f 20/5/30 17/5/28 23/5/29 28/5/31
f 3/3/9 1/3/12 22/3/27 21/3/24
f 5/3/11 7/3/10 24/3/25 26/3/26
f 19/6/21 20/6/30 28/6/31 27/6/22
f 29/8/1 30/8/1 32/8/1 31/8/1
f 31/8/3 32/8/3 36/8/3 35/8/3
f 35/8/5 36/8/5 34/8/5 33/8/5
f 33/9/7 34/9/7 30/9/7 29/9/7
f 31/8/32 35/8/32 33/8/32 29/8/32
f 36/10/33 32/10/33 30/10/33 34/10/33
f 37/8/1 38/8/1 40/8/1 39/8/1
f 39/8/3 40/8/3 44/8/3 43/8/3
f 43/8/5 44/8/5 42/8/5 41/8/5
f 41/8/7 42/8/7 38/8/7 37/8/7
f 39/8/32 43/8/32 41/8/32 37/8/32
f 44/10/34 40/10/34 38/10/34 42/10/34
f 45/8/5 46/8/5 48/8/5 47/8/5
f 47/9/7 48/9/7 52/9/7 51/9/7
f 51/8/1 52/8/1 50/8/1 49/8/1
f 49/8/3 50/8/3 46/8/3 45/8/3
f 47/8/32 51/8/32 49/8/32 45/8/32
f 52/10/35 48/10/35 46/10/35 50/10/35
f 53/8/5 54/8/5 56/8/5 55/8/5
f 55/8/7 56/8/7 60/8/7 59/8/7
f 59/8/1 60/8/1 58/8/1 57/8/1
f 57/8/3 58/8/3 54/8/3 53/8/3
f 55/8/32 59/8/32 57/8/32 53/8/32
f 60/10/36 56/10/36 54/10/36 58/10/36
