# Blender 4.3.0
# www.blender.org
mtllib House01_Orange_Wood.mtl
o House01_Orange_Wood
v -0.928633 -0.005084 1.070114
v -0.928633 1.672929 1.070114
v -0.928633 -0.005084 -1.070114
v -0.930634 1.669996 -1.074244
v 0.928632 -0.005084 1.070114
v 0.928632 1.672929 1.070114
v 0.928632 -0.005084 -1.070114
v 0.926631 1.669996 -1.074244
v -0.185727 2.509393 1.070114
v -0.185727 2.509393 -1.070114
v 0.185726 2.509393 -1.070114
v 0.185726 2.509393 1.070114
v -0.955979 0.836464 1.103136
v -0.957980 0.833531 -1.107266
v 0.953977 0.833531 -1.107266
v 0.955978 0.836464 1.103136
v -0.936155 0.230087 -1.079197
v 0.936154 0.230087 -1.079197
v 0.936154 0.230087 1.079197
v -0.936155 0.230087 1.079197
v -1.010712 -0.005084 -1.164698
v -1.010712 -0.005084 1.157213
v -1.018899 0.240255 -1.174584
v 1.010711 -0.005084 -1.164698
v 1.018898 0.240255 -1.174584
v 1.010711 -0.005084 1.157213
v 1.018898 0.240255 1.167099
v -1.018899 0.240255 1.167099
vn -1.0000 -0.0008 0.0007
vn -0.9995 0.0327 0.0009
vn -0.0000 -0.0035 -1.0000
vn -0.0000 0.0275 -0.9996
vn -0.0000 -0.0036 -1.0000
vn 1.0000 0.0008 -0.0007
vn 0.9995 0.0327 -0.0010
vn -0.0000 -0.0000 1.0000
vn -0.0000 0.0258 0.9997
vn -0.0000 -1.0000 -0.0000
vn -0.0000 1.0000 -0.0000
vn -0.0000 0.0049 -1.0000
vn 0.7487 0.6629 -0.0008
vn -0.7478 0.6639 -0.0001
vn -0.0000 -0.0394 0.9992
vn 0.9995 -0.0311 -0.0004
vn -0.0000 -0.0465 -0.9989
vn -0.9994 -0.0344 0.0005
vn -0.0630 0.9967 0.0516
vn -0.0620 0.9965 -0.0569
vn -0.0589 0.9965 -0.0599
vn -0.0557 0.9968 0.0579
vn 0.0630 0.9967 0.0516
vn 0.0557 0.9968 0.0579
vn -0.9994 -0.0334 -0.0000
vn -0.0000 -0.0403 -0.9992
vn 0.9994 -0.0334 -0.0000
vn -0.0000 -0.0403 0.9992
vn 0.0620 0.9965 -0.0569
vn 0.0589 0.9965 -0.0599
vt 0.250212 0.656811
vt 0.379366 0.656811
vt 0.995143 0.470292
vt 0.026797 0.656811
vt 0.347642 0.651722
vt 0.455176 0.670324
vt 0.222132 0.651722
vt 0.315641 0.651722
s 1
usemtl Tex_MultiGradient
f 13/1/1 2/1/2 4/1/2 14/1/1
f 14/2/3 4/2/4 8/2/4 15/2/5
f 15/1/6 8/1/7 6/1/7 16/1/6
f 16/2/8 6/2/9 2/2/9 13/2/8
f 3/3/10 7/3/10 5/3/10 1/3/10
f 2/2/9 6/2/9 12/2/8 9/2/8
f 11/4/11 10/4/11 9/4/11 12/4/11
f 8/2/4 4/2/4 10/2/12 11/2/12
f 6/4/13 8/4/13 11/4/13 12/4/13
f 4/4/14 2/4/14 9/4/14 10/4/14
f 19/2/15 16/2/8 13/2/8 20/2/15
f 18/1/16 15/1/6 16/1/6 19/1/16
f 17/2/17 14/2/3 15/2/5 18/2/17
f 20/1/18 13/1/1 14/1/1 17/1/18
f 18/5/19 19/5/20 27/5/21 25/5/22
f 7/3/10 3/3/10 21/3/10 24/3/10
f 1/3/10 5/3/10 26/3/10 22/3/10
f 17/6/23 18/6/19 25/6/22 23/6/24
f 22/7/25 28/7/25 23/7/25 21/7/25
f 21/8/26 23/8/26 25/8/26 24/8/26
f 24/7/27 25/7/27 27/7/27 26/7/27
f 26/8/28 27/8/28 28/8/28 22/8/28
f 20/5/29 17/5/23 23/5/24 28/5/30
f 3/3/10 1/3/10 22/3/10 21/3/10
f 5/3/10 7/3/10 24/3/10 26/3/10
f 19/6/20 20/6/29 28/6/30 27/6/21
