# Blender 4.3.0
# www.blender.org
mtllib PlanterBox_Blue02.mtl
o PlanterBox_Blue02
v -0.363671 -0.360843 0.374048
v -0.486338 -0.634629 0.002505
v -0.363671 -0.360843 0.194965
v 0.363670 -0.360843 0.374048
v 0.486337 -0.634629 0.002505
v 0.363670 -0.360843 0.194965
v -0.486338 -0.360843 0.002505
v 0.486337 -0.360843 0.002505
v -0.363671 -0.422262 0.374048
v -0.363671 -0.422262 0.194965
v 0.363670 -0.422262 0.194965
v 0.363670 -0.422262 0.374048
v -0.342578 -0.634629 0.450772
v -0.486338 -0.634629 0.307012
v -0.414458 -0.634629 0.431512
v -0.467078 -0.634629 0.378892
v 0.486337 -0.634629 0.307012
v 0.342577 -0.634629 0.450772
v 0.467077 -0.634629 0.378892
v 0.414457 -0.634629 0.431512
v -0.486338 -0.360843 0.307012
v -0.342578 -0.360843 0.450772
v -0.363716 -0.360843 0.390215
v -0.467078 -0.360843 0.378892
v -0.414458 -0.360843 0.431512
v 0.342577 -0.360843 0.450772
v 0.486337 -0.360843 0.307012
v 0.363715 -0.360843 0.390215
v 0.414457 -0.360843 0.431512
v 0.467077 -0.360843 0.378892
vn 0.1305 -0.0000 0.9914
vn -0.1305 -0.0000 0.9914
vn -0.0000 -0.0000 -1.0000
vn -0.0000 1.0000 -0.0000
vn 1.0000 -0.0000 -0.0000
vn 0.9914 -0.0000 0.1305
vn -0.9914 -0.0000 0.1305
vn -1.0000 -0.0000 -0.0000
vn -0.0000 -0.0000 1.0000
vn -0.5000 -0.0000 0.8660
vn -0.8660 -0.0000 0.5000
vn 0.5000 -0.0000 0.8660
vn 0.8660 -0.0000 0.5000
vn -0.0000 -1.0000 -0.0000
vt 0.250212 0.046033
vt 0.026797 0.046033
vt 0.378878 0.046033
vt 0.672780 0.946127
vt 0.048686 0.042933
s 1
usemtl Tex_MultiGradient
f 18/1/1 26/1/1 22/1/2 13/1/2
f 2/2/3 7/2/3 8/2/3 5/2/3
f 1/3/4 3/3/4 7/3/4 21/3/4 23/3/4
f 5/1/5 8/1/5 27/1/6 17/1/6
f 14/1/7 21/1/7 7/1/8 2/1/8
f 1/1/3 4/1/3 12/1/3 9/1/3
f 4/3/4 1/3/4 23/3/4 22/3/4 26/3/4 28/3/4
f 3/3/4 6/3/4 8/3/4 7/3/4
f 6/3/4 4/3/4 28/3/4 27/3/4 8/3/4
f 11/4/4 10/4/4 9/4/4 12/4/4
f 6/1/9 3/1/9 10/1/9 11/1/9
f 4/1/8 6/1/8 11/1/8 12/1/8
f 3/1/5 1/1/5 9/1/5 10/1/5
f 21/3/4 24/3/4 23/3/4
f 24/3/4 25/3/4 23/3/4
f 25/3/4 22/3/4 23/3/4
f 26/3/4 29/3/4 28/3/4
f 29/3/4 30/3/4 28/3/4
f 30/3/4 27/3/4 28/3/4
f 13/1/2 22/1/2 25/1/10 15/1/10
f 15/1/10 25/1/10 24/1/11 16/1/11
f 16/1/11 24/1/11 21/1/7 14/1/7
f 26/1/1 18/1/1 20/1/12 29/1/12
f 29/1/12 20/1/12 19/1/13 30/1/13
f 30/1/13 19/1/13 17/1/6 27/1/6
f 2/5/14 5/5/14 17/5/14 19/5/14 20/5/14 18/5/14 13/5/14 15/5/14 16/5/14 14/5/14
