# Blender 4.3.0
# www.blender.org
mtllib PlanterBox_Pink01.mtl
o PlanterBox_Pink01
v -0.486338 -0.634629 0.451884
v -0.363671 -0.360843 0.391304
v -0.486338 -0.634629 0.002505
v -0.363671 -0.360843 0.178413
v 0.486337 -0.634629 0.451884
v 0.363670 -0.360843 0.391304
v 0.486337 -0.634629 0.002505
v 0.363670 -0.360843 0.178413
v -0.486338 -0.360843 0.451884
v -0.486338 -0.360843 0.002505
v 0.486337 -0.360843 0.002505
v 0.486337 -0.360843 0.451884
v -0.363671 -0.413810 0.391304
v -0.363671 -0.413810 0.178413
v 0.363670 -0.413810 0.178413
v 0.363670 -0.413810 0.391304
vn -1.0000 -0.0000 -0.0000
vn -0.0000 -0.0000 -1.0000
vn 1.0000 -0.0000 -0.0000
vn -0.0000 -0.0000 1.0000
vn -0.0000 1.0000 -0.0000
vn -0.0000 -1.0000 -0.0000
vt 0.250212 0.120443
vt 0.026797 0.120443
vt 0.378878 0.120443
vt 0.672780 0.946127
vt 0.048686 0.117342
s 0
usemtl Tex_MultiGradient
f 1/1/1 9/1/1 10/1/1 3/1/1
f 3/2/2 10/2/2 11/2/2 7/2/2
f 7/1/3 11/1/3 12/1/3 5/1/3
f 5/1/4 12/1/4 9/1/4 1/1/4
f 2/1/2 6/1/2 16/1/2 13/1/2
f 2/3/5 4/3/5 10/3/5 9/3/5
f 4/3/5 8/3/5 11/3/5 10/3/5
f 8/3/5 6/3/5 12/3/5 11/3/5
f 6/3/5 2/3/5 9/3/5 12/3/5
f 15/4/5 14/4/5 13/4/5 16/4/5
f 8/1/4 4/1/4 14/1/4 15/1/4
f 6/1/1 8/1/1 15/1/1 16/1/1
f 4/1/3 2/1/3 13/1/3 14/1/3
f 3/5/6 7/5/6 5/5/6 1/5/6
