# Blender 4.3.0
# www.blender.org
mtllib Roof02_Pink.mtl
o Roof02_Pink
v -0.171170 2.503864 1.197423
v 0.155308 2.503864 -1.189129
v -0.193658 2.872942 -1.224754
v 0.177796 2.872942 -1.224754
v 0.998906 1.441771 1.172050
v 0.998906 1.441771 0.850109
v -0.046392 2.608459 0.850109
v 1.139596 1.593338 1.149665
v 0.160402 2.760027 1.172051
v 1.139596 1.593338 0.827724
v -0.046392 2.608459 -0.851835
v 1.021828 1.421773 -1.173777
v -0.046392 2.608459 -1.173777
v 1.205702 1.593338 -0.851835
v 1.205702 1.593338 -1.173777
v -0.999265 1.441771 -1.173777
v -1.177466 1.626713 -1.173777
v -0.160761 2.760027 -1.173777
v -1.177466 1.626713 -0.851835
v -0.160761 2.760027 -0.851835
v 0.046034 2.608459 1.172050
v -0.160761 2.760027 0.850109
v -0.160761 2.760027 1.172050
v 0.679031 2.151828 1.165924
v -0.283335 2.239381 0.834241
v -0.826552 1.638443 0.853396
v -0.182176 2.517874 -0.360214
v -0.171170 2.503864 -1.189129
v 0.166314 2.517874 -0.360214
v 0.155308 2.503864 1.197423
v -0.206180 2.911836 -0.358611
v 0.190317 2.911836 -0.358611
v 0.177796 2.872942 1.236050
v -0.193658 2.872942 1.236050
v 0.480106 2.006029 1.165924
v -0.046392 2.608459 1.172051
v 0.480106 2.006030 0.856236
v 0.679031 2.151828 0.856236
v 1.021828 1.421772 -0.851835
v 0.160402 2.760027 -1.173777
v 0.160402 2.760027 -0.851835
v -0.999265 1.441771 -0.851835
v 0.046035 2.608459 -1.173777
v 0.046035 2.608459 -0.851835
v -1.012019 1.423426 1.172050
v -1.012019 1.423426 0.850109
v 0.046035 2.608459 0.850109
v -0.826552 1.638443 1.168764
v -1.206060 1.593338 1.172050
v -1.029126 1.786915 1.168764
v -1.206060 1.593338 0.850109
v -1.029126 1.786915 0.853396
v 0.160402 2.760027 0.850109
v -0.283335 2.239381 1.187918
v -0.499540 2.400752 1.187918
v -0.499540 2.400752 0.834241
v -0.159479 2.761585 0.502326
v -0.159479 2.761585 0.824267
v -0.446501 2.100759 0.825119
v 0.047316 2.610017 0.824267
v -0.756945 1.744057 0.498646
v -0.939109 1.874958 0.498646
v -0.756945 1.744057 0.827951
v -1.018471 1.435707 0.502326
v -1.018471 1.435707 0.824267
v -0.939109 1.874958 0.827951
v -0.631144 2.236562 0.501397
v -0.631144 2.236562 0.825119
v -0.446501 2.100759 0.501397
v -1.204779 1.594896 0.824267
v -1.204779 1.594896 0.502326
v 0.047316 2.610017 0.502326
v -0.159479 2.761585 -0.842096
v -0.159479 2.761585 -0.520154
v -0.423205 2.084156 -0.519303
v 0.047316 2.610017 -0.520154
v -0.743659 1.738181 -0.845776
v -0.939109 1.874958 -0.845776
v -0.743659 1.738181 -0.516471
v -1.010737 1.424984 -0.842096
v -1.010737 1.424984 -0.520154
v -0.939109 1.874958 -0.516471
v -0.631144 2.236562 -0.843025
v -0.631144 2.236562 -0.519303
v -0.423205 2.084156 -0.843025
v -1.204779 1.594896 -0.520154
v -1.204779 1.594896 -0.842096
v 0.047316 2.610017 -0.842096
v -0.999265 1.441771 -0.509022
v -1.161445 1.645404 -0.509022
v -0.160761 2.760027 -0.509022
v -1.161445 1.645404 -0.187081
v -0.160761 2.760027 -0.187080
v -0.999265 1.441771 -0.187080
v 0.046035 2.608459 -0.509022
v 0.046035 2.608459 -0.187080
v 0.046034 2.608459 0.148169
v -0.160761 2.760027 -0.173773
v -0.160761 2.760027 0.148169
v -0.283813 2.242931 -0.189641
v -0.826552 1.638443 -0.170486
v -1.012019 1.423426 0.148169
v -1.012019 1.423426 -0.173773
v 0.046035 2.608459 -0.173773
v -0.826552 1.638443 0.144882
v -1.206060 1.593338 0.148169
v -1.029126 1.786915 0.144882
v -1.206060 1.593338 -0.173773
v -1.029126 1.786915 -0.170486
v -0.283813 2.242931 0.164036
v -0.499540 2.400752 0.164036
v -0.499540 2.400752 -0.189641
v -0.999265 1.441771 0.169672
v -1.177466 1.626713 0.161662
v -0.160761 2.760027 0.169672
v -1.177466 1.626713 0.483603
v -0.160761 2.760027 0.491614
v -0.999265 1.441771 0.491614
v 0.046035 2.608459 0.169672
v 0.046035 2.608459 0.491614
v -0.977050 1.445840 0.918575
v -0.016814 2.525435 0.918576
v -0.977050 1.445840 -0.911628
v -0.016814 2.525435 -0.911628
v 0.144933 2.761585 -0.520908
v 0.144933 2.761585 -0.842849
v 0.431955 2.100759 -0.843701
v -0.061863 2.610017 -0.842849
v 0.742399 1.744057 -0.517228
v 0.924562 1.874958 -0.517228
v 0.742399 1.744057 -0.846533
v 1.003924 1.435707 -0.520908
v 1.003924 1.435707 -0.842849
v 0.924562 1.874958 -0.846533
v 0.616597 2.236562 -0.519979
v 0.616597 2.236562 -0.843701
v 0.431954 2.100759 -0.519979
v 1.190231 1.594896 -0.842849
v 1.190231 1.594896 -0.520908
v -0.061863 2.610017 -0.520908
v 0.144932 2.761585 0.823514
v 0.144932 2.761585 0.501572
v 0.408658 2.084156 0.500721
v -0.061863 2.610017 0.501572
v 0.729112 1.738181 0.827194
v 0.924562 1.874958 0.827194
v 0.729113 1.738181 0.497889
v 0.996190 1.424984 0.823514
v 0.996191 1.424984 0.501573
v 0.924562 1.874958 0.497889
v 0.616597 2.236562 0.824443
v 0.616597 2.236562 0.500721
v 0.408658 2.084156 0.824443
v 1.190231 1.594896 0.501573
v 1.190231 1.594896 0.823514
v -0.061863 2.610017 0.823514
v 0.984717 1.441771 0.490440
v 1.146898 1.645404 0.490440
v 0.146214 2.760027 0.490440
v 1.146898 1.645404 0.168499
v 0.146214 2.760027 0.168498
v 0.984717 1.441771 0.168498
v -0.060582 2.608459 0.490440
v -0.060581 2.608459 0.168498
v -0.060581 2.608459 -0.166751
v 0.146214 2.760027 0.155191
v 0.146214 2.760027 -0.166751
v 0.269266 2.242931 0.171059
v 0.812006 1.638443 0.151904
v 0.997472 1.423426 -0.166751
v 0.997472 1.423426 0.155191
v -0.060581 2.608459 0.155191
v 0.812006 1.638443 -0.163464
v 1.191513 1.593338 -0.166751
v 1.014579 1.786915 -0.163464
v 1.191513 1.593338 0.155191
v 1.014579 1.786915 0.151904
v 0.269266 2.242931 -0.182619
v 0.484994 2.400752 -0.182618
v 0.484994 2.400752 0.171059
v 0.984717 1.441771 -0.188254
v 1.162919 1.626713 -0.180244
v 0.146214 2.760027 -0.188254
v 1.162919 1.626713 -0.502185
v 0.146214 2.760027 -0.510196
v 0.984717 1.441771 -0.510196
v -0.060582 2.608459 -0.188254
v -0.060581 2.608459 -0.510196
v 0.962503 1.445840 -0.937157
v 0.002267 2.525435 -0.937158
v 0.962503 1.445840 0.893047
v 0.002267 2.525435 0.893046
vn -0.0000 -1.0000 0.0039
vn -0.0000 -1.0000 -0.0090
vn -0.0000 0.9999 -0.0102
vn -0.0000 0.9997 0.0244
vn 0.9981 -0.0612 -0.0028
vn 0.9980 -0.0613 -0.0119
vn 0.9981 -0.0612 -0.0027
vn -0.9981 -0.0613 -0.0028
vn -0.9981 -0.0612 0.0064
vn -0.9981 -0.0612 -0.0027
vn -0.7446 -0.6675 -0.0000
vn -0.7530 -0.6581 -0.0000
vn -0.0222 -0.0104 -0.9997
vn 0.0045 -0.0062 -1.0000
vn -0.0252 -0.0108 -0.9996
vn 0.7663 0.6425 -0.0000
vn 0.7609 0.6489 -0.0000
vn 0.7662 0.6426 -0.0000
vn 0.0240 0.0113 0.9996
vn 0.0045 -0.0062 1.0000
vn 0.0220 0.0096 0.9997
vn 0.7329 -0.6803 -0.0000
vn -0.5912 0.8066 -0.0000
vn -0.7432 -0.6690 -0.0000
vn -0.0000 -0.0000 -1.0000
vn 0.7448 0.6673 -0.0000
vn -0.0000 -0.0000 1.0000
vn 0.7448 -0.6673 -0.0000
vn -0.7444 0.6678 -0.0000
vn 0.5912 0.8066 -0.0000
vn 0.7440 -0.6682 -0.0000
vn 0.7461 -0.6658 -0.0000
vn 0.0035 0.0047 1.0000
vn 0.0192 0.0259 0.9995
vn 0.0015 0.0021 1.0000
vn -0.7426 0.6698 -0.0000
vn -0.7276 0.6860 -0.0000
vn 0.0015 0.0021 -1.0000
vn 0.0192 0.0259 -0.9995
vn 0.0035 0.0047 -1.0000
vn 0.0418 0.0274 0.9987
vn 0.7715 0.6362 -0.0000
vn -0.0526 -0.0151 -0.9985
vn -0.7361 -0.6768 -0.0000
vn -0.0026 -0.0040 -1.0000
vn -0.0039 -0.0057 -1.0000
vn -0.7478 0.6640 -0.0000
vn -0.0039 -0.0057 1.0000
vn -0.0026 -0.0040 1.0000
vn 0.7496 -0.6619 -0.0000
vn 0.7572 -0.6532 -0.0000
vn 0.0075 0.0094 0.9999
vn -0.7381 0.6747 -0.0000
vn 0.0075 0.0094 -0.9999
vn -0.9980 -0.0613 -0.0119
vn 0.9981 -0.0612 0.0064
vn -0.0000 0.9990 -0.0449
vn -0.0000 -0.9999 0.0169
vn -0.0000 -0.1041 0.9946
vn -0.0000 -0.0961 -0.9954
vn 0.6822 -0.7312 -0.0000
vn -0.7201 -0.6939 -0.0000
vn -0.6588 -0.7523 -0.0000
vn -0.6496 -0.7603 -0.0000
vn -0.0058 -0.0073 -1.0000
vn -0.0015 -0.0017 -1.0000
vn -0.0009 -0.0010 -1.0000
vn -0.7255 0.6882 -0.0000
vn -0.7437 0.6685 -0.0000
vn -0.0058 -0.0073 1.0000
vn -0.0009 -0.0009 1.0000
vn -0.0014 -0.0017 1.0000
vn 0.7626 -0.6468 -0.0000
vn 0.7585 -0.6517 -0.0000
vn 0.7364 -0.6765 -0.0000
vn 0.0020 0.0028 1.0000
vn 0.0022 0.0030 1.0000
vn -0.7527 0.6584 -0.0000
vn 0.0022 0.0030 -1.0000
vn 0.0020 0.0028 -1.0000
vn 0.0008 0.0011 -1.0000
vn -0.7439 0.6683 -0.0000
vn 0.0007 0.0010 1.0000
vn 0.7179 -0.6961 -0.0000
vn -0.0057 -0.0073 -1.0000
vn -0.0008 -0.0008 -1.0000
vn -0.0057 -0.0073 1.0000
vn -0.0008 -0.0007 1.0000
vn -0.0015 -0.0017 1.0000
vn 0.7609 -0.6489 -0.0000
vn 0.7474 -0.6644 -0.0000
vn 0.7395 -0.6732 -0.0000
vn 0.7452 -0.6668 -0.0000
vn -0.7441 0.6681 -0.0000
vn -0.7822 -0.6230 -0.0000
vn 0.7433 -0.6690 -0.0000
vn 0.7424 -0.6699 -0.0000
vn 0.0036 0.0050 1.0000
vn 0.0191 0.0261 0.9995
vn 0.0015 0.0020 1.0000
vn 0.0015 0.0020 -1.0000
vn 0.0191 0.0261 -0.9995
vn 0.0036 0.0050 -1.0000
vn -0.0038 -0.0057 -1.0000
vn -0.0038 -0.0057 1.0000
vn 0.7507 -0.6607 -0.0000
vn -0.0134 0.0085 0.9999
vn 0.0134 -0.0085 -0.9999
vn -0.7472 0.6646 -0.0000
vn 0.6496 -0.7603 -0.0000
vn 0.0058 -0.0073 1.0000
vn 0.0015 -0.0017 1.0000
vn 0.0009 -0.0010 1.0000
vn 0.7255 0.6882 -0.0000
vn 0.7437 0.6685 -0.0000
vn 0.0058 -0.0073 -1.0000
vn 0.0009 -0.0009 -1.0000
vn 0.0014 -0.0017 -1.0000
vn -0.7626 -0.6468 -0.0000
vn -0.7585 -0.6517 -0.0000
vn -0.7364 -0.6765 -0.0000
vn -0.0020 0.0028 -1.0000
vn -0.0022 0.0030 -1.0000
vn 0.7527 0.6584 -0.0000
vn -0.0022 0.0030 1.0000
vn -0.0020 0.0028 1.0000
vn -0.0008 0.0011 1.0000
vn 0.7439 0.6683 -0.0000
vn -0.0007 0.0010 -1.0000
vn -0.7179 -0.6961 -0.0000
vn 0.6588 -0.7523 -0.0000
vn 0.0057 -0.0073 1.0000
vn 0.0008 -0.0008 1.0000
vn 0.0057 -0.0073 -1.0000
vn 0.0008 -0.0007 -1.0000
vn 0.0015 -0.0017 -1.0000
vn -0.7609 -0.6489 -0.0000
vn -0.7474 -0.6644 -0.0000
vn -0.7395 -0.6732 -0.0000
vn -0.7452 -0.6668 -0.0000
vn -0.7448 -0.6673 -0.0000
vn 0.7441 0.6681 -0.0000
vn 0.7822 -0.6230 -0.0000
vn -0.7433 -0.6690 -0.0000
vn -0.7424 -0.6699 -0.0000
vn -0.0036 0.0050 -1.0000
vn -0.0191 0.0261 -0.9995
vn -0.0015 0.0020 -1.0000
vn 0.7426 0.6698 -0.0000
vn 0.7276 0.6861 -0.0000
vn -0.0015 0.0020 1.0000
vn -0.0191 0.0261 0.9995
vn -0.0036 0.0050 1.0000
vn 0.0026 -0.0040 1.0000
vn 0.0038 -0.0057 1.0000
vn 0.7478 0.6640 -0.0000
vn 0.0038 -0.0057 -1.0000
vn 0.0026 -0.0040 -1.0000
vn -0.7507 -0.6607 -0.0000
vn -0.7572 -0.6532 -0.0000
vn -0.0075 0.0094 -0.9999
vn 0.7381 0.6747 -0.0000
vn -0.0075 0.0094 0.9999
vn 0.0134 0.0085 -0.9999
vn 0.7444 0.6678 -0.0000
vn -0.0134 -0.0085 0.9999
vn 0.7201 -0.6939 -0.0000
vn 0.7472 0.6646 -0.0000
vt 0.186231 0.120443
vt 0.315386 0.120443
vt 0.250212 0.120443
vt 0.379366 0.120443
vt 0.304349 0.120443
vt 0.314807 0.120443
vt 0.360332 0.120443
vt 0.199430 0.120443
vt 0.328585 0.120443
vt 0.264026 0.120443
vt 0.296966 0.120443
vt 0.426121 0.120443
vt 0.361562 0.120443
vt 0.026983 0.120443
s 1
usemtl Tex_MultiGradient
f 29/1/1 30/1/2 1/1/2 27/1/1
f 32/2/3 31/2/3 34/2/4 33/2/4
f 29/1/5 2/1/6 4/1/6 32/1/7
f 27/1/8 1/1/9 34/1/9 31/1/10
f 35/3/11 36/3/12 7/3/12 37/3/11
f 37/3/13 7/3/14 53/3/14 38/3/15
f 38/4/16 53/4/17 9/4/17 24/4/18
f 24/5/19 9/5/20 36/5/20 35/5/21
f 6/6/22 10/6/22 8/6/22 5/6/22
f 53/3/23 7/3/23 36/3/23 9/3/23
f 39/3/24 11/3/24 13/3/24 12/3/24
f 12/3/25 13/3/25 40/3/25 15/3/25
f 15/4/26 40/4/26 41/4/26 14/4/26
f 14/3/27 41/3/27 11/3/27 39/3/27
f 40/3/23 13/3/23 11/3/23 41/3/23
f 16/3/28 43/3/28 44/3/28 42/3/28
f 42/3/27 44/3/27 20/3/27 19/3/27
f 19/4/29 20/4/29 18/4/29 17/4/29
f 17/3/25 18/3/25 43/3/25 16/3/25
f 20/3/30 44/3/30 43/3/30 18/3/30
f 25/3/31 47/3/32 21/3/32 54/3/31
f 54/5/33 21/5/34 23/5/34 55/5/35
f 55/4/36 23/4/37 22/4/37 56/4/36
f 56/3/38 22/3/39 47/3/39 25/3/40
f 23/3/30 21/3/30 47/3/30 22/3/30
f 8/5/41 24/5/19 35/5/21 5/5/41
f 10/4/42 38/4/16 24/4/18 8/4/42
f 6/3/43 37/3/13 38/3/15 10/3/43
f 5/3/44 35/3/11 37/3/11 6/3/44
f 52/3/45 56/3/38 25/3/40 26/3/46
f 50/4/47 55/4/36 56/4/36 52/4/47
f 48/5/48 54/5/33 55/5/35 50/5/49
f 26/3/50 25/3/31 54/3/31 48/3/50
f 46/3/51 26/3/50 48/3/50 45/3/51
f 45/5/52 48/5/48 50/5/49 49/5/52
f 49/4/53 50/4/47 52/4/47 51/4/53
f 51/3/54 52/3/45 26/3/46 46/3/54
f 28/1/55 27/1/8 31/1/10 3/1/55
f 30/1/56 29/1/5 32/1/7 33/1/56
f 4/2/57 3/2/57 31/2/3 32/2/3
f 2/1/58 29/1/1 27/1/1 28/1/58
f 1/7/59 30/7/59 33/7/59 34/7/59
f 2/7/60 28/7/60 3/7/60 4/7/60
f 12/6/61 15/6/61 14/6/61 39/6/61
f 42/6/62 19/6/62 17/6/62 16/6/62
f 45/6/63 49/6/63 51/6/63 46/6/63
f 65/6/64 70/6/64 71/6/64 64/6/64
f 71/3/65 62/3/66 61/3/67 64/3/65
f 70/4/68 66/4/69 62/4/69 71/4/68
f 65/3/70 63/3/71 66/3/72 70/3/70
f 64/3/73 61/3/74 63/3/74 65/3/73
f 61/3/74 69/3/75 59/3/75 63/3/74
f 63/3/71 59/3/76 68/3/77 66/3/72
f 66/4/69 68/4/78 67/4/78 62/4/69
f 62/3/66 67/3/79 69/3/80 61/3/67
f 58/3/30 60/3/30 72/3/30 57/3/30
f 67/3/79 57/3/81 72/3/81 69/3/80
f 68/4/78 58/4/82 57/4/82 67/4/78
f 59/3/76 60/3/83 58/3/83 68/3/77
f 69/3/75 72/3/84 60/3/84 59/3/75
f 81/6/63 86/6/63 87/6/63 80/6/63
f 87/3/85 78/3/66 77/3/86 80/3/85
f 86/4/68 82/4/69 78/4/69 87/4/68
f 81/3/87 79/3/88 82/3/89 86/3/87
f 80/3/90 77/3/91 79/3/91 81/3/90
f 77/3/91 85/3/92 75/3/92 79/3/91
f 79/3/88 75/3/76 84/3/77 82/3/89
f 82/4/69 84/4/78 83/4/78 78/4/69
f 78/3/66 83/3/79 85/3/80 77/3/86
f 74/3/30 76/3/30 88/3/30 73/3/30
f 83/3/79 73/3/81 88/3/81 85/3/80
f 84/4/78 74/4/82 73/4/82 83/4/78
f 75/3/76 76/3/83 74/3/83 84/3/77
f 85/3/92 88/3/93 76/3/93 75/3/92
f 89/8/28 95/8/28 96/8/28 94/8/28
f 94/8/27 96/8/27 93/8/27 92/8/27
f 92/9/94 93/9/94 91/9/94 90/9/94
f 90/8/25 91/8/25 95/8/25 89/8/25
f 93/8/30 96/8/30 95/8/30 91/8/30
f 94/10/95 92/10/95 90/10/95 89/10/95
f 100/3/96 104/3/97 97/3/97 110/3/96
f 110/3/98 97/3/99 99/3/99 111/3/100
f 111/4/36 99/4/37 98/4/37 112/4/36
f 112/3/101 98/3/102 104/3/102 100/3/103
f 99/3/30 97/3/30 104/3/30 98/3/30
f 109/3/45 112/3/101 100/3/103 101/3/104
f 107/4/47 111/4/36 112/4/36 109/4/47
f 105/3/105 110/3/98 111/3/100 107/3/49
f 101/3/106 100/3/96 110/3/96 105/3/106
f 103/3/51 101/3/106 105/3/106 102/3/51
f 102/3/52 105/3/105 107/3/49 106/3/52
f 106/4/53 107/4/47 109/4/47 108/4/53
f 108/3/54 109/3/45 101/3/104 103/3/54
f 102/6/63 106/6/63 108/6/63 103/6/63
f 113/11/28 119/11/28 120/11/28 118/11/28
f 118/11/107 120/11/107 117/11/107 116/11/107
f 116/12/29 117/12/29 115/12/29 114/12/29
f 114/11/108 115/11/108 119/11/108 113/11/108
f 117/11/30 120/11/30 119/11/30 115/11/30
f 118/13/62 116/13/62 114/13/62 113/13/62
s 0
f 121/14/109 122/14/109 124/14/109 123/14/109
s 1
f 133/10/110 138/10/110 139/10/110 132/10/110
f 139/8/111 130/8/112 129/8/113 132/8/111
f 138/9/114 134/9/115 130/9/115 139/9/114
f 133/8/116 131/8/117 134/8/118 138/8/116
f 132/8/119 129/8/120 131/8/120 133/8/119
f 129/8/120 137/8/121 127/8/121 131/8/120
f 131/8/117 127/8/122 136/8/123 134/8/118
f 134/9/115 136/9/124 135/9/124 130/9/115
f 130/8/112 135/8/125 137/8/126 129/8/113
f 126/8/23 128/8/23 140/8/23 125/8/23
f 135/8/125 125/8/127 140/8/127 137/8/126
f 136/9/124 126/9/128 125/9/128 135/9/124
f 127/8/122 128/8/129 126/8/129 136/8/123
f 137/8/121 140/8/130 128/8/130 127/8/121
f 149/6/131 154/6/131 155/6/131 148/6/131
f 155/3/132 146/3/112 145/3/133 148/3/132
f 154/4/114 150/4/115 146/4/115 155/4/114
f 149/3/134 147/3/135 150/3/136 154/3/134
f 148/3/137 145/3/138 147/3/138 149/3/137
f 145/3/138 153/3/139 143/3/139 147/3/138
f 147/3/135 143/3/122 152/3/123 150/3/136
f 150/4/115 152/4/124 151/4/124 146/4/115
f 146/3/112 151/3/125 153/3/126 145/3/133
f 142/3/23 144/3/23 156/3/23 141/3/23
f 151/3/125 141/3/127 156/3/127 153/3/126
f 152/4/124 142/4/128 141/4/128 151/4/124
f 143/3/122 144/3/129 142/3/129 152/3/123
f 153/3/139 156/3/140 144/3/140 143/3/139
f 157/8/141 163/8/141 164/8/141 162/8/141
f 162/8/25 164/8/25 161/8/25 160/8/25
f 160/9/142 161/9/142 159/9/142 158/9/142
f 158/8/27 159/8/27 163/8/27 157/8/27
f 161/8/23 164/8/23 163/8/23 159/8/23
f 162/10/143 160/10/143 158/10/143 157/10/143
f 168/11/144 172/11/145 165/11/145 178/11/144
f 178/11/146 165/11/147 167/11/147 179/11/148
f 179/12/149 167/12/150 166/12/150 180/12/149
f 180/11/151 166/11/152 172/11/152 168/11/153
f 167/11/23 165/11/23 172/11/23 166/11/23
f 177/11/154 180/11/151 168/11/153 169/11/155
f 175/12/156 179/12/149 180/12/149 177/12/156
f 173/11/157 178/11/146 179/11/148 175/11/158
f 169/11/159 168/11/144 178/11/144 173/11/159
f 171/11/160 169/11/159 173/11/159 170/11/160
f 170/11/161 173/11/157 175/11/158 174/11/161
f 174/12/162 175/12/156 177/12/156 176/12/162
f 176/11/163 177/11/154 169/11/155 171/11/163
f 170/13/131 174/13/131 176/13/131 171/13/131
f 181/3/141 187/3/141 188/3/141 186/3/141
f 186/3/164 188/3/164 185/3/164 184/3/164
f 184/4/165 185/4/165 183/4/165 182/4/165
f 182/3/166 183/3/166 187/3/166 181/3/166
f 185/3/23 188/3/23 187/3/23 183/3/23
f 186/6/167 184/6/167 182/6/167 181/6/167
s 0
f 189/14/168 190/14/168 192/14/168 191/14/168
