# Blender 4.3.0
# www.blender.org
mtllib Roof02_Pink_Wood.mtl
o Roof02_Pink_Wood
v -0.190404 2.503864 1.205971
v 0.136074 2.503864 -1.180581
v -0.212892 2.872942 -1.216205
v 0.158562 2.872942 -1.216205
v 0.979672 1.441771 1.180599
v 0.979672 1.441771 0.858657
v -0.065626 2.608459 0.858657
v 1.120362 1.593338 1.158214
v 0.141169 2.760027 1.180599
v 1.120362 1.593338 0.836272
v -0.065626 2.608459 -0.843287
v 1.002594 1.421773 -1.165228
v -0.065626 2.608459 -1.165229
v 1.186468 1.593338 -0.843287
v 1.186468 1.593338 -1.165228
v -1.018498 1.441771 -1.165228
v -1.196700 1.626713 -1.165228
v -0.179995 2.760027 -1.165229
v -1.196700 1.626713 -0.843287
v -0.179995 2.760027 -0.843287
v 0.026800 2.608459 1.180599
v -0.179995 2.760027 0.858657
v -0.179995 2.760027 1.180599
v 0.659797 2.151828 1.174472
v -0.302568 2.239381 0.842789
v -0.845786 1.638443 0.861944
v -0.201409 2.517874 -0.351666
v -0.190404 2.503864 -1.180581
v 0.147080 2.517874 -0.351666
v 0.136074 2.503864 1.205971
v -0.225413 2.911836 -0.350063
v 0.171083 2.911836 -0.350063
v 0.158562 2.872942 1.244599
v -0.212892 2.872942 1.244599
v 0.460873 2.006029 1.174472
v -0.065626 2.608459 1.180599
v 0.460873 2.006030 0.864784
v 0.659797 2.151828 0.864784
v 1.002594 1.421772 -0.843287
v 0.141169 2.760027 -1.165228
v 0.141169 2.760027 -0.843287
v -1.018498 1.441771 -0.843287
v 0.026801 2.608459 -1.165229
v 0.026801 2.608459 -0.843287
v -1.031253 1.423426 1.180599
v -1.031253 1.423426 0.858657
v 0.026801 2.608459 0.858657
v -0.845786 1.638443 1.177312
v -1.225294 1.593338 1.180599
v -1.048360 1.786915 1.177312
v -1.225294 1.593338 0.858657
v -1.048360 1.786915 0.861944
v 0.141169 2.760027 0.858657
v -0.302568 2.239381 1.196467
v -0.518774 2.400752 1.196467
v -0.518774 2.400752 0.842789
v -0.178713 2.761585 0.510874
v -0.178713 2.761585 0.832816
v -0.465734 2.100759 0.833667
v 0.028082 2.610017 0.832816
v -0.776179 1.744057 0.507194
v -0.958343 1.874958 0.507194
v -0.776179 1.744057 0.836500
v -1.037704 1.435707 0.510874
v -1.037704 1.435707 0.832816
v -0.958343 1.874958 0.836500
v -0.650378 2.236562 0.509946
v -0.650378 2.236562 0.833667
v -0.465734 2.100759 0.509946
v -1.224012 1.594896 0.832816
v -1.224012 1.594896 0.510874
v 0.028082 2.610017 0.510874
v -0.178713 2.761585 -0.833548
v -0.178713 2.761585 -0.511606
v -0.442439 2.084156 -0.510754
v 0.028082 2.610017 -0.511606
v -0.762893 1.738181 -0.837228
v -0.958343 1.874958 -0.837228
v -0.762893 1.738181 -0.507922
v -1.029971 1.424984 -0.833548
v -1.029971 1.424984 -0.511606
v -0.958343 1.874958 -0.507922
v -0.650378 2.236562 -0.834476
v -0.650378 2.236562 -0.510754
v -0.442439 2.084156 -0.834476
v -1.224012 1.594896 -0.511606
v -1.224012 1.594896 -0.833548
v 0.028082 2.610017 -0.833548
v -1.018498 1.441771 -0.500474
v -1.180679 1.645404 -0.500474
v -0.179995 2.760027 -0.500474
v -1.180679 1.645404 -0.178532
v -0.179995 2.760027 -0.178532
v -1.018498 1.441771 -0.178532
v 0.026801 2.608459 -0.500474
v 0.026801 2.608459 -0.178532
v 0.026800 2.608459 0.156717
v -0.179995 2.760027 -0.165225
v -0.179995 2.760027 0.156717
v -0.303047 2.242931 -0.181093
v -0.845786 1.638443 -0.161938
v -1.031253 1.423426 0.156717
v -1.031253 1.423426 -0.165224
v 0.026801 2.608459 -0.165225
v -0.845786 1.638443 0.153431
v -1.225294 1.593338 0.156717
v -1.048360 1.786915 0.153431
v -1.225294 1.593338 -0.165224
v -1.048360 1.786915 -0.161938
v -0.303047 2.242931 0.172585
v -0.518774 2.400752 0.172585
v -0.518774 2.400752 -0.181093
v -1.018498 1.441771 0.178221
v -1.196700 1.626713 0.170210
v -0.179995 2.760027 0.178221
v -1.196700 1.626713 0.492152
v -0.179995 2.760027 0.500162
v -1.018498 1.441771 0.500162
v 0.026801 2.608459 0.178221
v 0.026801 2.608459 0.500162
v -0.996284 1.445840 0.927124
v -0.036048 2.525435 0.927124
v -0.996284 1.445840 -0.903080
v -0.036048 2.525435 -0.903080
v 0.125699 2.761585 -0.512359
v 0.125699 2.761585 -0.834301
v 0.412721 2.100759 -0.835153
v -0.081097 2.610017 -0.834301
v 0.723166 1.744057 -0.508679
v 0.905328 1.874958 -0.508679
v 0.723166 1.744057 -0.837985
v 0.984691 1.435707 -0.512360
v 0.984691 1.435707 -0.834301
v 0.905328 1.874958 -0.837985
v 0.597363 2.236562 -0.511431
v 0.597363 2.236562 -0.835153
v 0.412720 2.100759 -0.511431
v 1.170998 1.594896 -0.834301
v 1.170998 1.594896 -0.512359
v -0.081097 2.610017 -0.512359
v 0.125698 2.761585 0.832063
v 0.125698 2.761585 0.510121
v 0.389424 2.084156 0.509269
v -0.081097 2.610017 0.510121
v 0.709878 1.738181 0.835743
v 0.905328 1.874958 0.835743
v 0.709879 1.738181 0.506437
v 0.976956 1.424984 0.832062
v 0.976957 1.424984 0.510121
v 0.905328 1.874958 0.506437
v 0.597363 2.236562 0.832991
v 0.597363 2.236562 0.509269
v 0.389424 2.084156 0.832991
v 1.170998 1.594896 0.510121
v 1.170998 1.594896 0.832062
v -0.081097 2.610017 0.832063
v 0.965484 1.441771 0.498988
v 1.127665 1.645404 0.498988
v 0.126980 2.760027 0.498988
v 1.127665 1.645404 0.177047
v 0.126980 2.760027 0.177047
v 0.965484 1.441771 0.177047
v -0.079816 2.608459 0.498988
v -0.079815 2.608459 0.177047
v -0.079815 2.608459 -0.158202
v 0.126980 2.760027 0.163739
v 0.126980 2.760027 -0.158202
v 0.250032 2.242931 0.179607
v 0.792772 1.638443 0.160453
v 0.978238 1.423426 -0.158202
v 0.978238 1.423426 0.163739
v -0.079815 2.608459 0.163739
v 0.792772 1.638443 -0.154916
v 1.172279 1.593338 -0.158202
v 0.995345 1.786915 -0.154916
v 1.172279 1.593338 0.163739
v 0.995345 1.786915 0.160453
v 0.250032 2.242931 -0.174070
v 0.465760 2.400752 -0.174070
v 0.465760 2.400752 0.179607
v 0.965484 1.441771 -0.179706
v 1.143685 1.626713 -0.171696
v 0.126980 2.760027 -0.179706
v 1.143685 1.626713 -0.493637
v 0.126980 2.760027 -0.501648
v 0.965484 1.441771 -0.501648
v -0.079816 2.608459 -0.179706
v -0.079815 2.608459 -0.501648
v 0.943269 1.445840 -0.928609
v -0.016967 2.525435 -0.928609
v 0.943269 1.445840 0.901595
v -0.016967 2.525435 0.901595
vn -0.0000 -1.0000 0.0039
vn -0.0000 -1.0000 -0.0090
vn -0.0000 0.9999 -0.0102
vn -0.0000 0.9997 0.0244
vn 0.9981 -0.0612 -0.0028
vn 0.9980 -0.0613 -0.0119
vn 0.9981 -0.0612 -0.0027
vn -0.9981 -0.0613 -0.0028
vn -0.9981 -0.0612 0.0064
vn -0.9981 -0.0612 -0.0027
vn -0.7446 -0.6675 -0.0000
vn -0.7530 -0.6581 -0.0000
vn -0.0222 -0.0104 -0.9997
vn 0.0045 -0.0062 -1.0000
vn -0.0252 -0.0108 -0.9996
vn 0.7663 0.6425 -0.0000
vn 0.7609 0.6489 -0.0000
vn 0.7662 0.6426 -0.0000
vn 0.0240 0.0113 0.9996
vn 0.0045 -0.0062 1.0000
vn 0.0220 0.0096 0.9997
vn 0.7329 -0.6803 -0.0000
vn -0.5912 0.8066 -0.0000
vn -0.7432 -0.6690 -0.0000
vn -0.0000 -0.0000 -1.0000
vn 0.7448 0.6673 -0.0000
vn -0.0000 -0.0000 1.0000
vn 0.7448 -0.6673 -0.0000
vn -0.7444 0.6678 -0.0000
vn 0.5912 0.8066 -0.0000
vn 0.7440 -0.6682 -0.0000
vn 0.7461 -0.6658 -0.0000
vn 0.0035 0.0047 1.0000
vn 0.0192 0.0259 0.9995
vn 0.0015 0.0021 1.0000
vn -0.7426 0.6698 -0.0000
vn -0.7276 0.6861 -0.0000
vn 0.0015 0.0021 -1.0000
vn 0.0192 0.0259 -0.9995
vn 0.0035 0.0047 -1.0000
vn 0.0418 0.0274 0.9987
vn 0.7715 0.6362 -0.0000
vn -0.0526 -0.0151 -0.9985
vn -0.7361 -0.6768 -0.0000
vn -0.0026 -0.0040 -1.0000
vn -0.0039 -0.0057 -1.0000
vn -0.7478 0.6640 -0.0000
vn -0.0039 -0.0057 1.0000
vn -0.0026 -0.0040 1.0000
vn 0.7496 -0.6619 -0.0000
vn 0.7572 -0.6532 -0.0000
vn 0.0075 0.0094 0.9999
vn -0.7381 0.6747 -0.0000
vn 0.0075 0.0094 -0.9999
vn -0.9980 -0.0613 -0.0119
vn 0.9981 -0.0612 0.0064
vn -0.0000 0.9990 -0.0449
vn -0.0000 -0.9999 0.0169
vn -0.0000 -0.1041 0.9946
vn -0.0000 -0.0961 -0.9954
vn 0.6822 -0.7312 -0.0000
vn -0.7201 -0.6939 -0.0000
vn -0.6588 -0.7523 -0.0000
vn -0.6496 -0.7603 -0.0000
vn -0.0058 -0.0073 -1.0000
vn -0.0015 -0.0017 -1.0000
vn -0.0009 -0.0010 -1.0000
vn -0.7255 0.6882 -0.0000
vn -0.7437 0.6685 -0.0000
vn -0.0058 -0.0073 1.0000
vn -0.0009 -0.0009 1.0000
vn -0.0014 -0.0017 1.0000
vn 0.7626 -0.6468 -0.0000
vn 0.7585 -0.6517 -0.0000
vn 0.7364 -0.6765 -0.0000
vn 0.0020 0.0028 1.0000
vn 0.0022 0.0030 1.0000
vn -0.7527 0.6584 -0.0000
vn 0.0022 0.0030 -1.0000
vn 0.0020 0.0028 -1.0000
vn 0.0008 0.0011 -1.0000
vn -0.7439 0.6683 -0.0000
vn 0.0007 0.0010 1.0000
vn 0.7179 -0.6961 -0.0000
vn -0.0057 -0.0073 -1.0000
vn -0.0008 -0.0008 -1.0000
vn -0.0057 -0.0073 1.0000
vn -0.0008 -0.0007 1.0000
vn -0.0015 -0.0017 1.0000
vn 0.7609 -0.6489 -0.0000
vn 0.7474 -0.6644 -0.0000
vn 0.7395 -0.6732 -0.0000
vn 0.7452 -0.6668 -0.0000
vn -0.7441 0.6681 -0.0000
vn -0.7822 -0.6230 -0.0000
vn 0.7433 -0.6690 -0.0000
vn 0.7424 -0.6699 -0.0000
vn 0.0036 0.0050 1.0000
vn 0.0191 0.0261 0.9995
vn 0.0015 0.0020 1.0000
vn -0.7276 0.6860 -0.0000
vn 0.0015 0.0020 -1.0000
vn 0.0191 0.0261 -0.9995
vn 0.0036 0.0050 -1.0000
vn -0.0038 -0.0057 -1.0000
vn -0.0038 -0.0057 1.0000
vn 0.7507 -0.6607 -0.0000
vn -0.0134 0.0085 0.9999
vn 0.0134 -0.0085 -0.9999
vn -0.7472 0.6646 -0.0000
vn 0.6496 -0.7603 -0.0000
vn 0.0058 -0.0073 1.0000
vn 0.0015 -0.0017 1.0000
vn 0.0009 -0.0010 1.0000
vn 0.7255 0.6882 -0.0000
vn 0.7437 0.6685 -0.0000
vn 0.0058 -0.0073 -1.0000
vn 0.0009 -0.0009 -1.0000
vn 0.0014 -0.0017 -1.0000
vn -0.7626 -0.6468 -0.0000
vn -0.7585 -0.6517 -0.0000
vn -0.7364 -0.6765 -0.0000
vn -0.0020 0.0028 -1.0000
vn -0.0022 0.0030 -1.0000
vn 0.7527 0.6584 -0.0000
vn -0.0022 0.0030 1.0000
vn -0.0020 0.0028 1.0000
vn -0.0008 0.0011 1.0000
vn 0.7439 0.6683 -0.0000
vn -0.0007 0.0010 -1.0000
vn -0.7179 -0.6961 -0.0000
vn 0.6588 -0.7523 -0.0000
vn 0.0057 -0.0073 1.0000
vn 0.0008 -0.0008 1.0000
vn 0.0057 -0.0073 -1.0000
vn 0.0008 -0.0007 -1.0000
vn 0.0015 -0.0017 -1.0000
vn -0.7609 -0.6489 -0.0000
vn -0.7474 -0.6644 -0.0000
vn -0.7395 -0.6732 -0.0000
vn -0.7452 -0.6668 -0.0000
vn -0.7448 -0.6673 -0.0000
vn 0.7441 0.6681 -0.0000
vn 0.7822 -0.6230 -0.0000
vn -0.7433 -0.6690 -0.0000
vn -0.7424 -0.6699 -0.0000
vn -0.0036 0.0050 -1.0000
vn -0.0191 0.0261 -0.9995
vn -0.0015 0.0020 -1.0000
vn 0.7426 0.6698 -0.0000
vn 0.7276 0.6861 -0.0000
vn -0.0015 0.0020 1.0000
vn -0.0191 0.0261 0.9995
vn -0.0036 0.0050 1.0000
vn 0.0026 -0.0040 1.0000
vn 0.0038 -0.0057 1.0000
vn 0.7478 0.6640 -0.0000
vn 0.0038 -0.0057 -1.0000
vn 0.0026 -0.0040 -1.0000
vn -0.7507 -0.6607 -0.0000
vn -0.7572 -0.6532 -0.0000
vn -0.0075 0.0094 -0.9999
vn 0.7381 0.6747 -0.0000
vn -0.0075 0.0094 0.9999
vn 0.0134 0.0085 -0.9999
vn 0.7444 0.6678 -0.0000
vn -0.0134 -0.0085 0.9999
vn 0.7201 -0.6939 -0.0000
vn 0.7472 0.6646 -0.0000
vt 0.173798 0.651722
vt 0.386967 0.651722
vt 0.315641 0.651722
vt 0.433759 0.651722
vt 0.314807 0.120443
vt 0.250212 0.120443
vt 0.379366 0.120443
vt 0.199430 0.120443
vt 0.328585 0.120443
vt 0.264026 0.120443
vt 0.296966 0.120443
vt 0.426121 0.120443
vt 0.361562 0.120443
vt 0.026983 0.120443
s 1
usemtl Tex_MultiGradient
f 29/1/1 30/1/2 1/1/2 27/1/1
f 32/2/3 31/2/3 34/2/4 33/2/4
f 29/3/5 2/3/6 4/3/6 32/3/7
f 27/3/8 1/3/9 34/3/9 31/3/10
f 35/1/11 36/1/12 7/1/12 37/1/11
f 37/3/13 7/3/14 53/3/14 38/3/15
f 38/2/16 53/2/17 9/2/17 24/2/18
f 24/3/19 9/3/20 36/3/20 35/3/21
f 6/3/22 10/3/22 8/3/22 5/3/22
f 53/3/23 7/3/23 36/3/23 9/3/23
f 39/1/24 11/1/24 13/1/24 12/1/24
f 12/3/25 13/3/25 40/3/25 15/3/25
f 15/2/26 40/2/26 41/2/26 14/2/26
f 14/3/27 41/3/27 11/3/27 39/3/27
f 40/3/23 13/3/23 11/3/23 41/3/23
f 16/1/28 43/1/28 44/1/28 42/1/28
f 42/3/27 44/3/27 20/3/27 19/3/27
f 19/2/29 20/2/29 18/2/29 17/2/29
f 17/3/25 18/3/25 43/3/25 16/3/25
f 20/3/30 44/3/30 43/3/30 18/3/30
f 25/1/31 47/1/32 21/1/32 54/1/31
f 54/3/33 21/3/34 23/3/34 55/3/35
f 55/2/36 23/2/37 22/2/37 56/2/36
f 56/3/38 22/3/39 47/3/39 25/3/40
f 23/3/30 21/3/30 47/3/30 22/3/30
f 8/3/41 24/3/19 35/3/21 5/3/41
f 10/2/42 38/2/16 24/2/18 8/2/42
f 6/3/43 37/3/13 38/3/15 10/3/43
f 5/1/44 35/1/11 37/1/11 6/1/44
f 52/3/45 56/3/38 25/3/40 26/3/46
f 50/2/47 55/2/36 56/2/36 52/2/47
f 48/3/48 54/3/33 55/3/35 50/3/49
f 26/1/50 25/1/31 54/1/31 48/1/50
f 46/1/51 26/1/50 48/1/50 45/1/51
f 45/3/52 48/3/48 50/3/49 49/3/52
f 49/2/53 50/2/47 52/2/47 51/2/53
f 51/3/54 52/3/45 26/3/46 46/3/54
f 28/3/55 27/3/8 31/3/10 3/3/55
f 30/3/56 29/3/5 32/3/7 33/3/56
f 4/2/57 3/2/57 31/2/3 32/2/3
f 2/1/58 29/1/1 27/1/1 28/1/58
f 1/4/59 30/4/59 33/4/59 34/4/59
f 2/4/60 28/4/60 3/4/60 4/4/60
f 12/3/61 15/3/61 14/3/61 39/3/61
f 42/3/62 19/3/62 17/3/62 16/3/62
f 45/3/63 49/3/63 51/3/63 46/3/63
f 65/5/64 70/5/64 71/5/64 64/5/64
f 71/6/65 62/6/66 61/6/67 64/6/65
f 70/7/68 66/7/69 62/7/69 71/7/68
f 65/6/70 63/6/71 66/6/72 70/6/70
f 64/6/73 61/6/74 63/6/74 65/6/73
f 61/6/74 69/6/75 59/6/75 63/6/74
f 63/6/71 59/6/76 68/6/77 66/6/72
f 66/7/69 68/7/78 67/7/78 62/7/69
f 62/6/66 67/6/79 69/6/80 61/6/67
f 58/6/30 60/6/30 72/6/30 57/6/30
f 67/6/79 57/6/81 72/6/81 69/6/80
f 68/7/78 58/7/82 57/7/82 67/7/78
f 59/6/76 60/6/83 58/6/83 68/6/77
f 69/6/75 72/6/84 60/6/84 59/6/75
f 81/5/63 86/5/63 87/5/63 80/5/63
f 87/6/85 78/6/66 77/6/86 80/6/85
f 86/7/68 82/7/69 78/7/69 87/7/68
f 81/6/87 79/6/88 82/6/89 86/6/87
f 80/6/90 77/6/91 79/6/91 81/6/90
f 77/6/91 85/6/92 75/6/92 79/6/91
f 79/6/88 75/6/76 84/6/77 82/6/89
f 82/7/69 84/7/78 83/7/78 78/7/69
f 78/6/66 83/6/79 85/6/80 77/6/86
f 74/6/30 76/6/30 88/6/30 73/6/30
f 83/6/79 73/6/81 88/6/81 85/6/80
f 84/7/78 74/7/82 73/7/82 83/7/78
f 75/6/76 76/6/83 74/6/83 84/6/77
f 85/6/92 88/6/93 76/6/93 75/6/92
f 89/8/28 95/8/28 96/8/28 94/8/28
f 94/8/27 96/8/27 93/8/27 92/8/27
f 92/9/94 93/9/94 91/9/94 90/9/94
f 90/8/25 91/8/25 95/8/25 89/8/25
f 93/8/30 96/8/30 95/8/30 91/8/30
f 94/10/95 92/10/95 90/10/95 89/10/95
f 100/6/96 104/6/97 97/6/97 110/6/96
f 110/6/98 97/6/99 99/6/99 111/6/100
f 111/7/36 99/7/101 98/7/101 112/7/36
f 112/6/102 98/6/103 104/6/103 100/6/104
f 99/6/30 97/6/30 104/6/30 98/6/30
f 109/6/45 112/6/102 100/6/104 101/6/105
f 107/7/47 111/7/36 112/7/36 109/7/47
f 105/6/106 110/6/98 111/6/100 107/6/49
f 101/6/107 100/6/96 110/6/96 105/6/107
f 103/6/51 101/6/107 105/6/107 102/6/51
f 102/6/52 105/6/106 107/6/49 106/6/52
f 106/7/53 107/7/47 109/7/47 108/7/53
f 108/6/54 109/6/45 101/6/105 103/6/54
f 102/5/63 106/5/63 108/5/63 103/5/63
f 113/11/28 119/11/28 120/11/28 118/11/28
f 118/11/108 120/11/108 117/11/108 116/11/108
f 116/12/29 117/12/29 115/12/29 114/12/29
f 114/11/109 115/11/109 119/11/109 113/11/109
f 117/11/30 120/11/30 119/11/30 115/11/30
f 118/13/62 116/13/62 114/13/62 113/13/62
s 0
f 121/14/110 122/14/110 124/14/110 123/14/110
s 1
f 133/10/111 138/10/111 139/10/111 132/10/111
f 139/8/112 130/8/113 129/8/114 132/8/112
f 138/9/115 134/9/116 130/9/116 139/9/115
f 133/8/117 131/8/118 134/8/119 138/8/117
f 132/8/120 129/8/121 131/8/121 133/8/120
f 129/8/121 137/8/122 127/8/122 131/8/121
f 131/8/118 127/8/123 136/8/124 134/8/119
f 134/9/116 136/9/125 135/9/125 130/9/116
f 130/8/113 135/8/126 137/8/127 129/8/114
f 126/8/23 128/8/23 140/8/23 125/8/23
f 135/8/126 125/8/128 140/8/128 137/8/127
f 136/9/125 126/9/129 125/9/129 135/9/125
f 127/8/123 128/8/130 126/8/130 136/8/124
f 137/8/122 140/8/131 128/8/131 127/8/122
f 149/5/132 154/5/132 155/5/132 148/5/132
f 155/6/133 146/6/113 145/6/134 148/6/133
f 154/7/115 150/7/116 146/7/116 155/7/115
f 149/6/135 147/6/136 150/6/137 154/6/135
f 148/6/138 145/6/139 147/6/139 149/6/138
f 145/6/139 153/6/140 143/6/140 147/6/139
f 147/6/136 143/6/123 152/6/124 150/6/137
f 150/7/116 152/7/125 151/7/125 146/7/116
f 146/6/113 151/6/126 153/6/127 145/6/134
f 142/6/23 144/6/23 156/6/23 141/6/23
f 151/6/126 141/6/128 156/6/128 153/6/127
f 152/7/125 142/7/129 141/7/129 151/7/125
f 143/6/123 144/6/130 142/6/130 152/6/124
f 153/6/140 156/6/141 144/6/141 143/6/140
f 157/8/142 163/8/142 164/8/142 162/8/142
f 162/8/25 164/8/25 161/8/25 160/8/25
f 160/9/143 161/9/143 159/9/143 158/9/143
f 158/8/27 159/8/27 163/8/27 157/8/27
f 161/8/23 164/8/23 163/8/23 159/8/23
f 162/10/144 160/10/144 158/10/144 157/10/144
f 168/11/145 172/11/146 165/11/146 178/11/145
f 178/11/147 165/11/148 167/11/148 179/11/149
f 179/12/150 167/12/151 166/12/151 180/12/150
f 180/11/152 166/11/153 172/11/153 168/11/154
f 167/11/23 165/11/23 172/11/23 166/11/23
f 177/11/155 180/11/152 168/11/154 169/11/156
f 175/12/157 179/12/150 180/12/150 177/12/157
f 173/11/158 178/11/147 179/11/149 175/11/159
f 169/11/160 168/11/145 178/11/145 173/11/160
f 171/11/161 169/11/160 173/11/160 170/11/161
f 170/11/162 173/11/158 175/11/159 174/11/162
f 174/12/163 175/12/157 177/12/157 176/12/163
f 176/11/164 177/11/155 169/11/156 171/11/164
f 170/13/132 174/13/132 176/13/132 171/13/132
f 181/6/142 187/6/142 188/6/142 186/6/142
f 186/6/165 188/6/165 185/6/165 184/6/165
f 184/7/166 185/7/166 183/7/166 182/7/166
f 182/6/167 183/6/167 187/6/167 181/6/167
f 185/6/23 188/6/23 187/6/23 183/6/23
f 186/5/168 184/5/168 182/5/168 181/5/168
s 0
f 189/14/169 190/14/169 192/14/169 191/14/169
