# Blender 4.3.0
# www.blender.org
mtllib Roof03_White_Wood.mtl
o Roof03_White_Wood
v -0.160588 2.698342 0.880577
v -0.013845 2.516816 -0.910695
v -0.004150 2.887658 -0.937433
v 0.146564 2.698342 -0.937433
v 1.016837 1.428332 1.184909
v 1.016837 1.428333 0.862968
v -0.004645 2.511494 0.862968
v 1.188883 1.597818 1.162524
v 1.188883 1.597818 0.840583
v -0.004645 2.511494 -0.871228
v 1.017362 1.421773 -1.193170
v -0.004645 2.511494 -1.193170
v 1.201236 1.593338 -0.871229
v 1.201236 1.593338 -1.193170
v -1.003730 1.441771 -1.193170
v -1.181933 1.626713 -1.193170
v -1.181933 1.626713 -0.871229
v -0.004645 2.511494 1.184910
v 0.674565 2.151828 1.178783
v -0.357676 2.149325 0.862419
v -0.160589 2.698342 -0.910695
v -0.013844 2.516816 0.880577
v 0.146564 2.698342 0.909570
v -0.004150 2.887658 0.909570
v 0.475640 2.006029 1.178783
v 0.475640 2.006030 0.869095
v 0.674565 2.151828 0.869095
v 1.017362 1.421772 -0.871229
v -1.003730 1.441771 -0.871228
v -1.016485 1.423426 1.184909
v -1.016485 1.423426 0.862968
v -0.357676 2.149325 1.185459
v -1.210526 1.593338 1.184909
v -0.565177 2.301409 1.185459
v -1.210526 1.593338 0.862968
v -0.565177 2.301409 0.862419
v -0.987479 1.492301 0.880577
v -0.774911 1.748341 -0.910695
v -1.148328 1.612557 -0.937433
v -1.012460 1.764783 -0.937433
v -0.987479 1.492301 -0.910695
v -0.774911 1.748341 0.880577
v -1.012461 1.764783 0.909570
v -1.148329 1.612557 0.909570
v -0.131673 2.485284 0.938309
v 0.052268 2.638871 -0.936594
v -0.332097 2.497741 -0.926215
v -0.131123 2.665550 -0.926215
v -0.131673 2.485284 -0.936594
v 0.052268 2.638871 0.938309
v -0.131124 2.665550 0.930290
v -0.332097 2.497741 0.930290
v -0.280076 2.335074 0.938309
v -0.096135 2.488661 -0.936594
v -0.480500 2.347530 -0.926215
v -0.279526 2.515340 -0.926215
v -0.280076 2.335074 -0.936594
v -0.096135 2.488661 0.938309
v -0.279526 2.515340 0.930290
v -0.480500 2.347530 0.930290
v -0.417326 2.188978 0.938309
v -0.233385 2.342565 -0.936594
v -0.617750 2.201434 -0.926215
v -0.416776 2.369243 -0.926215
v -0.417326 2.188978 -0.936594
v -0.233385 2.342565 0.938309
v -0.416776 2.369243 0.930290
v -0.617750 2.201434 0.930290
v -0.541389 2.036590 0.938309
v -0.357447 2.190177 -0.936594
v -0.741812 2.049046 -0.926215
v -0.540839 2.216856 -0.926215
v -0.541388 2.036590 -0.936594
v -0.357448 2.190177 0.938309
v -0.540839 2.216856 0.930290
v -0.741813 2.049046 0.930290
v -0.665101 1.889617 0.938309
v -0.481159 2.043205 -0.936594
v -0.865525 1.902074 -0.926215
v -0.664551 2.069883 -0.926215
v -0.665101 1.889617 -0.936594
v -0.481160 2.043205 0.938309
v -0.664551 2.069883 0.930290
v -0.865525 1.902074 0.930290
v -0.788462 1.748060 0.938309
v -0.604521 1.901647 -0.936594
v -0.988886 1.760516 -0.926215
v -0.787912 1.928326 -0.926215
v -0.788462 1.748060 -0.936594
v -0.604521 1.901647 0.938309
v -0.787913 1.928326 0.930290
v -0.988886 1.760516 0.930290
v 1.145603 1.612557 -0.911229
v 1.009735 1.764783 -0.911229
v 0.772185 1.748341 -0.882236
v 0.984753 1.492301 0.909035
v 1.009735 1.764783 0.935774
v 1.145603 1.612557 0.935774
v 0.772185 1.748341 0.909035
v 0.984753 1.492301 -0.882236
v 0.128948 2.485284 -0.939969
v -0.054994 2.638871 0.934934
v 0.329372 2.497741 0.924555
v 0.128398 2.665550 0.924555
v 0.128947 2.485284 0.934934
v -0.054993 2.638871 -0.939969
v 0.128398 2.665550 -0.931949
v 0.329371 2.497741 -0.931949
v 0.277350 2.335074 -0.939969
v 0.093409 2.488661 0.934934
v 0.477774 2.347530 0.924555
v 0.276800 2.515340 0.924555
v 0.277350 2.335074 0.934934
v 0.093409 2.488661 -0.939969
v 0.276801 2.515340 -0.931949
v 0.477774 2.347530 -0.931949
v 0.414600 2.188978 -0.939969
v 0.230659 2.342565 0.934934
v 0.615024 2.201434 0.924555
v 0.414050 2.369243 0.924555
v 0.414600 2.188978 0.934934
v 0.230659 2.342565 -0.939969
v 0.414051 2.369243 -0.931949
v 0.615024 2.201434 -0.931949
v 0.538663 2.036590 -0.939969
v 0.354722 2.190177 0.934934
v 0.739087 2.049046 0.924555
v 0.538113 2.216856 0.924555
v 0.538663 2.036590 0.934934
v 0.354722 2.190177 -0.939969
v 0.538113 2.216856 -0.931949
v 0.739087 2.049046 -0.931949
v 0.662375 1.889617 -0.939969
v 0.478434 2.043205 0.934934
v 0.862799 1.902074 0.924555
v 0.661825 2.069883 0.924555
v 0.662375 1.889617 0.934934
v 0.478434 2.043205 -0.939969
v 0.661825 2.069883 -0.931949
v 0.862799 1.902074 -0.931949
v 0.785737 1.748060 -0.939969
v 0.601795 1.901647 0.934934
v 0.986161 1.760516 0.924555
v 0.785187 1.928326 0.924555
v 0.785736 1.748060 0.934934
v 0.601795 1.901647 -0.939969
v 0.785187 1.928326 -0.931949
v 0.986160 1.760516 -0.931949
v -0.468353 2.445616 -0.868061
v -0.468353 2.445616 -1.196338
v -0.251950 2.236925 -0.868061
v -0.251950 2.236925 -1.196338
v 0.672704 1.770326 -1.189653
v 0.672704 1.770326 -0.874745
v 0.862876 1.980683 -1.189653
v 0.862876 1.980683 -0.874745
v 0.067148 2.867944 1.184276
v -0.074364 2.869375 1.184979
v -0.003338 2.785758 1.184910
v -0.003292 2.899922 1.184745
v -0.077743 2.872761 -1.193680
v 0.068527 2.869234 -1.192880
v -0.003338 2.785758 -1.193170
v -0.003878 2.901292 -1.193234
v 0.068526 2.869234 -0.871518
v -0.077743 2.872761 -0.870719
v -0.003338 2.785758 -0.871228
v -0.003878 2.901292 -0.871164
v -0.074364 2.869375 0.862898
v 0.067148 2.867944 0.863601
v -0.003338 2.785758 0.862968
v -0.003292 2.899922 0.863133
vn -0.7777 -0.6287 -0.0000
vn 0.7824 0.6228 -0.0000
vn 0.7493 -0.6622 -0.0000
vn -0.7274 -0.6863 -0.0000
vn -0.7249 -0.6888 -0.0000
vn -0.7479 0.6638 -0.0000
vn -0.5910 0.8067 -0.0000
vn 0.7478 0.6639 -0.0000
vn 0.6019 0.7986 -0.0000
vn 0.7481 0.6636 -0.0000
vn 0.7018 -0.7124 -0.0000
vn -0.7247 -0.6890 -0.0000
vn -0.7382 -0.6746 -0.0000
vn 0.7493 0.6622 -0.0000
vn 0.5880 0.8089 -0.0000
vn 0.0023 0.0001 -1.0000
vn 0.0064 0.0010 -1.0000
vn 0.0064 0.0016 -1.0000
vn 0.0065 0.0022 -1.0000
vn 0.0022 0.0001 -1.0000
vn 0.0002 -0.0001 -1.0000
vn 0.0017 0.0008 -1.0000
vn 0.0013 0.0006 -1.0000
vn 0.0009 0.0003 -1.0000
vn 0.0003 -0.0000 -1.0000
vn 0.7349 -0.6782 -0.0000
vn 0.7430 -0.6693 -0.0000
vn -0.0005 0.0017 1.0000
vn 0.0040 -0.0008 1.0000
vn 0.0037 -0.0009 1.0000
vn 0.0034 -0.0010 1.0000
vn -0.0010 0.0021 1.0000
vn -0.0010 0.0021 -1.0000
vn 0.0034 -0.0010 -1.0000
vn 0.0037 -0.0009 -1.0000
vn 0.0040 -0.0008 -1.0000
vn -0.0005 0.0017 -1.0000
vn 0.0022 0.0001 1.0000
vn 0.0065 0.0022 1.0000
vn 0.0064 0.0016 1.0000
vn 0.0064 0.0010 1.0000
vn 0.0023 0.0001 1.0000
vn 0.7284 -0.6851 -0.0000
vn 0.7161 -0.6980 -0.0000
vn -0.7460 0.6659 -0.0000
vn -0.5647 0.8253 -0.0000
vn 0.0003 -0.0000 1.0000
vn 0.0009 0.0003 1.0000
vn 0.0013 0.0006 1.0000
vn 0.0017 0.0008 1.0000
vn 0.0002 -0.0001 1.0000
vn 0.0379 0.0264 0.9989
vn 0.0236 0.0127 0.9996
vn 0.0215 0.0107 0.9997
vn 0.7329 0.6804 -0.0000
vn -0.0481 -0.0143 -0.9987
vn -0.0181 -0.0080 -0.9998
vn -0.0219 -0.0088 -0.9997
vn -0.7298 -0.6837 -0.0000
vn 0.7405 -0.6721 -0.0000
vn -0.0004 -0.0004 1.0000
vn -0.7391 0.6736 -0.0000
vn -0.0004 -0.0004 -1.0000
vn -0.0937 -0.0752 0.9928
vn -0.0865 -0.0694 -0.9938
vn 0.6822 -0.7312 -0.0000
vn -0.7201 -0.6939 -0.0000
vn -0.6588 -0.7523 -0.0000
vn -0.7709 0.6370 -0.0000
vn 0.0076 -0.0027 -1.0000
vn 0.0075 -0.0018 -1.0000
vn 0.0075 -0.0007 -1.0000
vn 0.7694 -0.6388 -0.0000
vn -0.7461 0.6659 -0.0000
vn 0.0690 0.9976 -0.0000
vn 0.1114 -0.0950 0.9892
vn 0.1029 -0.0878 -0.9908
vn -0.5988 -0.8009 -0.0000
vn 0.6409 -0.7676 -0.0000
vn -0.6409 0.7676 -0.0000
vn 0.1440 0.9896 -0.0000
vn -0.0372 0.0445 0.9983
vn -0.0481 0.0576 -0.9972
vn -0.0620 -0.9981 -0.0000
vn 0.5988 -0.8009 -0.0000
vn -0.1029 -0.0878 0.9908
vn -0.1114 -0.0950 -0.9892
vn -0.0690 0.9976 -0.0000
vn 0.7461 0.6659 -0.0000
vn -0.7694 -0.6388 -0.0000
vn -0.6409 -0.7676 -0.0000
vn 0.6409 0.7676 -0.0000
vn -0.1440 0.9896 -0.0000
vn 0.0372 0.0445 -0.9983
vn 0.0481 0.0576 0.9972
vn 0.0620 -0.9981 -0.0000
vn -0.0021 -0.0021 -1.0000
vn -0.7539 0.6570 -0.0000
vn -0.0021 -0.0021 1.0000
vn 0.7266 -0.6870 -0.0000
vn -0.0050 0.0049 1.0000
vn 0.7531 0.6579 -0.0000
vn -0.0050 0.0049 -1.0000
vn -0.7111 -0.7031 -0.0000
vn 0.0075 -0.0007 1.0000
vn 0.0073 0.0014 1.0000
vn 0.0075 -0.0018 1.0000
vn 0.0027 0.0014 1.0000
vn 0.0062 -0.0005 -1.0000
vn 0.0047 -0.0005 -1.0000
vn 0.0047 -0.0005 1.0000
vn 0.0062 -0.0005 1.0000
vn 0.0027 0.0014 -1.0000
vn 0.0073 0.0014 -1.0000
vn 0.0228 0.9997 -0.0000
vn 0.0088 1.0000 -0.0000
vn 0.0076 -0.0027 1.0000
vt 0.269942 0.870738
vt 0.399096 0.870738
vt 0.107260 0.870738
vt 0.173798 0.651722
vt 0.386967 0.651722
vt 0.347642 0.651722
vt 0.315641 0.651722
vt 0.297185 0.651722
vt 0.110694 0.870738
vt 0.463077 0.870738
vt 0.333922 0.870738
vt 0.120460 0.870738
vt 0.412295 0.870738
vt 0.283141 0.870738
vt 0.509832 0.870738
s 1
usemtl Tex_MultiGradient
f 2/1/1 22/1/1 1/1/1 21/1/1
f 4/2/2 3/2/2 24/2/2 23/2/2
f 22/3/3 2/3/3 4/3/3 23/3/3
f 25/4/4 18/4/5 7/4/5 26/4/4
f 34/5/6 158/5/7 169/5/7 36/5/6
f 27/6/8 170/6/9 157/6/9 19/6/10
f 6/7/11 9/7/11 8/7/11 5/7/11
f 154/4/12 10/4/13 12/4/13 153/4/12
f 155/6/14 162/6/15 165/6/15 156/6/14
f 150/7/16 161/7/17 163/7/18 12/7/19 152/7/20
f 36/7/21 169/7/22 171/7/23 7/7/24 20/7/25
f 152/4/26 12/4/27 10/4/27 151/4/26
f 156/7/28 165/7/29 167/7/30 10/7/31 154/7/32
f 153/8/33 12/8/34 163/8/35 162/8/36 155/8/37
f 151/7/38 10/7/39 167/7/40 166/7/41 149/7/42
f 20/4/43 7/4/44 18/4/44 32/4/43
f 149/5/45 166/5/46 161/5/46 150/5/45
f 32/7/47 18/7/48 159/7/49 158/7/50 34/7/51
f 8/8/52 19/8/53 25/8/54 5/8/52
f 9/6/55 27/6/8 19/6/10 8/6/55
f 6/7/56 26/7/57 27/7/58 9/7/56
f 5/4/59 25/4/4 26/4/4 6/4/59
f 31/4/60 20/4/43 32/4/43 30/4/60
f 30/7/61 32/7/47 34/7/51 33/7/61
f 33/5/62 34/5/6 36/5/6 35/5/62
f 35/7/63 36/7/21 20/7/25 31/7/63
f 1/1/64 22/1/64 23/1/64 24/1/64
f 2/1/65 21/1/65 3/1/65 4/1/65
f 11/7/66 14/7/66 13/7/66 28/7/66
f 29/7/67 17/7/67 16/7/67 15/7/67
f 30/7/68 33/7/68 35/7/68 31/7/68
f 21/2/69 1/2/69 24/2/69 3/2/69
f 26/7/57 7/7/70 171/7/71 170/7/72 27/7/58
f 38/3/73 42/3/73 37/3/73 41/3/73
f 40/2/74 39/2/74 44/2/74 43/2/74
f 42/1/75 38/1/75 40/1/75 43/1/75
f 37/1/76 42/1/76 43/1/76 44/1/76
f 38/1/77 41/1/77 39/1/77 40/1/77
f 41/1/78 37/1/78 44/1/78 39/1/78
f 46/9/79 50/9/79 45/9/79 49/9/79
f 48/10/80 47/10/80 52/10/80 51/10/80
f 50/11/81 46/11/81 48/11/81 51/11/81
f 45/11/82 50/11/82 51/11/82 52/11/82
f 46/11/83 49/11/83 47/11/83 48/11/83
f 49/11/84 45/11/84 52/11/84 47/11/84
f 54/12/79 58/12/79 53/12/79 57/12/79
f 56/13/80 55/13/80 60/13/80 59/13/80
f 58/14/81 54/14/81 56/14/81 59/14/81
f 53/14/82 58/14/82 59/14/82 60/14/82
f 54/14/83 57/14/83 55/14/83 56/14/83
f 57/14/84 53/14/84 60/14/84 55/14/84
f 62/9/79 66/9/79 61/9/79 65/9/79
f 64/10/80 63/10/80 68/10/80 67/10/80
f 66/11/81 62/11/81 64/11/81 67/11/81
f 61/11/82 66/11/82 67/11/82 68/11/82
f 62/11/83 65/11/83 63/11/83 64/11/83
f 65/11/84 61/11/84 68/11/84 63/11/84
f 70/9/79 74/9/79 69/9/79 73/9/79
f 72/15/80 71/15/80 76/15/80 75/15/80
f 74/11/81 70/11/81 72/11/81 75/11/81
f 69/11/82 74/11/82 75/11/82 76/11/82
f 70/11/83 73/11/83 71/11/83 72/11/83
f 73/11/84 69/11/84 76/11/84 71/11/84
f 78/12/79 82/12/79 77/12/79 81/12/79
f 80/13/80 79/13/80 84/13/80 83/13/80
f 82/14/81 78/14/81 80/14/81 83/14/81
f 77/14/82 82/14/82 83/14/82 84/14/82
f 78/14/83 81/14/83 79/14/83 80/14/83
f 81/14/84 77/14/84 84/14/84 79/14/84
f 86/9/79 90/9/79 85/9/79 89/9/79
f 88/10/80 87/10/80 92/10/80 91/10/80
f 90/11/81 86/11/81 88/11/81 91/11/81
f 85/11/82 90/11/82 91/11/82 92/11/82
f 86/11/83 89/11/83 87/11/83 88/11/83
f 89/11/84 85/11/84 92/11/84 87/11/84
f 96/11/85 100/11/85 93/11/85 98/11/85
f 99/11/86 96/11/86 98/11/86 97/11/86
f 100/11/87 95/11/87 94/11/87 93/11/87
f 95/11/88 99/11/88 97/11/88 94/11/88
f 97/15/89 98/15/89 93/15/89 94/15/89
f 99/9/90 95/9/90 100/9/90 96/9/90
f 102/12/91 106/12/91 101/12/91 105/12/91
f 104/13/92 103/13/92 108/13/92 107/13/92
f 106/14/93 102/14/93 104/14/93 107/14/93
f 101/14/94 106/14/94 107/14/94 108/14/94
f 102/14/95 105/14/95 103/14/95 104/14/95
f 105/14/96 101/14/96 108/14/96 103/14/96
f 110/9/91 114/9/91 109/9/91 113/9/91
f 112/10/92 111/10/92 116/10/92 115/10/92
f 114/11/93 110/11/93 112/11/93 115/11/93
f 109/11/94 114/11/94 115/11/94 116/11/94
f 110/11/95 113/11/95 111/11/95 112/11/95
f 113/11/96 109/11/96 116/11/96 111/11/96
f 118/9/91 122/9/91 117/9/91 121/9/91
f 120/15/92 119/15/92 124/15/92 123/15/92
f 122/11/93 118/11/93 120/11/93 123/11/93
f 117/11/94 122/11/94 123/11/94 124/11/94
f 118/11/95 121/11/95 119/11/95 120/11/95
f 121/11/96 117/11/96 124/11/96 119/11/96
f 126/12/91 130/12/91 125/12/91 129/12/91
f 128/13/92 127/13/92 132/13/92 131/13/92
f 130/14/93 126/14/93 128/14/93 131/14/93
f 125/14/94 130/14/94 131/14/94 132/14/94
f 126/14/95 129/14/95 127/14/95 128/14/95
f 129/14/96 125/14/96 132/14/96 127/14/96
f 134/9/91 138/9/91 133/9/91 137/9/91
f 136/10/92 135/10/92 140/10/92 139/10/92
f 138/11/93 134/11/93 136/11/93 139/11/93
f 133/11/94 138/11/94 139/11/94 140/11/94
f 134/11/95 137/11/95 135/11/95 136/11/95
f 137/11/96 133/11/96 140/11/96 135/11/96
f 142/9/91 146/9/91 141/9/91 145/9/91
f 144/10/92 143/10/92 148/10/92 147/10/92
f 146/11/93 142/11/93 144/11/93 147/11/93
f 141/11/94 146/11/94 147/11/94 148/11/94
f 142/11/95 145/11/95 143/11/95 144/11/95
f 145/11/96 141/11/96 148/11/96 143/11/96
f 16/7/97 150/7/16 152/7/20 15/7/97
f 17/5/98 149/5/45 150/5/45 16/5/98
f 29/7/99 151/7/38 149/7/42 17/7/99
f 15/4/100 152/4/26 151/4/26 29/4/100
f 13/7/101 156/7/28 154/7/32 28/7/101
f 14/6/102 155/6/14 156/6/14 13/6/102
f 11/8/103 153/8/33 155/8/37 14/8/103
f 28/4/104 154/4/12 153/4/12 11/4/104
f 157/8/105 160/8/106 159/8/107
f 160/7/108 158/7/50 159/7/49
f 161/7/17 164/7/109 163/7/18
f 164/8/110 162/8/36 163/8/35
f 165/7/29 168/7/111 167/7/30
f 168/7/112 166/7/41 167/7/40
f 169/7/22 172/7/113 171/7/23
f 172/7/114 170/7/72 171/7/71
f 165/6/15 162/6/15 164/6/115 168/6/115
f 168/5/115 164/5/115 161/5/46 166/5/46
f 169/5/7 158/5/7 160/5/116 172/5/116
f 172/6/116 160/6/116 157/6/9 170/6/9
f 19/8/53 157/8/105 159/8/107 18/8/117 25/8/54
