# Blender 4.3.0
# www.blender.org
mtllib SmallWindow01_Pink_Wood.mtl
o SmallWindow01_Pink_Wood
v 0.000000 -0.196075 0.094947
v -0.078093 -0.196075 0.094947
v -0.204915 -0.196075 0.094947
v -0.210159 -0.061833 0.094947
v -0.204067 0.014557 0.094947
v -0.188533 0.092650 0.094947
v -0.144297 0.158854 0.094947
v -0.078093 0.203091 0.094947
v 0.000000 0.218624 0.094947
v 0.078093 0.203090 0.094947
v 0.144297 0.158854 0.094947
v 0.188533 0.092650 0.094947
v 0.204067 0.014557 0.094947
v 0.210159 -0.061833 0.094947
v 0.204915 -0.196075 0.094947
v 0.078093 -0.196075 0.094947
v -0.107777 -0.271408 0.000000
v 0.000000 -0.271408 0.000000
v -0.282804 -0.271408 0.000000
v -0.290042 -0.094922 0.000000
v -0.281634 0.014557 -0.000000
v -0.260196 0.122334 -0.000000
v -0.199145 0.213702 0.000000
v -0.107777 0.274753 -0.000000
v 0.000000 0.296191 -0.000000
v 0.107777 0.274753 -0.000000
v 0.199145 0.213702 0.000000
v 0.260196 0.122334 -0.000000
v 0.281634 0.014557 -0.000000
v 0.290042 -0.094922 0.000000
v 0.282804 -0.271408 0.000000
v 0.107777 -0.271408 0.000000
v -0.107777 -0.271408 0.094947
v 0.000000 -0.271408 0.094947
v -0.282804 -0.271408 0.094947
v -0.290042 -0.094922 0.094947
v -0.281634 0.014557 0.094947
v -0.260196 0.122334 0.094947
v -0.199145 0.213702 0.094947
v -0.107777 0.274753 0.094947
v 0.000000 0.296191 0.094947
v 0.107777 0.274753 0.094947
v 0.199145 0.213702 0.094947
v 0.260196 0.122334 0.094947
v 0.281634 0.014557 0.094947
v 0.290042 -0.094922 0.094947
v 0.282804 -0.271408 0.094947
v 0.107777 -0.271408 0.094947
v -0.078093 -0.196075 0.039424
v 0.000000 -0.196075 0.039424
v -0.204915 -0.196075 0.032026
v -0.210159 -0.061833 0.037404
v -0.204067 0.014557 0.039424
v -0.188533 0.092650 0.039424
v -0.144297 0.158854 0.039424
v -0.078093 0.203091 0.039424
v 0.000000 0.218624 0.039424
v 0.078093 0.203090 0.039424
v 0.144297 0.158854 0.039424
v 0.188533 0.092650 0.039424
v 0.204067 0.014557 0.039424
v 0.210159 -0.061833 0.037404
v 0.204915 -0.196075 0.032026
v 0.078093 -0.196075 0.039424
v -0.041046 -0.222172 0.072932
v -0.041046 0.237575 0.072932
v -0.041046 -0.222172 0.007631
v -0.041046 0.237575 0.007631
v 0.041046 -0.222172 0.072932
v 0.041046 0.237575 0.072932
v 0.041046 -0.222172 0.007631
v 0.041046 0.237575 0.007631
v -0.229873 0.048747 0.072932
v 0.229873 0.048747 0.072932
v -0.229873 0.048747 0.007631
v 0.229873 0.048747 0.007631
v -0.229873 -0.033345 0.072932
v 0.229873 -0.033345 0.072932
v -0.229873 -0.033345 0.007631
v 0.229873 -0.033345 0.007631
vn 0.9905 -0.1375 -0.0000
vn 0.9906 -0.1370 -0.0000
vn 0.9239 -0.3827 -0.0000
vn -0.0000 -0.0000 -1.0000
vn 0.9998 0.0178 -0.0000
vn 0.9907 0.1361 -0.0000
vn -0.7071 0.7071 -0.0000
vn -0.9239 0.3827 -0.0000
vn 0.9992 -0.0410 -0.0000
vn -0.3827 0.9239 -0.0000
vn -0.0000 -1.0000 -0.0000
vn -0.0000 1.0000 -0.0000
vn 0.3827 0.9239 -0.0000
vn 0.7071 0.7071 -0.0000
vn -0.9998 0.0178 -0.0000
vn -0.9992 -0.0410 -0.0000
vn 0.9239 0.3827 -0.0000
vn -0.9907 0.1361 -0.0000
vn -0.0000 -0.0000 1.0000
vn -0.0000 -0.0065 1.0000
vn -0.9905 -0.1375 -0.0000
vn -0.9906 -0.1370 -0.0000
vn -0.9998 -0.0190 -0.0000
vn -0.9998 -0.0203 -0.0000
vn 0.7071 -0.7071 -0.0000
vn -0.9992 0.0390 -0.0000
vn 0.3827 -0.9239 -0.0000
vn -0.3827 -0.9239 -0.0000
vn -0.7071 -0.7071 -0.0000
vn 0.9992 0.0390 -0.0000
vn 0.9998 -0.0190 -0.0000
vn 0.9998 -0.0203 -0.0000
vn -0.9239 -0.3827 -0.0000
vn -1.0000 -0.0000 -0.0000
vn 1.0000 -0.0000 -0.0000
vt 0.250212 0.120443
vt 0.026797 0.120443
vt 0.048686 0.117342
vt 0.378878 0.120443
vt 0.186735 0.946127
vt 0.173798 0.651722
vt 0.386967 0.651722
vt 0.315641 0.651722
s 1
usemtl Tex_MultiGradient
f 5/1/1 53/1/2 54/1/3 6/1/3
f 17/2/4 19/2/4 20/2/4 21/2/4 22/2/4 23/2/4 24/2/4 25/2/4 26/2/4 27/2/4 28/2/4 29/2/4 30/2/4 31/2/4 32/2/4 18/2/4
f 46/1/5 30/1/5 29/1/6 45/1/6
f 39/1/7 23/1/7 22/1/8 38/1/8
f 47/1/9 31/1/9 30/1/5 46/1/5
f 40/1/10 24/1/10 23/1/7 39/1/7
f 48/3/11 32/3/11 31/3/11 47/3/11
f 41/1/12 25/1/12 24/1/10 40/1/10
f 33/3/11 17/3/11 18/3/11 34/3/11
f 34/3/11 18/3/11 32/3/11 48/3/11
f 42/1/13 26/1/13 25/1/12 41/1/12
f 35/3/11 19/3/11 17/3/11 33/3/11
f 43/1/14 27/1/14 26/1/13 42/1/13
f 36/1/15 20/1/15 19/1/16 35/1/16
f 44/1/17 28/1/17 27/1/14 43/1/14
f 37/1/18 21/1/18 20/1/15 36/1/15
f 45/1/6 29/1/6 28/1/17 44/1/17
f 38/1/8 22/1/8 21/1/18 37/1/18
f 2/4/19 33/4/19 34/4/19 1/4/19
f 3/4/19 35/4/19 33/4/19 2/4/19
f 4/4/19 36/4/19 35/4/19 3/4/19
f 5/4/19 37/4/19 36/4/19 4/4/19
f 6/4/19 38/4/19 37/4/19 5/4/19
f 7/4/19 39/4/19 38/4/19 6/4/19
f 8/4/19 40/4/19 39/4/19 7/4/19
f 9/4/19 41/4/19 40/4/19 8/4/19
f 10/4/19 42/4/19 41/4/19 9/4/19
f 11/4/19 43/4/19 42/4/19 10/4/19
f 12/4/19 44/4/19 43/4/19 11/4/19
f 13/4/19 45/4/19 44/4/19 12/4/19
f 14/4/19 46/4/19 45/4/19 13/4/19
f 15/4/19 47/4/19 46/4/19 14/4/19
f 16/4/19 48/4/19 47/4/19 15/4/19
f 1/4/19 34/4/19 48/4/19 16/4/19
f 49/5/20 50/5/20 64/5/20 63/5/20 62/5/20 61/5/20 60/5/20 59/5/20 58/5/20 57/5/20 56/5/20 55/5/20 54/5/20 53/5/20 52/5/20 51/5/20
f 13/1/21 61/1/22 62/1/23 14/1/24
f 6/1/3 54/1/3 55/1/25 7/1/25
f 14/1/24 62/1/23 63/1/26 15/1/26
f 7/1/25 55/1/25 56/1/27 8/1/27
f 15/1/12 63/1/12 64/1/12 16/1/12
f 8/1/27 56/1/27 57/1/11 9/1/11
f 1/1/12 50/1/12 49/1/12 2/1/12
f 16/1/12 64/1/12 50/1/12 1/1/12
f 9/1/11 57/1/11 58/1/28 10/1/28
f 2/1/12 49/1/12 51/1/12 3/1/12
f 10/1/28 58/1/28 59/1/29 11/1/29
f 3/1/30 51/1/30 52/1/31 4/1/32
f 11/1/29 59/1/29 60/1/33 12/1/33
f 4/1/32 52/1/31 53/1/2 5/1/1
f 12/1/33 60/1/33 61/1/22 13/1/21
f 65/6/34 66/6/34 68/6/34 67/6/34
f 71/7/35 72/7/35 70/7/35 69/7/35
f 69/8/19 70/8/19 66/8/19 65/8/19
f 67/8/11 71/8/11 69/8/11 65/8/11
f 72/8/12 68/8/12 66/8/12 70/8/12
f 73/7/12 74/7/12 76/7/12 75/7/12
f 79/6/11 80/6/11 78/6/11 77/6/11
f 77/8/19 78/8/19 74/8/19 73/8/19
f 75/8/34 79/8/34 77/8/34 73/8/34
f 80/8/35 76/8/35 74/8/35 78/8/35
