# Blender 4.3.0
# www.blender.org
mtllib SmallWindow02_Blue_White.mtl
o SmallWindow02_Blue_White
v 0.000000 -0.204067 0.088997
v -0.078093 -0.188533 0.088997
v -0.144297 -0.144297 0.088997
v -0.188533 -0.078093 0.088997
v -0.204067 -0.000000 0.088997
v -0.188533 0.078093 0.088997
v -0.144297 0.144297 0.088997
v -0.078093 0.188533 0.088997
v 0.000000 0.204067 0.088997
v 0.078093 0.188533 0.088997
v 0.144297 0.144297 0.088997
v 0.188534 0.078093 0.088997
v 0.204067 -0.000000 0.088997
v 0.188534 -0.078093 0.088997
v 0.144297 -0.144297 0.088997
v 0.078093 -0.188533 0.088997
v -0.107776 -0.260196 -0.000000
v 0.000000 -0.281634 -0.000000
v -0.199145 -0.199145 -0.000000
v -0.260195 -0.107777 -0.000000
v -0.281633 -0.000000 -0.000000
v -0.260195 0.107776 -0.000000
v -0.199145 0.199145 -0.000000
v -0.107776 0.260195 -0.000000
v 0.000000 0.281633 -0.000000
v 0.107777 0.260195 -0.000000
v 0.199145 0.199145 -0.000000
v 0.260196 0.107776 -0.000000
v 0.281634 -0.000000 -0.000000
v 0.260196 -0.107777 -0.000000
v 0.199145 -0.199145 -0.000000
v 0.107777 -0.260196 -0.000000
v -0.107776 -0.260196 0.088997
v 0.000000 -0.281634 0.088997
v -0.199145 -0.199145 0.088997
v -0.260195 -0.107777 0.088997
v -0.281633 -0.000000 0.088997
v -0.260195 0.107776 0.088997
v -0.199145 0.199145 0.088997
v -0.107776 0.260195 0.088997
v 0.000000 0.281633 0.088997
v 0.107777 0.260195 0.088997
v 0.199145 0.199145 0.088997
v 0.260196 0.107776 0.088997
v 0.281634 -0.000000 0.088997
v 0.260196 -0.107777 0.088997
v 0.199145 -0.199145 0.088997
v 0.107777 -0.260196 0.088997
v -0.078093 -0.188533 0.035850
v 0.000000 -0.204067 0.035850
v -0.144297 -0.144297 0.035850
v -0.188533 -0.078093 0.035850
v -0.204067 -0.000000 0.035850
v -0.188533 0.078093 0.035850
v -0.144297 0.144297 0.035850
v -0.078093 0.188533 0.035850
v 0.000000 0.204067 0.035850
v 0.078093 0.188533 0.035850
v 0.144297 0.144297 0.035850
v 0.188534 0.078093 0.035850
v 0.204067 -0.000000 0.035850
v 0.188534 -0.078093 0.035850
v 0.144297 -0.144297 0.035850
v 0.078093 -0.188533 0.035850
v -0.041046 -0.236730 0.063806
v -0.041046 0.223017 0.063806
v -0.041046 -0.236730 0.006486
v -0.041046 0.223017 0.006486
v 0.041046 -0.236730 0.063806
v 0.041046 0.223017 0.063806
v 0.041046 -0.236730 0.006486
v 0.041046 0.223017 0.006486
v -0.229873 0.034190 0.063806
v 0.229874 0.034190 0.063806
v -0.229873 0.034190 0.006486
v 0.229874 0.034190 0.006486
v -0.229873 -0.047902 0.063806
v 0.229874 -0.047902 0.063806
v -0.229873 -0.047902 0.006486
v 0.229874 -0.047902 0.006486
vn 1.0000 -0.0000 -0.0000
vn 0.9239 -0.3827 -0.0000
vn -0.0000 -0.0000 -1.0000
vn -0.7071 0.7071 -0.0000
vn -0.9239 0.3827 -0.0000
vn 0.7071 -0.7071 -0.0000
vn -0.3827 0.9239 -0.0000
vn 0.3827 -0.9239 -0.0000
vn -0.0000 1.0000 -0.0000
vn -0.3827 -0.9239 -0.0000
vn -0.0000 -1.0000 -0.0000
vn 0.3827 0.9239 -0.0000
vn -0.7071 -0.7071 -0.0000
vn 0.7071 0.7071 -0.0000
vn -0.9239 -0.3827 -0.0000
vn 0.9239 0.3827 -0.0000
vn -1.0000 -0.0000 -0.0000
vn -0.0000 -0.0000 1.0000
vt 0.250212 0.046033
vt 0.026797 0.046033
vt 0.378878 0.046033
vt 0.186735 0.946127
vt 0.310216 0.872817
vt 0.523384 0.872817
vt 0.452059 0.872817
s 1
usemtl Tex_MultiGradient
f 5/1/1 53/1/1 54/1/2 6/1/2
f 17/2/3 19/2/3 20/2/3 21/2/3 22/2/3 23/2/3 24/2/3 25/2/3 26/2/3 27/2/3 28/2/3 29/2/3 30/2/3 31/2/3 32/2/3 18/2/3
f 46/1/2 30/1/2 29/1/1 45/1/1
f 39/1/4 23/1/4 22/1/5 38/1/5
f 47/1/6 31/1/6 30/1/2 46/1/2
f 40/1/7 24/1/7 23/1/4 39/1/4
f 48/1/8 32/1/8 31/1/6 47/1/6
f 41/1/9 25/1/9 24/1/7 40/1/7
f 33/1/10 17/1/10 18/1/11 34/1/11
f 34/1/11 18/1/11 32/1/8 48/1/8
f 42/1/12 26/1/12 25/1/9 41/1/9
f 35/1/13 19/1/13 17/1/10 33/1/10
f 43/1/14 27/1/14 26/1/12 42/1/12
f 36/1/15 20/1/15 19/1/13 35/1/13
f 44/1/16 28/1/16 27/1/14 43/1/14
f 37/1/17 21/1/17 20/1/15 36/1/15
f 45/1/1 29/1/1 28/1/16 44/1/16
f 38/1/5 22/1/5 21/1/17 37/1/17
f 2/3/18 33/3/18 34/3/18 1/3/18
f 3/3/18 35/3/18 33/3/18 2/3/18
f 4/3/18 36/3/18 35/3/18 3/3/18
f 5/3/18 37/3/18 36/3/18 4/3/18
f 6/3/18 38/3/18 37/3/18 5/3/18
f 7/3/18 39/3/18 38/3/18 6/3/18
f 8/3/18 40/3/18 39/3/18 7/3/18
f 9/3/18 41/3/18 40/3/18 8/3/18
f 10/3/18 42/3/18 41/3/18 9/3/18
f 11/3/18 43/3/18 42/3/18 10/3/18
f 12/3/18 44/3/18 43/3/18 11/3/18
f 13/3/18 45/3/18 44/3/18 12/3/18
f 14/3/18 46/3/18 45/3/18 13/3/18
f 15/3/18 47/3/18 46/3/18 14/3/18
f 16/3/18 48/3/18 47/3/18 15/3/18
f 1/3/18 34/3/18 48/3/18 16/3/18
f 49/4/18 50/4/18 64/4/18 63/4/18 62/4/18 61/4/18 60/4/18 59/4/18 58/4/18 57/4/18 56/4/18 55/4/18 54/4/18 53/4/18 52/4/18 51/4/18
f 13/1/17 61/1/17 62/1/5 14/1/5
f 6/1/2 54/1/2 55/1/6 7/1/6
f 14/1/5 62/1/5 63/1/4 15/1/4
f 7/1/6 55/1/6 56/1/8 8/1/8
f 15/1/4 63/1/4 64/1/7 16/1/7
f 8/1/8 56/1/8 57/1/11 9/1/11
f 1/1/9 50/1/9 49/1/12 2/1/12
f 16/1/7 64/1/7 50/1/9 1/1/9
f 9/1/11 57/1/11 58/1/10 10/1/10
f 2/1/12 49/1/12 51/1/14 3/1/14
f 10/1/10 58/1/10 59/1/13 11/1/13
f 3/1/14 51/1/14 52/1/16 4/1/16
f 11/1/13 59/1/13 60/1/15 12/1/15
f 4/1/16 52/1/16 53/1/1 5/1/1
f 12/1/15 60/1/15 61/1/17 13/1/17
f 65/5/17 66/5/17 68/5/17 67/5/17
f 71/6/1 72/6/1 70/6/1 69/6/1
f 69/7/18 70/7/18 66/7/18 65/7/18
f 67/7/11 71/7/11 69/7/11 65/7/11
f 72/7/9 68/7/9 66/7/9 70/7/9
f 73/6/9 74/6/9 76/6/9 75/6/9
f 79/5/11 80/5/11 78/5/11 77/5/11
f 77/7/18 78/7/18 74/7/18 73/7/18
f 75/7/17 79/7/17 77/7/17 73/7/17
f 80/7/1 76/7/1 74/7/1 78/7/1
