# Blender 4.3.0
# www.blender.org
mtllib SmallWindow02_Orange_White.mtl
o SmallWindow02_Orange_White
v 0.000000 -0.204067 0.088997
v -0.078093 -0.188533 0.088997
v -0.144297 -0.144297 0.088997
v -0.188533 -0.078093 0.088997
v -0.204067 -0.000000 0.088997
v -0.188533 0.078093 0.088997
v -0.144297 0.144297 0.088997
v -0.078093 0.188533 0.088997
v 0.000000 0.204067 0.088997
v 0.078093 0.188533 0.088997
v 0.144297 0.144297 0.088997
v 0.188534 0.078093 0.088997
v 0.204067 -0.000000 0.088997
v 0.188534 -0.078093 0.088997
v 0.144297 -0.144297 0.088997
v 0.078093 -0.188533 0.088997
v -0.107776 -0.260196 -0.000000
v 0.000000 -0.281634 -0.000000
v -0.199145 -0.199145 -0.000000
v -0.260195 -0.107777 -0.000000
v -0.281633 -0.000000 -0.000000
v -0.260195 0.107776 -0.000000
v -0.199145 0.199145 -0.000000
v -0.107776 0.260195 -0.000000
v 0.000000 0.281633 -0.000000
v 0.107777 0.260195 -0.000000
v 0.199145 0.199145 -0.000000
v 0.260196 0.107776 -0.000000
v 0.281634 -0.000000 -0.000000
v 0.260196 -0.107777 -0.000000
v 0.199145 -0.199145 -0.000000
v 0.107777 -0.260196 -0.000000
v -0.107776 -0.260196 0.088997
v 0.000000 -0.281634 0.088997
v -0.199145 -0.199145 0.088997
v -0.260195 -0.107777 0.088997
v -0.281633 -0.000000 0.088997
v -0.260195 0.107776 0.088997
v -0.199145 0.199145 0.088997
v -0.107776 0.260195 0.088997
v 0.000000 0.281633 0.088997
v 0.107777 0.260195 0.088997
v 0.199145 0.199145 0.088997
v 0.260196 0.107776 0.088997
v 0.281634 -0.000000 0.088997
v 0.260196 -0.107777 0.088997
v 0.199145 -0.199145 0.088997
v 0.107777 -0.260196 0.088997
v -0.078093 -0.188533 0.035850
v 0.000000 -0.204067 0.035850
v -0.144297 -0.144297 0.035850
v -0.188533 -0.078093 0.035850
v -0.204067 -0.000000 0.035850
v -0.188533 0.078093 0.035850
v -0.144297 0.144297 0.035850
v -0.078093 0.188533 0.035850
v 0.000000 0.204067 0.035850
v 0.078093 0.188533 0.035850
v 0.144297 0.144297 0.035850
v 0.188534 0.078093 0.035850
v 0.204067 -0.000000 0.035850
v 0.188534 -0.078093 0.035850
v 0.144297 -0.144297 0.035850
v 0.078093 -0.188533 0.035850
v -0.041046 -0.236730 0.063806
v -0.041046 0.223017 0.063806
v -0.041046 -0.236730 0.006486
v -0.041046 0.223017 0.006486
v 0.041046 -0.236730 0.063806
v 0.041046 0.223017 0.063806
v 0.041046 -0.236730 0.006486
v 0.041046 0.223017 0.006486
v -0.229873 0.034190 0.063806
v 0.229874 0.034190 0.063806
v -0.229873 0.034190 0.006486
v 0.229874 0.034190 0.006486
v -0.229873 -0.047902 0.063806
v 0.229874 -0.047902 0.063806
v -0.229873 -0.047902 0.006486
v 0.229874 -0.047902 0.006486
vn 1.0000 -0.0000 -0.0000
vn 0.9239 -0.3827 -0.0000
vn -0.0000 -0.0000 -1.0000
vn -0.7071 0.7071 -0.0000
vn -0.9239 0.3827 -0.0000
vn 0.7071 -0.7071 -0.0000
vn -0.3827 0.9239 -0.0000
vn 0.3827 -0.9239 -0.0000
vn -0.0000 1.0000 -0.0000
vn -0.3827 -0.9239 -0.0000
vn -0.0000 -1.0000 -0.0000
vn 0.3827 0.9239 -0.0000
vn -0.7071 -0.7071 -0.0000
vn 0.7071 0.7071 -0.0000
vn -0.9239 -0.3827 -0.0000
vn 0.9239 0.3827 -0.0000
vn -1.0000 -0.0000 -0.0000
vn -0.0000 -0.0000 1.0000
vt 0.250212 0.656811
vt 0.085390 0.658764
vt 0.308805 0.658764
vt 0.437472 0.658764
vt 0.186735 0.946127
vt 0.310216 0.872817
vt 0.523384 0.872817
vt 0.452059 0.872817
s 1
usemtl Tex_MultiGradient
f 5/1/1 53/1/1 54/1/2 6/1/2
f 17/2/3 19/2/3 20/2/3 21/2/3 22/2/3 23/2/3 24/2/3 25/2/3 26/2/3 27/2/3 28/2/3 29/2/3 30/2/3 31/2/3 32/2/3 18/2/3
f 46/3/2 30/3/2 29/3/1 45/3/1
f 39/3/4 23/3/4 22/3/5 38/3/5
f 47/3/6 31/3/6 30/3/2 46/3/2
f 40/3/7 24/3/7 23/3/4 39/3/4
f 48/3/8 32/3/8 31/3/6 47/3/6
f 41/3/9 25/3/9 24/3/7 40/3/7
f 33/3/10 17/3/10 18/3/11 34/3/11
f 34/3/11 18/3/11 32/3/8 48/3/8
f 42/3/12 26/3/12 25/3/9 41/3/9
f 35/3/13 19/3/13 17/3/10 33/3/10
f 43/3/14 27/3/14 26/3/12 42/3/12
f 36/3/15 20/3/15 19/3/13 35/3/13
f 44/3/16 28/3/16 27/3/14 43/3/14
f 37/3/17 21/3/17 20/3/15 36/3/15
f 45/3/1 29/3/1 28/3/16 44/3/16
f 38/3/5 22/3/5 21/3/17 37/3/17
f 2/4/18 33/4/18 34/4/18 1/4/18
f 3/4/18 35/4/18 33/4/18 2/4/18
f 4/4/18 36/4/18 35/4/18 3/4/18
f 5/4/18 37/4/18 36/4/18 4/4/18
f 6/4/18 38/4/18 37/4/18 5/4/18
f 7/4/18 39/4/18 38/4/18 6/4/18
f 8/4/18 40/4/18 39/4/18 7/4/18
f 9/4/18 41/4/18 40/4/18 8/4/18
f 10/4/18 42/4/18 41/4/18 9/4/18
f 11/4/18 43/4/18 42/4/18 10/4/18
f 12/4/18 44/4/18 43/4/18 11/4/18
f 13/4/18 45/4/18 44/4/18 12/4/18
f 14/4/18 46/4/18 45/4/18 13/4/18
f 15/4/18 47/4/18 46/4/18 14/4/18
f 16/4/18 48/4/18 47/4/18 15/4/18
f 1/4/18 34/4/18 48/4/18 16/4/18
f 49/5/18 50/5/18 64/5/18 63/5/18 62/5/18 61/5/18 60/5/18 59/5/18 58/5/18 57/5/18 56/5/18 55/5/18 54/5/18 53/5/18 52/5/18 51/5/18
f 13/1/17 61/1/17 62/1/5 14/1/5
f 6/1/2 54/1/2 55/1/6 7/1/6
f 14/1/5 62/1/5 63/1/4 15/1/4
f 7/1/6 55/1/6 56/1/8 8/1/8
f 15/1/4 63/1/4 64/1/7 16/1/7
f 8/1/8 56/1/8 57/1/11 9/1/11
f 1/1/9 50/1/9 49/1/12 2/1/12
f 16/1/7 64/1/7 50/1/9 1/1/9
f 9/1/11 57/1/11 58/1/10 10/1/10
f 2/1/12 49/1/12 51/1/14 3/1/14
f 10/1/10 58/1/10 59/1/13 11/1/13
f 3/1/14 51/1/14 52/1/16 4/1/16
f 11/1/13 59/1/13 60/1/15 12/1/15
f 4/1/16 52/1/16 53/1/1 5/1/1
f 12/1/15 60/1/15 61/1/17 13/1/17
f 65/6/17 66/6/17 68/6/17 67/6/17
f 71/7/1 72/7/1 70/7/1 69/7/1
f 69/8/18 70/8/18 66/8/18 65/8/18
f 67/8/11 71/8/11 69/8/11 65/8/11
f 72/8/9 68/8/9 66/8/9 70/8/9
f 73/7/9 74/7/9 76/7/9 75/7/9
f 79/6/11 80/6/11 78/6/11 77/6/11
f 77/8/18 78/8/18 74/8/18 73/8/18
f 75/8/17 79/8/17 77/8/17 73/8/17
f 80/8/1 76/8/1 74/8/1 78/8/1
