# Blender 4.3.0
# www.blender.org
mtllib SmallWindow01_Orange_Wood.mtl
o SmallWindow01_Orange_Wood
v 0.000000 -0.196075 0.094947
v -0.078093 -0.196075 0.094947
v -0.204915 -0.196075 0.094947
v -0.210159 -0.061833 0.094947
v -0.204067 0.014557 0.094947
v -0.188533 0.092650 0.094947
v -0.144297 0.158854 0.094947
v -0.078093 0.203091 0.094947
v 0.000000 0.218624 0.094947
v 0.078093 0.203090 0.094947
v 0.144297 0.158854 0.094947
v 0.188533 0.092650 0.094947
v 0.204067 0.014557 0.094947
v 0.210159 -0.061833 0.094947
v 0.204915 -0.196075 0.094947
v 0.078093 -0.196075 0.094947
v -0.107777 -0.271408 0.000000
v 0.000000 -0.271408 0.000000
v -0.282804 -0.271408 0.000000
v -0.290042 -0.094922 0.000000
v -0.281634 0.014557 -0.000000
v -0.260196 0.122334 -0.000000
v -0.199145 0.213702 0.000000
v -0.107777 0.274753 -0.000000
v 0.000000 0.296191 -0.000000
v 0.107777 0.274753 -0.000000
v 0.199145 0.213702 0.000000
v 0.260196 0.122334 -0.000000
v 0.281634 0.014557 -0.000000
v 0.290042 -0.094922 0.000000
v 0.282804 -0.271408 0.000000
v 0.107777 -0.271408 0.000000
v -0.107777 -0.271408 0.094947
v 0.000000 -0.271408 0.094947
v -0.282804 -0.271408 0.094947
v -0.290042 -0.094922 0.094947
v -0.281634 0.014557 0.094947
v -0.260196 0.122334 0.094947
v -0.199145 0.213702 0.094947
v -0.107777 0.274753 0.094947
v 0.000000 0.296191 0.094947
v 0.107777 0.274753 0.094947
v 0.199145 0.213702 0.094947
v 0.260196 0.122334 0.094947
v 0.281634 0.014557 0.094947
v 0.290042 -0.094922 0.094947
v 0.282804 -0.271408 0.094947
v 0.107777 -0.271408 0.094947
v -0.078093 -0.196075 0.039424
v 0.000000 -0.196075 0.039424
v -0.204915 -0.196075 0.032026
v -0.210159 -0.061833 0.037404
v -0.204067 0.014557 0.039424
v -0.188533 0.092650 0.039424
v -0.144297 0.158854 0.039424
v -0.078093 0.203091 0.039424
v 0.000000 0.218624 0.039424
v 0.078093 0.203090 0.039424
v 0.144297 0.158854 0.039424
v 0.188533 0.092650 0.039424
v 0.204067 0.014557 0.039424
v 0.210159 -0.061833 0.037404
v 0.204915 -0.196075 0.032026
v 0.078093 -0.196075 0.039424
v -0.041046 -0.222172 0.072932
v -0.041046 0.237575 0.072932
v -0.041046 -0.222172 0.007631
v -0.041046 0.237575 0.007631
v 0.041046 -0.222172 0.072932
v 0.041046 0.237575 0.072932
v 0.041046 -0.222172 0.007631
v 0.041046 0.237575 0.007631
v -0.229873 0.048747 0.072932
v 0.229873 0.048747 0.072932
v -0.229873 0.048747 0.007631
v 0.229873 0.048747 0.007631
v -0.229873 -0.033345 0.072932
v 0.229873 -0.033345 0.072932
v -0.229873 -0.033345 0.007631
v 0.229873 -0.033345 0.007631
vn 0.9905 -0.1375 -0.0000
vn 0.9906 -0.1370 -0.0000
vn 0.9239 -0.3827 -0.0000
vn -0.0000 -0.0000 -1.0000
vn 0.9998 0.0178 -0.0000
vn 0.9907 0.1361 -0.0000
vn -0.7071 0.7071 -0.0000
vn -0.9239 0.3827 -0.0000
vn 0.9992 -0.0410 -0.0000
vn -0.3827 0.9239 -0.0000
vn -0.0000 -1.0000 -0.0000
vn -0.0000 1.0000 -0.0000
vn 0.3827 0.9239 -0.0000
vn 0.7071 0.7071 -0.0000
vn -0.9998 0.0178 -0.0000
vn -0.9992 -0.0410 -0.0000
vn 0.9239 0.3827 -0.0000
vn -0.9907 0.1361 -0.0000
vn -0.0000 -0.0000 1.0000
vn -0.0000 -0.0065 1.0000
vn -0.9905 -0.1375 -0.0000
vn -0.9906 -0.1370 -0.0000
vn -0.9998 -0.0190 -0.0000
vn -0.9998 -0.0203 -0.0000
vn 0.7071 -0.7071 -0.0000
vn -0.9992 0.0390 -0.0000
vn 0.3827 -0.9239 -0.0000
vn -0.3827 -0.9239 -0.0000
vn -0.7071 -0.7071 -0.0000
vn 0.9992 0.0390 -0.0000
vn 0.9998 -0.0190 -0.0000
vn 0.9998 -0.0203 -0.0000
vn -0.9239 -0.3827 -0.0000
vn -1.0000 -0.0000 -0.0000
vn 1.0000 -0.0000 -0.0000
vt 0.250212 0.656811
vt 0.085390 0.658764
vt 0.308805 0.658764
vt 0.107280 0.655663
vt 0.437472 0.658764
vt 0.186735 0.946127
vt 0.173798 0.651722
vt 0.386967 0.651722
vt 0.315641 0.651722
s 1
usemtl Tex_MultiGradient
f 5/1/1 53/1/2 54/1/3 6/1/3
f 17/2/4 19/2/4 20/2/4 21/2/4 22/2/4 23/2/4 24/2/4 25/2/4 26/2/4 27/2/4 28/2/4 29/2/4 30/2/4 31/2/4 32/2/4 18/2/4
f 46/3/5 30/3/5 29/3/6 45/3/6
f 39/3/7 23/3/7 22/3/8 38/3/8
f 47/3/9 31/3/9 30/3/5 46/3/5
f 40/3/10 24/3/10 23/3/7 39/3/7
f 48/4/11 32/4/11 31/4/11 47/4/11
f 41/3/12 25/3/12 24/3/10 40/3/10
f 33/4/11 17/4/11 18/4/11 34/4/11
f 34/4/11 18/4/11 32/4/11 48/4/11
f 42/3/13 26/3/13 25/3/12 41/3/12
f 35/4/11 19/4/11 17/4/11 33/4/11
f 43/3/14 27/3/14 26/3/13 42/3/13
f 36/3/15 20/3/15 19/3/16 35/3/16
f 44/3/17 28/3/17 27/3/14 43/3/14
f 37/3/18 21/3/18 20/3/15 36/3/15
f 45/3/6 29/3/6 28/3/17 44/3/17
f 38/3/8 22/3/8 21/3/18 37/3/18
f 2/5/19 33/5/19 34/5/19 1/5/19
f 3/5/19 35/5/19 33/5/19 2/5/19
f 4/5/19 36/5/19 35/5/19 3/5/19
f 5/5/19 37/5/19 36/5/19 4/5/19
f 6/5/19 38/5/19 37/5/19 5/5/19
f 7/5/19 39/5/19 38/5/19 6/5/19
f 8/5/19 40/5/19 39/5/19 7/5/19
f 9/5/19 41/5/19 40/5/19 8/5/19
f 10/5/19 42/5/19 41/5/19 9/5/19
f 11/5/19 43/5/19 42/5/19 10/5/19
f 12/5/19 44/5/19 43/5/19 11/5/19
f 13/5/19 45/5/19 44/5/19 12/5/19
f 14/5/19 46/5/19 45/5/19 13/5/19
f 15/5/19 47/5/19 46/5/19 14/5/19
f 16/5/19 48/5/19 47/5/19 15/5/19
f 1/5/19 34/5/19 48/5/19 16/5/19
f 49/6/20 50/6/20 64/6/20 63/6/20 62/6/20 61/6/20 60/6/20 59/6/20 58/6/20 57/6/20 56/6/20 55/6/20 54/6/20 53/6/20 52/6/20 51/6/20
f 13/1/21 61/1/22 62/1/23 14/1/24
f 6/1/3 54/1/3 55/1/25 7/1/25
f 14/1/24 62/1/23 63/1/26 15/1/26
f 7/1/25 55/1/25 56/1/27 8/1/27
f 15/1/12 63/1/12 64/1/12 16/1/12
f 8/1/27 56/1/27 57/1/11 9/1/11
f 1/1/12 50/1/12 49/1/12 2/1/12
f 16/1/12 64/1/12 50/1/12 1/1/12
f 9/1/11 57/1/11 58/1/28 10/1/28
f 2/1/12 49/1/12 51/1/12 3/1/12
f 10/1/28 58/1/28 59/1/29 11/1/29
f 3/1/30 51/1/30 52/1/31 4/1/32
f 11/1/29 59/1/29 60/1/33 12/1/33
f 4/1/32 52/1/31 53/1/2 5/1/1
f 12/1/33 60/1/33 61/1/22 13/1/21
f 65/7/34 66/7/34 68/7/34 67/7/34
f 71/8/35 72/8/35 70/8/35 69/8/35
f 69/9/19 70/9/19 66/9/19 65/9/19
f 67/9/11 71/9/11 69/9/11 65/9/11
f 72/9/12 68/9/12 66/9/12 70/9/12
f 73/8/12 74/8/12 76/8/12 75/8/12
f 79/7/11 80/7/11 78/7/11 77/7/11
f 77/9/19 78/9/19 74/9/19 73/9/19
f 75/9/34 79/9/34 77/9/34 73/9/34
f 80/9/35 76/9/35 74/9/35 78/9/35
