# Blender 4.3.0
# www.blender.org
mtllib SmallWindow01_Black_White.mtl
o SmallWindow01_Black_White
v 0.000000 -0.196075 0.094947
v -0.078093 -0.196075 0.094947
v -0.204915 -0.196075 0.094947
v -0.210159 -0.061833 0.094947
v -0.204067 0.014557 0.094947
v -0.188533 0.092650 0.094947
v -0.144297 0.158854 0.094947
v -0.078093 0.203091 0.094947
v 0.000000 0.218624 0.094947
v 0.078093 0.203090 0.094947
v 0.144297 0.158854 0.094947
v 0.188533 0.092650 0.094947
v 0.204067 0.014557 0.094947
v 0.210159 -0.061833 0.094947
v 0.204915 -0.196075 0.094947
v 0.078093 -0.196075 0.094947
v -0.107777 -0.271408 0.000000
v 0.000000 -0.271408 0.000000
v -0.282804 -0.271408 0.000000
v -0.290042 -0.094922 0.000000
v -0.281634 0.014557 -0.000000
v -0.260196 0.122334 -0.000000
v -0.199145 0.213702 0.000000
v -0.107777 0.274753 -0.000000
v 0.000000 0.296191 -0.000000
v 0.107777 0.274753 -0.000000
v 0.199145 0.213702 0.000000
v 0.260196 0.122334 -0.000000
v 0.281634 0.014557 -0.000000
v 0.290042 -0.094922 0.000000
v 0.282804 -0.271408 0.000000
v 0.107777 -0.271408 0.000000
v -0.107777 -0.271408 0.094947
v 0.000000 -0.271408 0.094947
v -0.282804 -0.271408 0.094947
v -0.290042 -0.094922 0.094947
v -0.281634 0.014557 0.094947
v -0.260196 0.122334 0.094947
v -0.199145 0.213702 0.094947
v -0.107777 0.274753 0.094947
v 0.000000 0.296191 0.094947
v 0.107777 0.274753 0.094947
v 0.199145 0.213702 0.094947
v 0.260196 0.122334 0.094947
v 0.281634 0.014557 0.094947
v 0.290042 -0.094922 0.094947
v 0.282804 -0.271408 0.094947
v 0.107777 -0.271408 0.094947
v -0.078093 -0.196075 0.039424
v 0.000000 -0.196075 0.039424
v -0.204915 -0.196075 0.032026
v -0.210159 -0.061833 0.037404
v -0.204067 0.014557 0.039424
v -0.188533 0.092650 0.039424
v -0.144297 0.158854 0.039424
v -0.078093 0.203091 0.039424
v 0.000000 0.218624 0.039424
v 0.078093 0.203090 0.039424
v 0.144297 0.158854 0.039424
v 0.188533 0.092650 0.039424
v 0.204067 0.014557 0.039424
v 0.210159 -0.061833 0.037404
v 0.204915 -0.196075 0.032026
v 0.078093 -0.196075 0.039424
v -0.041046 -0.222172 0.072932
v -0.041046 0.237575 0.072932
v -0.041046 -0.222172 0.007631
v -0.041046 0.237575 0.007631
v 0.041046 -0.222172 0.072932
v 0.041046 0.237575 0.072932
v 0.041046 -0.222172 0.007631
v 0.041046 0.237575 0.007631
v -0.229873 0.048747 0.072932
v 0.229873 0.048747 0.072932
v -0.229873 0.048747 0.007631
v 0.229873 0.048747 0.007631
v -0.229873 -0.033345 0.072932
v 0.229873 -0.033345 0.072932
v -0.229873 -0.033345 0.007631
v 0.229873 -0.033345 0.007631
vn 0.9905 -0.1375 -0.0000
vn 0.9906 -0.1370 -0.0000
vn 0.9239 -0.3827 -0.0000
vn -0.0000 -0.0000 -1.0000
vn 0.9998 0.0178 -0.0000
vn 0.9907 0.1361 -0.0000
vn -0.7071 0.7071 -0.0000
vn -0.9239 0.3827 -0.0000
vn 0.9992 -0.0410 -0.0000
vn -0.3827 0.9239 -0.0000
vn -0.0000 -1.0000 -0.0000
vn -0.0000 1.0000 -0.0000
vn 0.3827 0.9239 -0.0000
vn 0.7071 0.7071 -0.0000
vn -0.9998 0.0178 -0.0000
vn -0.9992 -0.0410 -0.0000
vn 0.9239 0.3827 -0.0000
vn -0.9907 0.1361 -0.0000
vn -0.0000 -0.0000 1.0000
vn -0.0000 -0.0065 1.0000
vn -0.9905 -0.1375 -0.0000
vn -0.9906 -0.1370 -0.0000
vn -0.9998 -0.0190 -0.0000
vn -0.9998 -0.0203 -0.0000
vn 0.7071 -0.7071 -0.0000
vn -0.9992 0.0390 -0.0000
vn 0.3827 -0.9239 -0.0000
vn -0.3827 -0.9239 -0.0000
vn -0.7071 -0.7071 -0.0000
vn 0.9992 0.0390 -0.0000
vn 0.9998 -0.0190 -0.0000
vn 0.9998 -0.0203 -0.0000
vn -0.9239 -0.3827 -0.0000
vn -1.0000 -0.0000 -0.0000
vn 1.0000 -0.0000 -0.0000
vt -0.028824 0.945147
vt 0.020596 0.982352
vt 0.099843 0.945147
vt 0.186735 0.946127
vt 0.263461 0.867895
vt 0.476630 0.867895
vt 0.405304 0.867895
s 1
usemtl Tex_MultiGradient
f 5/1/1 53/1/2 54/1/3 6/1/3
f 17/2/4 19/2/4 20/2/4 21/2/4 22/2/4 23/2/4 24/2/4 25/2/4 26/2/4 27/2/4 28/2/4 29/2/4 30/2/4 31/2/4 32/2/4 18/2/4
f 46/1/5 30/1/5 29/1/6 45/1/6
f 39/1/7 23/1/7 22/1/8 38/1/8
f 47/1/9 31/1/9 30/1/5 46/1/5
f 40/1/10 24/1/10 23/1/7 39/1/7
f 48/1/11 32/1/11 31/1/11 47/1/11
f 41/1/12 25/1/12 24/1/10 40/1/10
f 33/1/11 17/1/11 18/1/11 34/1/11
f 34/1/11 18/1/11 32/1/11 48/1/11
f 42/1/13 26/1/13 25/1/12 41/1/12
f 35/1/11 19/1/11 17/1/11 33/1/11
f 43/1/14 27/1/14 26/1/13 42/1/13
f 36/1/15 20/1/15 19/1/16 35/1/16
f 44/1/17 28/1/17 27/1/14 43/1/14
f 37/1/18 21/1/18 20/1/15 36/1/15
f 45/1/6 29/1/6 28/1/17 44/1/17
f 38/1/8 22/1/8 21/1/18 37/1/18
f 2/3/19 33/3/19 34/3/19 1/3/19
f 3/3/19 35/3/19 33/3/19 2/3/19
f 4/3/19 36/3/19 35/3/19 3/3/19
f 5/3/19 37/3/19 36/3/19 4/3/19
f 6/3/19 38/3/19 37/3/19 5/3/19
f 7/3/19 39/3/19 38/3/19 6/3/19
f 8/3/19 40/3/19 39/3/19 7/3/19
f 9/3/19 41/3/19 40/3/19 8/3/19
f 10/3/19 42/3/19 41/3/19 9/3/19
f 11/3/19 43/3/19 42/3/19 10/3/19
f 12/3/19 44/3/19 43/3/19 11/3/19
f 13/3/19 45/3/19 44/3/19 12/3/19
f 14/3/19 46/3/19 45/3/19 13/3/19
f 15/3/19 47/3/19 46/3/19 14/3/19
f 16/3/19 48/3/19 47/3/19 15/3/19
f 1/3/19 34/3/19 48/3/19 16/3/19
f 49/4/20 50/4/20 64/4/20 63/4/20 62/4/20 61/4/20 60/4/20 59/4/20 58/4/20 57/4/20 56/4/20 55/4/20 54/4/20 53/4/20 52/4/20 51/4/20
f 13/1/21 61/1/22 62/1/23 14/1/24
f 6/1/3 54/1/3 55/1/25 7/1/25
f 14/1/24 62/1/23 63/1/26 15/1/26
f 7/1/25 55/1/25 56/1/27 8/1/27
f 15/1/12 63/1/12 64/1/12 16/1/12
f 8/1/27 56/1/27 57/1/11 9/1/11
f 1/1/12 50/1/12 49/1/12 2/1/12
f 16/1/12 64/1/12 50/1/12 1/1/12
f 9/1/11 57/1/11 58/1/28 10/1/28
f 2/1/12 49/1/12 51/1/12 3/1/12
f 10/1/28 58/1/28 59/1/29 11/1/29
f 3/1/30 51/1/30 52/1/31 4/1/32
f 11/1/29 59/1/29 60/1/33 12/1/33
f 4/1/32 52/1/31 53/1/2 5/1/1
f 12/1/33 60/1/33 61/1/22 13/1/21
f 65/5/34 66/5/34 68/5/34 67/5/34
f 71/6/35 72/6/35 70/6/35 69/6/35
f 69/7/19 70/7/19 66/7/19 65/7/19
f 67/7/11 71/7/11 69/7/11 65/7/11
f 72/7/12 68/7/12 66/7/12 70/7/12
f 73/6/12 74/6/12 76/6/12 75/6/12
f 79/5/11 80/5/11 78/5/11 77/5/11
f 77/7/19 78/7/19 74/7/19 73/7/19
f 75/7/34 79/7/34 77/7/34 73/7/34
f 80/7/35 76/7/35 74/7/35 78/7/35
