# Blender 4.3.0
# www.blender.org
mtllib Window01_Blue_Wood.mtl
o Window01_Blue_Wood
v -0.286829 -0.220951 0.135776
v -0.461846 -0.373455 0.009037
v 0.262888 -0.220951 0.135776
v 0.437905 -0.373455 0.009037
v -0.123360 0.170175 0.135776
v -0.286829 0.006706 0.135776
v -0.238950 0.122296 0.135776
v -0.461846 0.041520 0.009037
v -0.158173 0.345192 0.009037
v -0.372902 0.256248 0.009037
v 0.262888 0.006706 0.135776
v 0.099420 0.170175 0.135776
v 0.215009 0.122296 0.135776
v 0.134233 0.345192 0.009037
v 0.437905 0.041520 0.009037
v 0.348962 0.256248 0.009037
v -0.461846 -0.373455 0.135776
v 0.437905 -0.373455 0.135776
v -0.372902 0.256248 0.135776
v -0.158174 0.345192 0.135776
v -0.461846 0.041520 0.135776
v 0.134233 0.345192 0.135776
v 0.348962 0.256248 0.135776
v 0.437905 0.041520 0.135776
v -0.357398 -0.291520 0.135776
v 0.333457 -0.291520 0.135776
v -0.292961 0.176307 0.135776
v -0.137397 0.240744 0.135776
v -0.357398 0.020743 0.135776
v 0.113457 0.240744 0.135776
v 0.269021 0.176307 0.135776
v 0.333457 0.020743 0.135776
v -0.286829 -0.220951 0.096827
v 0.262888 -0.220951 0.096827
v -0.238950 0.122296 0.096827
v -0.123360 0.170175 0.096827
v -0.286829 0.006706 0.096827
v 0.099420 0.170175 0.096827
v 0.215009 0.122296 0.096827
v 0.262888 0.006706 0.096827
v -0.357398 -0.291520 0.154666
v 0.333457 -0.291520 0.154666
v -0.292961 0.176307 0.154666
v -0.137397 0.240744 0.154666
v -0.357398 0.020743 0.154666
v 0.113457 0.240744 0.154666
v 0.269021 0.176307 0.154666
v 0.333457 0.020743 0.154666
v -0.286829 -0.220951 0.154666
v 0.262888 -0.220951 0.154666
v -0.238950 0.122296 0.154666
v -0.123360 0.170175 0.154666
v -0.286829 0.006706 0.154666
v 0.099420 0.170175 0.154666
v 0.215009 0.122296 0.154666
v 0.262888 0.006706 0.154666
v -0.050070 -0.241980 0.133733
v -0.050070 0.205819 0.133733
v -0.050070 -0.241980 0.101815
v -0.050070 0.205819 0.101815
v 0.019166 -0.241980 0.133733
v 0.019166 0.205819 0.133733
v 0.019166 -0.241980 0.101815
v 0.019166 0.205819 0.101815
v -0.292516 -0.014646 0.133733
v 0.272952 -0.014646 0.133733
v -0.292516 -0.014646 0.101815
v 0.272952 -0.014646 0.101815
v -0.292516 -0.083882 0.133733
v 0.272952 -0.083882 0.133733
v -0.292516 -0.083882 0.101815
v 0.272952 -0.083882 0.101815
vn 0.1951 0.9808 -0.0000
vn -0.1951 0.9808 -0.0000
vn 1.0000 -0.0000 -0.0000
vn 0.9808 0.1951 -0.0000
vn -1.0000 -0.0000 -0.0000
vn -0.9808 0.1951 -0.0000
vn -0.0000 -1.0000 -0.0000
vn -0.0000 -0.0000 -1.0000
vn -0.7071 0.7071 -0.0000
vn 0.7071 0.7071 -0.0000
vn -0.7071 -0.7071 -0.0000
vn -0.1951 -0.9808 -0.0000
vn -0.0000 -0.0000 1.0000
vn 0.1951 -0.9808 -0.0000
vn -0.9808 -0.1951 -0.0000
vn 0.7071 -0.7071 -0.0000
vn 0.9808 -0.1951 -0.0000
vn -0.0000 1.0000 -0.0000
vt 0.250212 0.046033
vt 0.048686 0.042933
vt 0.026797 0.046033
vt 0.173798 0.651722
vt 0.378878 0.046033
vt 0.186735 0.946127
vt 0.370661 0.646800
vt 0.315641 0.651722
vt 0.386967 0.651722
s 1
usemtl Tex_MultiGradient
f 14/1/1 9/1/2 20/1/2 22/1/1
f 4/1/3 15/1/4 24/1/4 18/1/3
f 17/1/5 21/1/6 8/1/6 2/1/5
f 2/2/7 4/2/7 18/2/7 17/2/7
f 2/3/8 8/3/8 10/3/8 9/3/8 14/3/8 16/3/8 15/3/8 4/3/8
f 20/1/2 9/1/2 10/1/9 19/1/9
f 19/1/9 10/1/9 8/1/6 21/1/6
f 14/1/1 22/1/1 23/1/10 16/1/10
f 16/1/10 23/1/10 24/1/4 15/1/4
f 13/4/11 12/4/12 38/4/12 39/4/11
f 26/5/13 25/5/13 17/5/13 18/5/13
f 27/5/13 28/5/13 20/5/13 19/5/13
f 29/5/13 27/5/13 19/5/13 21/5/13
f 30/5/13 31/5/13 23/5/13 22/5/13
f 31/5/13 32/5/13 24/5/13 23/5/13
f 32/5/13 26/5/13 18/5/13 24/5/13
f 28/5/13 30/5/13 22/5/13 20/5/13
f 25/5/13 29/5/13 21/5/13 17/5/13
f 5/4/14 12/4/12 54/4/12 52/4/14
f 29/4/6 25/4/5 41/4/5 45/4/6
f 11/4/15 3/4/5 50/4/5 56/4/15
f 30/4/1 28/4/2 44/4/2 46/4/1
f 13/4/11 11/4/15 56/4/15 55/4/11
f 26/4/3 32/4/4 48/4/4 42/4/3
f 12/4/12 13/4/11 55/4/11 54/4/12
f 32/4/4 31/4/10 47/4/10 48/4/4
f 34/6/13 40/6/13 39/6/13 38/6/13 36/6/13 35/6/13 37/6/13 33/6/13
f 5/4/14 7/4/16 35/4/16 36/4/14
f 12/4/12 5/4/14 36/4/14 38/4/12
f 11/4/15 13/4/11 39/4/11 40/4/15
f 7/4/16 6/4/17 37/4/17 35/4/16
f 1/7/18 3/7/18 34/7/18 33/7/18
f 6/4/17 1/4/3 33/4/3 37/4/17
f 3/4/5 11/4/15 40/4/15 34/4/5
f 50/8/13 49/8/13 41/8/13 42/8/13
f 51/8/13 52/8/13 44/8/13 43/8/13
f 53/8/13 51/8/13 43/8/13 45/8/13
f 54/8/13 55/8/13 47/8/13 46/8/13
f 55/8/13 56/8/13 48/8/13 47/8/13
f 56/8/13 50/8/13 42/8/13 48/8/13
f 52/8/13 54/8/13 46/8/13 44/8/13
f 49/8/13 53/8/13 45/8/13 41/8/13
f 25/4/7 26/4/7 42/4/7 41/4/7
f 1/4/3 6/4/17 53/4/17 49/4/3
f 28/4/2 27/4/9 43/4/9 44/4/2
f 3/7/18 1/7/18 49/7/18 50/7/18
f 27/4/9 29/4/6 45/4/6 43/4/9
f 7/4/16 5/4/14 52/4/14 51/4/16
f 31/4/10 30/4/1 46/4/1 47/4/10
f 6/4/17 7/4/16 51/4/16 53/4/17
f 57/4/5 58/4/5 60/4/5 59/4/5
f 59/8/8 60/8/8 64/8/8 63/8/8
f 63/9/3 64/9/3 62/9/3 61/9/3
f 61/8/13 62/8/13 58/8/13 57/8/13
f 59/8/7 63/8/7 61/8/7 57/8/7
f 64/8/18 60/8/18 58/8/18 62/8/18
f 65/9/18 66/9/18 68/9/18 67/9/18
f 67/8/8 68/8/8 72/8/8 71/8/8
f 71/4/7 72/4/7 70/4/7 69/4/7
f 69/8/13 70/8/13 66/8/13 65/8/13
f 67/8/5 71/8/5 69/8/5 65/8/5
f 72/8/3 68/8/3 66/8/3 70/8/3
