# Blender 4.3.0
# www.blender.org
mtllib Window02_Black_White.mtl
o Window02_Black_White
v -0.274041 -0.220951 0.122400
v -0.449058 -0.373455 -0.004339
v 0.275676 -0.220951 0.122400
v 0.450693 -0.373455 -0.004339
v -0.110573 0.170175 0.122400
v -0.274041 0.006706 0.122400
v -0.277882 0.172068 0.122400
v -0.449058 0.041520 -0.004339
v -0.145386 0.345192 0.006462
v -0.450529 0.331935 0.008677
v 0.275676 0.006706 0.122400
v 0.112207 0.170175 0.122400
v 0.275127 0.172068 0.122400
v 0.147021 0.345192 0.006462
v 0.450693 0.041520 -0.004339
v 0.447261 0.331935 0.008677
v -0.449058 -0.373455 0.122400
v 0.450693 -0.373455 0.122400
v -0.450529 0.331935 0.133870
v -0.145386 0.345192 0.133201
v -0.449058 0.041520 0.122400
v 0.147021 0.345192 0.133201
v 0.447261 0.331935 0.133870
v 0.450693 0.041520 0.122400
v -0.344610 -0.291520 0.122400
v 0.346245 -0.291520 0.122400
v -0.343678 0.226079 0.122400
v -0.124610 0.240744 0.122400
v -0.344610 0.020743 0.122400
v 0.126245 0.240744 0.122400
v 0.340923 0.226079 0.122400
v 0.346245 0.020743 0.122400
v -0.274041 -0.220951 0.083452
v 0.275676 -0.220951 0.083452
v -0.277882 0.172068 0.083452
v -0.110573 0.170175 0.083452
v -0.274041 0.006706 0.083452
v 0.112207 0.170175 0.083452
v 0.275127 0.172068 0.083452
v 0.275676 0.006706 0.083452
v -0.344610 -0.291520 0.141290
v 0.346245 -0.291520 0.141290
v -0.343678 0.226079 0.141290
v -0.124610 0.240744 0.141290
v -0.344610 0.020743 0.141290
v 0.126245 0.240744 0.141290
v 0.340923 0.226079 0.141290
v 0.346245 0.020743 0.141290
v -0.274041 -0.220951 0.141290
v 0.275676 -0.220951 0.141290
v -0.277882 0.172068 0.141290
v -0.110573 0.170175 0.141290
v -0.274041 0.006706 0.141290
v 0.112207 0.170175 0.141290
v 0.275127 0.172068 0.141290
v 0.275676 0.006706 0.141290
v -0.037282 -0.241980 0.120357
v -0.037282 0.205819 0.120357
v -0.037282 -0.241980 0.088440
v -0.037282 0.205819 0.088440
v 0.031954 -0.241980 0.120357
v 0.031954 0.205819 0.120357
v 0.031954 -0.241980 0.088440
v 0.031954 0.205819 0.088440
v -0.279728 -0.014646 0.120357
v 0.285740 -0.014646 0.120357
v -0.279728 -0.014646 0.088440
v 0.285740 -0.014646 0.088440
v -0.279728 -0.083882 0.120357
v 0.285740 -0.083882 0.120357
v -0.279728 -0.083882 0.088440
v 0.285740 -0.083882 0.088440
vn 0.0220 0.9998 -0.0000
vn -0.0217 0.9998 -0.0000
vn 0.0221 0.9998 -0.0000
vn 1.0000 -0.0000 -0.0000
vn 1.0000 0.0058 -0.0000
vn 1.0000 0.0060 -0.0000
vn -1.0000 -0.0000 -0.0000
vn -1.0000 -0.0026 -0.0000
vn -1.0000 -0.0025 -0.0000
vn -0.0000 -1.0000 -0.0000
vn -0.0000 0.0162 -0.9999
vn -0.0434 0.9991 -0.0000
vn -1.0000 -0.0051 -0.0000
vn 0.0441 0.9990 -0.0000
vn 0.9999 0.0118 -0.0000
vn 0.0116 -0.9999 -0.0000
vn 0.0058 -1.0000 -0.0000
vn -0.0000 -0.0000 1.0000
vn 0.0237 -0.0618 0.9978
vn 0.0030 -0.1022 0.9948
vn 0.0037 -0.1020 0.9948
vn 0.0231 -0.0633 0.9977
vn 0.0177 -0.0101 0.9998
vn 0.0228 -0.0130 0.9997
vn -0.0030 -0.1021 0.9948
vn -0.0236 -0.0623 0.9978
vn -0.0231 -0.0633 0.9977
vn -0.0038 -0.1020 0.9948
vn -0.0177 -0.0105 0.9998
vn -0.0225 -0.0134 0.9997
vn -0.0057 -1.0000 -0.0000
vn -1.0000 0.0023 -0.0000
vn -1.0000 -0.0017 -0.0000
vn 0.0341 0.9994 -0.0000
vn -0.0334 0.9994 -0.0000
vn -1.0000 -0.0033 -0.0000
vn 0.9999 0.0130 -0.0000
vn 0.9997 0.0259 -0.0000
vn -0.0113 -0.9999 -0.0000
vn 0.9997 0.0232 -0.0000
vn 0.9999 0.0116 -0.0000
vn -0.0000 1.0000 -0.0000
vn -0.0668 0.9978 -0.0000
vn -1.0000 0.0045 -0.0000
vn 0.0682 0.9977 -0.0000
vn -0.0000 -0.0000 -1.0000
vt -0.028824 0.945147
vt 0.020596 0.982352
vt 0.310216 0.872817
vt 0.099843 0.945147
vt 0.186735 0.946127
vt 0.263461 0.867895
vt 0.452059 0.872817
vt 0.523384 0.872817
s 1
usemtl Tex_MultiGradient
f 14/1/1 9/1/2 20/1/2 22/1/3
f 4/1/4 15/1/5 24/1/6 18/1/4
f 17/1/7 21/1/8 8/1/9 2/1/7
f 2/1/10 4/1/10 18/1/10 17/1/10
f 2/2/11 8/2/11 10/2/11 9/2/11 14/2/11 16/2/11 15/2/11 4/2/11
f 20/1/2 9/1/2 10/1/12 19/1/12
f 19/1/13 10/1/13 8/1/9 21/1/8
f 14/1/1 22/1/3 23/1/14 16/1/14
f 16/1/15 23/1/15 24/1/6 15/1/5
f 13/3/16 12/3/17 38/3/17 39/3/16
f 26/4/18 25/4/18 17/4/18 18/4/18
f 27/4/19 28/4/20 20/4/21 19/4/22
f 29/4/23 27/4/19 19/4/22 21/4/24
f 30/4/25 31/4/26 23/4/27 22/4/28
f 31/4/26 32/4/29 24/4/30 23/4/27
f 32/4/29 26/4/18 18/4/18 24/4/30
f 28/4/20 30/4/25 22/4/28 20/4/21
f 25/4/18 29/4/23 21/4/24 17/4/18
f 5/3/31 12/3/17 54/3/17 52/3/31
f 29/3/32 25/3/7 41/3/7 45/3/32
f 11/3/33 3/3/7 50/3/7 56/3/33
f 30/3/34 28/3/35 44/3/35 46/3/34
f 13/3/36 11/3/33 56/3/33 55/3/36
f 26/3/4 32/3/37 48/3/37 42/3/4
f 12/3/17 13/3/16 55/3/16 54/3/17
f 32/3/37 31/3/38 47/3/38 48/3/37
f 34/5/18 40/5/18 39/5/18 38/5/18 36/5/18 35/5/18 37/5/18 33/5/18
f 5/3/31 7/3/39 35/3/39 36/3/31
f 12/3/17 5/3/31 36/3/31 38/3/17
f 11/3/33 13/3/36 39/3/36 40/3/33
f 7/3/40 6/3/41 37/3/41 35/3/40
f 1/6/42 3/6/42 34/6/42 33/6/42
f 6/3/41 1/3/4 33/3/4 37/3/41
f 3/3/7 11/3/33 40/3/33 34/3/7
f 50/7/18 49/7/18 41/7/18 42/7/18
f 51/7/18 52/7/18 44/7/18 43/7/18
f 53/7/18 51/7/18 43/7/18 45/7/18
f 54/7/18 55/7/18 47/7/18 46/7/18
f 55/7/18 56/7/18 48/7/18 47/7/18
f 56/7/18 50/7/18 42/7/18 48/7/18
f 52/7/18 54/7/18 46/7/18 44/7/18
f 49/7/18 53/7/18 45/7/18 41/7/18
f 25/3/10 26/3/10 42/3/10 41/3/10
f 1/3/4 6/3/41 53/3/41 49/3/4
f 28/3/35 27/3/43 43/3/43 44/3/35
f 3/6/42 1/6/42 49/6/42 50/6/42
f 27/3/44 29/3/32 45/3/32 43/3/44
f 7/3/39 5/3/31 52/3/31 51/3/39
f 31/3/45 30/3/34 46/3/34 47/3/45
f 6/3/41 7/3/40 51/3/40 53/3/41
f 57/3/7 58/3/7 60/3/7 59/3/7
f 59/7/46 60/7/46 64/7/46 63/7/46
f 63/8/4 64/8/4 62/8/4 61/8/4
f 61/7/18 62/7/18 58/7/18 57/7/18
f 59/7/10 63/7/10 61/7/10 57/7/10
f 64/7/42 60/7/42 58/7/42 62/7/42
f 65/8/42 66/8/42 68/8/42 67/8/42
f 67/7/46 68/7/46 72/7/46 71/7/46
f 71/3/10 72/3/10 70/3/10 69/3/10
f 69/7/18 70/7/18 66/7/18 65/7/18
f 67/7/7 71/7/7 69/7/7 65/7/7
f 72/7/4 68/7/4 66/7/4 70/7/4
