# Blender 4.3.0
# www.blender.org
mtllib Window01_White_Black.mtl
o Window01_White_Black
v -0.286829 -0.220951 0.135776
v -0.461846 -0.373455 0.009037
v 0.262888 -0.220951 0.135776
v 0.437905 -0.373455 0.009037
v -0.123360 0.170175 0.135776
v -0.286829 0.006706 0.135776
v -0.238950 0.122296 0.135776
v -0.461846 0.041520 0.009037
v -0.158173 0.345192 0.009037
v -0.372902 0.256248 0.009037
v 0.262888 0.006706 0.135776
v 0.099420 0.170175 0.135776
v 0.215009 0.122296 0.135776
v 0.134233 0.345192 0.009037
v 0.437905 0.041520 0.009037
v 0.348962 0.256248 0.009037
v -0.461846 -0.373455 0.135776
v 0.437905 -0.373455 0.135776
v -0.372902 0.256248 0.135776
v -0.158174 0.345192 0.135776
v -0.461846 0.041520 0.135776
v 0.134233 0.345192 0.135776
v 0.348962 0.256248 0.135776
v 0.437905 0.041520 0.135776
v -0.357398 -0.291520 0.135776
v 0.333457 -0.291520 0.135776
v -0.292961 0.176307 0.135776
v -0.137397 0.240744 0.135776
v -0.357398 0.020743 0.135776
v 0.113457 0.240744 0.135776
v 0.269021 0.176307 0.135776
v 0.333457 0.020743 0.135776
v -0.286829 -0.220951 0.096827
v 0.262888 -0.220951 0.096827
v -0.238950 0.122296 0.096827
v -0.123360 0.170175 0.096827
v -0.286829 0.006706 0.096827
v 0.099420 0.170175 0.096827
v 0.215009 0.122296 0.096827
v 0.262888 0.006706 0.096827
v -0.357398 -0.291520 0.154666
v 0.333457 -0.291520 0.154666
v -0.292961 0.176307 0.154666
v -0.137397 0.240744 0.154666
v -0.357398 0.020743 0.154666
v 0.113457 0.240744 0.154666
v 0.269021 0.176307 0.154666
v 0.333457 0.020743 0.154666
v -0.286829 -0.220951 0.154666
v 0.262888 -0.220951 0.154666
v -0.238950 0.122296 0.154666
v -0.123360 0.170175 0.154666
v -0.286829 0.006706 0.154666
v 0.099420 0.170175 0.154666
v 0.215009 0.122296 0.154666
v 0.262888 0.006706 0.154666
v -0.050070 -0.241980 0.133733
v -0.050070 0.205819 0.133733
v -0.050070 -0.241980 0.101815
v -0.050070 0.205819 0.101815
v 0.019166 -0.241980 0.133733
v 0.019166 0.205819 0.133733
v 0.019166 -0.241980 0.101815
v 0.019166 0.205819 0.101815
v -0.292516 -0.014646 0.133733
v 0.272952 -0.014646 0.133733
v -0.292516 -0.014646 0.101815
v 0.272952 -0.014646 0.101815
v -0.292516 -0.083882 0.133733
v 0.272952 -0.083882 0.133733
v -0.292516 -0.083882 0.101815
v 0.272952 -0.083882 0.101815
vn 0.1951 0.9808 -0.0000
vn -0.1951 0.9808 -0.0000
vn 1.0000 -0.0000 -0.0000
vn 0.9808 0.1951 -0.0000
vn -1.0000 -0.0000 -0.0000
vn -0.9808 0.1951 -0.0000
vn -0.0000 -1.0000 -0.0000
vn -0.0000 -0.0000 -1.0000
vn -0.7071 0.7071 -0.0000
vn 0.7071 0.7071 -0.0000
vn -0.7071 -0.7071 -0.0000
vn -0.1951 -0.9808 -0.0000
vn -0.0000 -0.0000 1.0000
vn 0.1951 -0.9808 -0.0000
vn -0.9808 -0.1951 -0.0000
vn 0.7071 -0.7071 -0.0000
vn 0.9808 -0.1951 -0.0000
vn -0.0000 1.0000 -0.0000
vt 0.333922 0.886733
vt 0.132397 0.883632
vt 0.110507 0.886733
vt 0.933315 0.942914
vt 0.462588 0.886733
vt 0.965795 0.958402
vt 0.186735 0.946127
vt 0.964565 0.944867
vt 0.103895 0.952895
vt 0.862442 0.941176
vt 0.016004 0.945082
vt 0.087330 0.945082
vt 0.075063 0.948774
s 1
usemtl Tex_MultiGradient
f 14/1/1 9/1/2 20/1/2 22/1/1
f 4/1/3 15/1/4 24/1/4 18/1/3
f 17/1/5 21/1/6 8/1/6 2/1/5
f 2/2/7 4/2/7 18/2/7 17/2/7
f 2/3/8 8/3/8 10/3/8 9/3/8 14/3/8 16/3/8 15/3/8 4/3/8
f 20/1/2 9/1/2 10/1/9 19/1/9
f 19/1/9 10/1/9 8/1/6 21/1/6
f 14/1/1 22/1/1 23/1/10 16/1/10
f 16/1/10 23/1/10 24/1/4 15/1/4
f 13/4/11 12/4/12 38/4/12 39/4/11
f 26/5/13 25/5/13 17/5/13 18/5/13
f 27/5/13 28/5/13 20/5/13 19/5/13
f 29/5/13 27/5/13 19/5/13 21/5/13
f 30/5/13 31/5/13 23/5/13 22/5/13
f 31/5/13 32/5/13 24/5/13 23/5/13
f 32/5/13 26/5/13 18/5/13 24/5/13
f 28/5/13 30/5/13 22/5/13 20/5/13
f 25/5/13 29/5/13 21/5/13 17/5/13
f 5/4/14 12/4/12 54/4/12 52/4/14
f 29/6/6 25/6/5 41/6/5 45/6/6
f 11/4/15 3/4/5 50/4/5 56/4/15
f 30/6/1 28/6/2 44/6/2 46/6/1
f 13/4/11 11/4/15 56/4/15 55/4/11
f 26/6/3 32/6/4 48/6/4 42/6/3
f 12/4/12 13/4/11 55/4/11 54/4/12
f 32/6/4 31/6/10 47/6/10 48/6/4
f 34/7/13 40/7/13 39/7/13 38/7/13 36/7/13 35/7/13 37/7/13 33/7/13
f 5/4/14 7/4/16 35/4/16 36/4/14
f 12/4/12 5/4/14 36/4/14 38/4/12
f 11/4/15 13/4/11 39/4/11 40/4/15
f 7/4/16 6/4/17 37/4/17 35/4/16
f 1/8/18 3/8/18 34/8/18 33/8/18
f 6/4/17 1/4/3 33/4/3 37/4/17
f 3/4/5 11/4/15 40/4/15 34/4/5
f 50/9/13 49/9/13 41/9/13 42/9/13
f 51/9/13 52/9/13 44/9/13 43/9/13
f 53/9/13 51/9/13 43/9/13 45/9/13
f 54/9/13 55/9/13 47/9/13 46/9/13
f 55/9/13 56/9/13 48/9/13 47/9/13
f 56/9/13 50/9/13 42/9/13 48/9/13
f 52/9/13 54/9/13 46/9/13 44/9/13
f 49/9/13 53/9/13 45/9/13 41/9/13
f 25/6/7 26/6/7 42/6/7 41/6/7
f 1/4/3 6/4/17 53/4/17 49/4/3
f 28/6/2 27/6/9 43/6/9 44/6/2
f 3/8/18 1/8/18 49/8/18 50/8/18
f 27/6/9 29/6/6 45/6/6 43/6/9
f 7/4/16 5/4/14 52/4/14 51/4/16
f 31/6/10 30/6/1 46/6/1 47/6/10
f 6/4/17 7/4/16 51/4/16 53/4/17
f 57/10/5 58/10/5 60/10/5 59/10/5
f 59/11/8 60/11/8 64/11/8 63/11/8
f 63/12/3 64/12/3 62/12/3 61/12/3
f 61/13/13 62/13/13 58/13/13 57/13/13
f 59/11/7 63/11/7 61/11/7 57/11/7
f 64/11/18 60/11/18 58/11/18 62/11/18
f 65/12/18 66/12/18 68/12/18 67/12/18
f 67/11/8 68/11/8 72/11/8 71/11/8
f 71/10/7 72/10/7 70/10/7 69/10/7
f 69/13/13 70/13/13 66/13/13 65/13/13
f 67/11/5 71/11/5 69/11/5 65/11/5
f 72/11/3 68/11/3 66/11/3 70/11/3
