# Blender 4.3.0
# www.blender.org
mtllib Window01_Black_Wood.mtl
o Window01_Black_Wood
v -0.286829 -0.220951 0.135776
v -0.461846 -0.373455 0.009037
v 0.262888 -0.220951 0.135776
v 0.437905 -0.373455 0.009037
v -0.123360 0.170175 0.135776
v -0.286829 0.006706 0.135776
v -0.238950 0.122296 0.135776
v -0.461846 0.041520 0.009037
v -0.158173 0.345192 0.009037
v -0.372902 0.256248 0.009037
v 0.262888 0.006706 0.135776
v 0.099420 0.170175 0.135776
v 0.215009 0.122296 0.135776
v 0.134233 0.345192 0.009037
v 0.437905 0.041520 0.009037
v 0.348962 0.256248 0.009037
v -0.461846 -0.373455 0.135776
v 0.437905 -0.373455 0.135776
v -0.372902 0.256248 0.135776
v -0.158174 0.345192 0.135776
v -0.461846 0.041520 0.135776
v 0.134233 0.345192 0.135776
v 0.348962 0.256248 0.135776
v 0.437905 0.041520 0.135776
v -0.357398 -0.291520 0.135776
v 0.333457 -0.291520 0.135776
v -0.292961 0.176307 0.135776
v -0.137397 0.240744 0.135776
v -0.357398 0.020743 0.135776
v 0.113457 0.240744 0.135776
v 0.269021 0.176307 0.135776
v 0.333457 0.020743 0.135776
v -0.286829 -0.220951 0.096827
v 0.262888 -0.220951 0.096827
v -0.238950 0.122296 0.096827
v -0.123360 0.170175 0.096827
v -0.286829 0.006706 0.096827
v 0.099420 0.170175 0.096827
v 0.215009 0.122296 0.096827
v 0.262888 0.006706 0.096827
v -0.357398 -0.291520 0.154666
v 0.333457 -0.291520 0.154666
v -0.292961 0.176307 0.154666
v -0.137397 0.240744 0.154666
v -0.357398 0.020743 0.154666
v 0.113457 0.240744 0.154666
v 0.269021 0.176307 0.154666
v 0.333457 0.020743 0.154666
v -0.286829 -0.220951 0.154666
v 0.262888 -0.220951 0.154666
v -0.238950 0.122296 0.154666
v -0.123360 0.170175 0.154666
v -0.286829 0.006706 0.154666
v 0.099420 0.170175 0.154666
v 0.215009 0.122296 0.154666
v 0.262888 0.006706 0.154666
v -0.050070 -0.241980 0.133733
v -0.050070 0.205819 0.133733
v -0.050070 -0.241980 0.101815
v -0.050070 0.205819 0.101815
v 0.019166 -0.241980 0.133733
v 0.019166 0.205819 0.133733
v 0.019166 -0.241980 0.101815
v 0.019166 0.205819 0.101815
v -0.292516 -0.014646 0.133733
v 0.272952 -0.014646 0.133733
v -0.292516 -0.014646 0.101815
v 0.272952 -0.014646 0.101815
v -0.292516 -0.083882 0.133733
v 0.272952 -0.083882 0.133733
v -0.292516 -0.083882 0.101815
v 0.272952 -0.083882 0.101815
vn 0.1951 0.9808 -0.0000
vn -0.1951 0.9808 -0.0000
vn 1.0000 -0.0000 -0.0000
vn 0.9808 0.1951 -0.0000
vn -1.0000 -0.0000 -0.0000
vn -0.9808 0.1951 -0.0000
vn -0.0000 -1.0000 -0.0000
vn -0.0000 -0.0000 -1.0000
vn -0.7071 0.7071 -0.0000
vn 0.7071 0.7071 -0.0000
vn -0.7071 -0.7071 -0.0000
vn -0.1951 -0.9808 -0.0000
vn -0.0000 -0.0000 1.0000
vn 0.1951 -0.9808 -0.0000
vn -0.9808 -0.1951 -0.0000
vn 0.7071 -0.7071 -0.0000
vn 0.9808 -0.1951 -0.0000
vn -0.0000 1.0000 -0.0000
vt -0.028824 0.945147
vt 0.020596 0.982352
vt 0.173798 0.651722
vt 0.099843 0.945147
vt 0.186735 0.946127
vt 0.370661 0.646800
vt 0.315641 0.651722
vt 0.386967 0.651722
s 1
usemtl Tex_MultiGradient
f 14/1/1 9/1/2 20/1/2 22/1/1
f 4/1/3 15/1/4 24/1/4 18/1/3
f 17/1/5 21/1/6 8/1/6 2/1/5
f 2/1/7 4/1/7 18/1/7 17/1/7
f 2/2/8 8/2/8 10/2/8 9/2/8 14/2/8 16/2/8 15/2/8 4/2/8
f 20/1/2 9/1/2 10/1/9 19/1/9
f 19/1/9 10/1/9 8/1/6 21/1/6
f 14/1/1 22/1/1 23/1/10 16/1/10
f 16/1/10 23/1/10 24/1/4 15/1/4
f 13/3/11 12/3/12 38/3/12 39/3/11
f 26/4/13 25/4/13 17/4/13 18/4/13
f 27/4/13 28/4/13 20/4/13 19/4/13
f 29/4/13 27/4/13 19/4/13 21/4/13
f 30/4/13 31/4/13 23/4/13 22/4/13
f 31/4/13 32/4/13 24/4/13 23/4/13
f 32/4/13 26/4/13 18/4/13 24/4/13
f 28/4/13 30/4/13 22/4/13 20/4/13
f 25/4/13 29/4/13 21/4/13 17/4/13
f 5/3/14 12/3/12 54/3/12 52/3/14
f 29/3/6 25/3/5 41/3/5 45/3/6
f 11/3/15 3/3/5 50/3/5 56/3/15
f 30/3/1 28/3/2 44/3/2 46/3/1
f 13/3/11 11/3/15 56/3/15 55/3/11
f 26/3/3 32/3/4 48/3/4 42/3/3
f 12/3/12 13/3/11 55/3/11 54/3/12
f 32/3/4 31/3/10 47/3/10 48/3/4
f 34/5/13 40/5/13 39/5/13 38/5/13 36/5/13 35/5/13 37/5/13 33/5/13
f 5/3/14 7/3/16 35/3/16 36/3/14
f 12/3/12 5/3/14 36/3/14 38/3/12
f 11/3/15 13/3/11 39/3/11 40/3/15
f 7/3/16 6/3/17 37/3/17 35/3/16
f 1/6/18 3/6/18 34/6/18 33/6/18
f 6/3/17 1/3/3 33/3/3 37/3/17
f 3/3/5 11/3/15 40/3/15 34/3/5
f 50/7/13 49/7/13 41/7/13 42/7/13
f 51/7/13 52/7/13 44/7/13 43/7/13
f 53/7/13 51/7/13 43/7/13 45/7/13
f 54/7/13 55/7/13 47/7/13 46/7/13
f 55/7/13 56/7/13 48/7/13 47/7/13
f 56/7/13 50/7/13 42/7/13 48/7/13
f 52/7/13 54/7/13 46/7/13 44/7/13
f 49/7/13 53/7/13 45/7/13 41/7/13
f 25/3/7 26/3/7 42/3/7 41/3/7
f 1/3/3 6/3/17 53/3/17 49/3/3
f 28/3/2 27/3/9 43/3/9 44/3/2
f 3/6/18 1/6/18 49/6/18 50/6/18
f 27/3/9 29/3/6 45/3/6 43/3/9
f 7/3/16 5/3/14 52/3/14 51/3/16
f 31/3/10 30/3/1 46/3/1 47/3/10
f 6/3/17 7/3/16 51/3/16 53/3/17
f 57/3/5 58/3/5 60/3/5 59/3/5
f 59/7/8 60/7/8 64/7/8 63/7/8
f 63/8/3 64/8/3 62/8/3 61/8/3
f 61/7/13 62/7/13 58/7/13 57/7/13
f 59/7/7 63/7/7 61/7/7 57/7/7
f 64/7/18 60/7/18 58/7/18 62/7/18
f 65/8/18 66/8/18 68/8/18 67/8/18
f 67/7/8 68/7/8 72/7/8 71/7/8
f 71/3/7 72/3/7 70/3/7 69/3/7
f 69/7/13 70/7/13 66/7/13 65/7/13
f 67/7/5 71/7/5 69/7/5 65/7/5
f 72/7/3 68/7/3 66/7/3 70/7/3
