# Blender 4.3.0
# www.blender.org
mtllib Window02_White_Black.mtl
o Window02_White_Black
v -0.274041 -0.220951 0.122400
v -0.449058 -0.373455 -0.004339
v 0.275676 -0.220951 0.122400
v 0.450693 -0.373455 -0.004339
v -0.110573 0.170175 0.122400
v -0.274041 0.006706 0.122400
v -0.277882 0.172068 0.122400
v -0.449058 0.041520 -0.004339
v -0.145386 0.345192 0.006462
v -0.450529 0.331935 0.008677
v 0.275676 0.006706 0.122400
v 0.112207 0.170175 0.122400
v 0.275127 0.172068 0.122400
v 0.147021 0.345192 0.006462
v 0.450693 0.041520 -0.004339
v 0.447261 0.331935 0.008677
v -0.449058 -0.373455 0.122400
v 0.450693 -0.373455 0.122400
v -0.450529 0.331935 0.133870
v -0.145386 0.345192 0.133201
v -0.449058 0.041520 0.122400
v 0.147021 0.345192 0.133201
v 0.447261 0.331935 0.133870
v 0.450693 0.041520 0.122400
v -0.344610 -0.291520 0.122400
v 0.346245 -0.291520 0.122400
v -0.343678 0.226079 0.122400
v -0.124610 0.240744 0.122400
v -0.344610 0.020743 0.122400
v 0.126245 0.240744 0.122400
v 0.340923 0.226079 0.122400
v 0.346245 0.020743 0.122400
v -0.274041 -0.220951 0.083452
v 0.275676 -0.220951 0.083452
v -0.277882 0.172068 0.083452
v -0.110573 0.170175 0.083452
v -0.274041 0.006706 0.083452
v 0.112207 0.170175 0.083452
v 0.275127 0.172068 0.083452
v 0.275676 0.006706 0.083452
v -0.344610 -0.291520 0.141290
v 0.346245 -0.291520 0.141290
v -0.343678 0.226079 0.141290
v -0.124610 0.240744 0.141290
v -0.344610 0.020743 0.141290
v 0.126245 0.240744 0.141290
v 0.340923 0.226079 0.141290
v 0.346245 0.020743 0.141290
v -0.274041 -0.220951 0.141290
v 0.275676 -0.220951 0.141290
v -0.277882 0.172068 0.141290
v -0.110573 0.170175 0.141290
v -0.274041 0.006706 0.141290
v 0.112207 0.170175 0.141290
v 0.275127 0.172068 0.141290
v 0.275676 0.006706 0.141290
v -0.037282 -0.241980 0.120357
v -0.037282 0.205819 0.120357
v -0.037282 -0.241980 0.088440
v -0.037282 0.205819 0.088440
v 0.031954 -0.241980 0.120357
v 0.031954 0.205819 0.120357
v 0.031954 -0.241980 0.088440
v 0.031954 0.205819 0.088440
v -0.279728 -0.014646 0.120357
v 0.285740 -0.014646 0.120357
v -0.279728 -0.014646 0.088440
v 0.285740 -0.014646 0.088440
v -0.279728 -0.083882 0.120357
v 0.285740 -0.083882 0.120357
v -0.279728 -0.083882 0.088440
v 0.285740 -0.083882 0.088440
vn 0.0220 0.9998 -0.0000
vn -0.0217 0.9998 -0.0000
vn 0.0221 0.9998 -0.0000
vn 1.0000 -0.0000 -0.0000
vn 1.0000 0.0058 -0.0000
vn 1.0000 0.0060 -0.0000
vn -1.0000 -0.0000 -0.0000
vn -1.0000 -0.0026 -0.0000
vn -1.0000 -0.0025 -0.0000
vn -0.0000 -1.0000 -0.0000
vn -0.0000 0.0162 -0.9999
vn -0.0434 0.9991 -0.0000
vn -1.0000 -0.0051 -0.0000
vn 0.0441 0.9990 -0.0000
vn 0.9999 0.0118 -0.0000
vn 0.0116 -0.9999 -0.0000
vn 0.0058 -1.0000 -0.0000
vn -0.0000 -0.0000 1.0000
vn 0.0237 -0.0618 0.9978
vn 0.0030 -0.1022 0.9948
vn 0.0037 -0.1020 0.9948
vn 0.0231 -0.0633 0.9977
vn 0.0177 -0.0101 0.9998
vn 0.0228 -0.0130 0.9997
vn -0.0030 -0.1021 0.9948
vn -0.0236 -0.0623 0.9978
vn -0.0231 -0.0633 0.9977
vn -0.0038 -0.1020 0.9948
vn -0.0177 -0.0105 0.9998
vn -0.0225 -0.0134 0.9997
vn -0.0057 -1.0000 -0.0000
vn -1.0000 0.0023 -0.0000
vn -1.0000 -0.0017 -0.0000
vn 0.0341 0.9994 -0.0000
vn -0.0334 0.9994 -0.0000
vn -1.0000 -0.0033 -0.0000
vn 0.9999 0.0130 -0.0000
vn 0.9997 0.0259 -0.0000
vn -0.0113 -0.9999 -0.0000
vn 0.9997 0.0232 -0.0000
vn 0.9999 0.0116 -0.0000
vn -0.0000 1.0000 -0.0000
vn -0.0668 0.9978 -0.0000
vn -1.0000 0.0045 -0.0000
vn 0.0682 0.9977 -0.0000
vn -0.0000 -0.0000 -1.0000
vt 0.333922 0.886733
vt 0.132397 0.883632
vt 0.110507 0.886733
vt 0.933315 0.942914
vt 0.462588 0.886733
vt 0.965795 0.958402
vt 0.186735 0.946127
vt 0.964565 0.944867
vt 0.103895 0.952895
vt 0.862442 0.941176
vt 0.016004 0.945082
vt 0.087330 0.945082
vt 0.075063 0.948774
s 1
usemtl Tex_MultiGradient
f 14/1/1 9/1/2 20/1/2 22/1/3
f 4/1/4 15/1/5 24/1/6 18/1/4
f 17/1/7 21/1/8 8/1/9 2/1/7
f 2/2/10 4/2/10 18/2/10 17/2/10
f 2/3/11 8/3/11 10/3/11 9/3/11 14/3/11 16/3/11 15/3/11 4/3/11
f 20/1/2 9/1/2 10/1/12 19/1/12
f 19/1/13 10/1/13 8/1/9 21/1/8
f 14/1/1 22/1/3 23/1/14 16/1/14
f 16/1/15 23/1/15 24/1/6 15/1/5
f 13/4/16 12/4/17 38/4/17 39/4/16
f 26/5/18 25/5/18 17/5/18 18/5/18
f 27/5/19 28/5/20 20/5/21 19/5/22
f 29/5/23 27/5/19 19/5/22 21/5/24
f 30/5/25 31/5/26 23/5/27 22/5/28
f 31/5/26 32/5/29 24/5/30 23/5/27
f 32/5/29 26/5/18 18/5/18 24/5/30
f 28/5/20 30/5/25 22/5/28 20/5/21
f 25/5/18 29/5/23 21/5/24 17/5/18
f 5/4/31 12/4/17 54/4/17 52/4/31
f 29/6/32 25/6/7 41/6/7 45/6/32
f 11/4/33 3/4/7 50/4/7 56/4/33
f 30/6/34 28/6/35 44/6/35 46/6/34
f 13/4/36 11/4/33 56/4/33 55/4/36
f 26/6/4 32/6/37 48/6/37 42/6/4
f 12/4/17 13/4/16 55/4/16 54/4/17
f 32/6/37 31/6/38 47/6/38 48/6/37
f 34/7/18 40/7/18 39/7/18 38/7/18 36/7/18 35/7/18 37/7/18 33/7/18
f 5/4/31 7/4/39 35/4/39 36/4/31
f 12/4/17 5/4/31 36/4/31 38/4/17
f 11/4/33 13/4/36 39/4/36 40/4/33
f 7/4/40 6/4/41 37/4/41 35/4/40
f 1/8/42 3/8/42 34/8/42 33/8/42
f 6/4/41 1/4/4 33/4/4 37/4/41
f 3/4/7 11/4/33 40/4/33 34/4/7
f 50/9/18 49/9/18 41/9/18 42/9/18
f 51/9/18 52/9/18 44/9/18 43/9/18
f 53/9/18 51/9/18 43/9/18 45/9/18
f 54/9/18 55/9/18 47/9/18 46/9/18
f 55/9/18 56/9/18 48/9/18 47/9/18
f 56/9/18 50/9/18 42/9/18 48/9/18
f 52/9/18 54/9/18 46/9/18 44/9/18
f 49/9/18 53/9/18 45/9/18 41/9/18
f 25/6/10 26/6/10 42/6/10 41/6/10
f 1/4/4 6/4/41 53/4/41 49/4/4
f 28/6/35 27/6/43 43/6/43 44/6/35
f 3/8/42 1/8/42 49/8/42 50/8/42
f 27/6/44 29/6/32 45/6/32 43/6/44
f 7/4/39 5/4/31 52/4/31 51/4/39
f 31/6/45 30/6/34 46/6/34 47/6/45
f 6/4/41 7/4/40 51/4/40 53/4/41
f 57/10/7 58/10/7 60/10/7 59/10/7
f 59/11/46 60/11/46 64/11/46 63/11/46
f 63/12/4 64/12/4 62/12/4 61/12/4
f 61/13/18 62/13/18 58/13/18 57/13/18
f 59/11/10 63/11/10 61/11/10 57/11/10
f 64/11/42 60/11/42 58/11/42 62/11/42
f 65/12/42 66/12/42 68/12/42 67/12/42
f 67/11/46 68/11/46 72/11/46 71/11/46
f 71/10/10 72/10/10 70/10/10 69/10/10
f 69/13/18 70/13/18 66/13/18 65/13/18
f 67/11/7 71/11/7 69/11/7 65/11/7
f 72/11/4 68/11/4 66/11/4 70/11/4
