# Blender 4.3.0
# www.blender.org
mtllib Window02_Pink_White.mtl
o Window02_Pink_White
v -0.274041 -0.220951 0.122400
v -0.449058 -0.373455 -0.004339
v 0.275676 -0.220951 0.122400
v 0.450693 -0.373455 -0.004339
v -0.110573 0.170175 0.122400
v -0.274041 0.006706 0.122400
v -0.277882 0.172068 0.122400
v -0.449058 0.041520 -0.004339
v -0.145386 0.345192 0.006462
v -0.450529 0.331935 0.008677
v 0.275676 0.006706 0.122400
v 0.112207 0.170175 0.122400
v 0.275127 0.172068 0.122400
v 0.147021 0.345192 0.006462
v 0.450693 0.041520 -0.004339
v 0.447261 0.331935 0.008677
v -0.449058 -0.373455 0.122400
v 0.450693 -0.373455 0.122400
v -0.450529 0.331935 0.133870
v -0.145386 0.345192 0.133201
v -0.449058 0.041520 0.122400
v 0.147021 0.345192 0.133201
v 0.447261 0.331935 0.133870
v 0.450693 0.041520 0.122400
v -0.344610 -0.291520 0.122400
v 0.346245 -0.291520 0.122400
v -0.343678 0.226079 0.122400
v -0.124610 0.240744 0.122400
v -0.344610 0.020743 0.122400
v 0.126245 0.240744 0.122400
v 0.340923 0.226079 0.122400
v 0.346245 0.020743 0.122400
v -0.274041 -0.220951 0.083452
v 0.275676 -0.220951 0.083452
v -0.277882 0.172068 0.083452
v -0.110573 0.170175 0.083452
v -0.274041 0.006706 0.083452
v 0.112207 0.170175 0.083452
v 0.275127 0.172068 0.083452
v 0.275676 0.006706 0.083452
v -0.344610 -0.291520 0.141290
v 0.346245 -0.291520 0.141290
v -0.343678 0.226079 0.141290
v -0.124610 0.240744 0.141290
v -0.344610 0.020743 0.141290
v 0.126245 0.240744 0.141290
v 0.340923 0.226079 0.141290
v 0.346245 0.020743 0.141290
v -0.274041 -0.220951 0.141290
v 0.275676 -0.220951 0.141290
v -0.277882 0.172068 0.141290
v -0.110573 0.170175 0.141290
v -0.274041 0.006706 0.141290
v 0.112207 0.170175 0.141290
v 0.275127 0.172068 0.141290
v 0.275676 0.006706 0.141290
v -0.037282 -0.241980 0.120357
v -0.037282 0.205819 0.120357
v -0.037282 -0.241980 0.088440
v -0.037282 0.205819 0.088440
v 0.031954 -0.241980 0.120357
v 0.031954 0.205819 0.120357
v 0.031954 -0.241980 0.088440
v 0.031954 0.205819 0.088440
v -0.279728 -0.014646 0.120357
v 0.285740 -0.014646 0.120357
v -0.279728 -0.014646 0.088440
v 0.285740 -0.014646 0.088440
v -0.279728 -0.083882 0.120357
v 0.285740 -0.083882 0.120357
v -0.279728 -0.083882 0.088440
v 0.285740 -0.083882 0.088440
vn 0.0220 0.9998 -0.0000
vn -0.0217 0.9998 -0.0000
vn 0.0221 0.9998 -0.0000
vn 1.0000 -0.0000 -0.0000
vn 1.0000 0.0058 -0.0000
vn 1.0000 0.0060 -0.0000
vn -1.0000 -0.0000 -0.0000
vn -1.0000 -0.0026 -0.0000
vn -1.0000 -0.0025 -0.0000
vn -0.0000 -1.0000 -0.0000
vn -0.0000 0.0162 -0.9999
vn -0.0434 0.9991 -0.0000
vn -1.0000 -0.0051 -0.0000
vn 0.0441 0.9990 -0.0000
vn 0.9999 0.0118 -0.0000
vn 0.0116 -0.9999 -0.0000
vn 0.0058 -1.0000 -0.0000
vn -0.0000 -0.0000 1.0000
vn 0.0237 -0.0618 0.9978
vn 0.0030 -0.1022 0.9948
vn 0.0037 -0.1020 0.9948
vn 0.0231 -0.0633 0.9977
vn 0.0177 -0.0101 0.9998
vn 0.0228 -0.0130 0.9997
vn -0.0030 -0.1021 0.9948
vn -0.0236 -0.0623 0.9978
vn -0.0231 -0.0633 0.9977
vn -0.0038 -0.1020 0.9948
vn -0.0177 -0.0105 0.9998
vn -0.0225 -0.0134 0.9997
vn -0.0057 -1.0000 -0.0000
vn -1.0000 0.0023 -0.0000
vn -1.0000 -0.0017 -0.0000
vn 0.0341 0.9994 -0.0000
vn -0.0334 0.9994 -0.0000
vn -1.0000 -0.0033 -0.0000
vn 0.9999 0.0130 -0.0000
vn 0.9997 0.0259 -0.0000
vn -0.0113 -0.9999 -0.0000
vn 0.9997 0.0232 -0.0000
vn 0.9999 0.0116 -0.0000
vn -0.0000 1.0000 -0.0000
vn -0.0668 0.9978 -0.0000
vn -1.0000 0.0045 -0.0000
vn 0.0682 0.9977 -0.0000
vn -0.0000 -0.0000 -1.0000
vt 0.250212 0.120443
vt 0.048686 0.117342
vt 0.026797 0.120443
vt 0.310216 0.872817
vt 0.378878 0.120443
vt 0.186735 0.946127
vt 0.263461 0.867895
vt 0.452059 0.872817
vt 0.523384 0.872817
s 1
usemtl Tex_MultiGradient
f 14/1/1 9/1/2 20/1/2 22/1/3
f 4/1/4 15/1/5 24/1/6 18/1/4
f 17/1/7 21/1/8 8/1/9 2/1/7
f 2/2/10 4/2/10 18/2/10 17/2/10
f 2/3/11 8/3/11 10/3/11 9/3/11 14/3/11 16/3/11 15/3/11 4/3/11
f 20/1/2 9/1/2 10/1/12 19/1/12
f 19/1/13 10/1/13 8/1/9 21/1/8
f 14/1/1 22/1/3 23/1/14 16/1/14
f 16/1/15 23/1/15 24/1/6 15/1/5
f 13/4/16 12/4/17 38/4/17 39/4/16
f 26/5/18 25/5/18 17/5/18 18/5/18
f 27/5/19 28/5/20 20/5/21 19/5/22
f 29/5/23 27/5/19 19/5/22 21/5/24
f 30/5/25 31/5/26 23/5/27 22/5/28
f 31/5/26 32/5/29 24/5/30 23/5/27
f 32/5/29 26/5/18 18/5/18 24/5/30
f 28/5/20 30/5/25 22/5/28 20/5/21
f 25/5/18 29/5/23 21/5/24 17/5/18
f 5/4/31 12/4/17 54/4/17 52/4/31
f 29/4/32 25/4/7 41/4/7 45/4/32
f 11/4/33 3/4/7 50/4/7 56/4/33
f 30/4/34 28/4/35 44/4/35 46/4/34
f 13/4/36 11/4/33 56/4/33 55/4/36
f 26/4/4 32/4/37 48/4/37 42/4/4
f 12/4/17 13/4/16 55/4/16 54/4/17
f 32/4/37 31/4/38 47/4/38 48/4/37
f 34/6/18 40/6/18 39/6/18 38/6/18 36/6/18 35/6/18 37/6/18 33/6/18
f 5/4/31 7/4/39 35/4/39 36/4/31
f 12/4/17 5/4/31 36/4/31 38/4/17
f 11/4/33 13/4/36 39/4/36 40/4/33
f 7/4/40 6/4/41 37/4/41 35/4/40
f 1/7/42 3/7/42 34/7/42 33/7/42
f 6/4/41 1/4/4 33/4/4 37/4/41
f 3/4/7 11/4/33 40/4/33 34/4/7
f 50/8/18 49/8/18 41/8/18 42/8/18
f 51/8/18 52/8/18 44/8/18 43/8/18
f 53/8/18 51/8/18 43/8/18 45/8/18
f 54/8/18 55/8/18 47/8/18 46/8/18
f 55/8/18 56/8/18 48/8/18 47/8/18
f 56/8/18 50/8/18 42/8/18 48/8/18
f 52/8/18 54/8/18 46/8/18 44/8/18
f 49/8/18 53/8/18 45/8/18 41/8/18
f 25/4/10 26/4/10 42/4/10 41/4/10
f 1/4/4 6/4/41 53/4/41 49/4/4
f 28/4/35 27/4/43 43/4/43 44/4/35
f 3/7/42 1/7/42 49/7/42 50/7/42
f 27/4/44 29/4/32 45/4/32 43/4/44
f 7/4/39 5/4/31 52/4/31 51/4/39
f 31/4/45 30/4/34 46/4/34 47/4/45
f 6/4/41 7/4/40 51/4/40 53/4/41
f 57/4/7 58/4/7 60/4/7 59/4/7
f 59/8/46 60/8/46 64/8/46 63/8/46
f 63/9/4 64/9/4 62/9/4 61/9/4
f 61/8/18 62/8/18 58/8/18 57/8/18
f 59/8/10 63/8/10 61/8/10 57/8/10
f 64/8/42 60/8/42 58/8/42 62/8/42
f 65/9/42 66/9/42 68/9/42 67/9/42
f 67/8/46 68/8/46 72/8/46 71/8/46
f 71/4/10 72/4/10 70/4/10 69/4/10
f 69/8/18 70/8/18 66/8/18 65/8/18
f 67/8/7 71/8/7 69/8/7 65/8/7
f 72/8/4 68/8/4 66/8/4 70/8/4
