# Blender 4.3.0
# www.blender.org
mtllib Window03_Green_Wood.mtl
o Window03_Green_Wood
v -0.438065 -0.367997 -0.000109
v 0.416747 -0.367997 -0.000109
v -0.463032 -0.263590 -0.000109
v 0.441714 -0.263590 -0.000109
v -0.348513 -0.289651 0.106886
v 0.325828 -0.290156 0.106886
v -0.285811 0.264307 -0.000109
v -0.109053 0.352267 -0.000109
v -0.206497 0.326504 -0.000109
v 0.057493 0.352267 -0.000109
v 0.238704 0.267858 -0.000109
v 0.156241 0.327544 -0.000109
v -0.092325 0.231174 0.105538
v -0.218381 0.165503 0.105538
v -0.161816 0.211940 0.105538
v 0.174457 0.167053 0.105538
v 0.042965 0.231174 0.105538
v 0.114617 0.212394 0.105538
v -0.450327 -0.083831 -0.000109
v -0.341788 0.190257 -0.000109
v -0.411782 0.059440 -0.000109
v 0.308069 0.185330 -0.000109
v 0.425597 -0.083504 -0.000109
v 0.383255 0.058093 -0.000109
v -0.261649 0.105581 0.105538
v -0.351135 -0.130991 0.105538
v -0.319356 -0.007330 0.105538
v 0.325663 -0.131989 0.105538
v 0.229325 0.098711 0.105538
v 0.290955 -0.010478 0.105538
v -0.438065 -0.367997 0.131688
v 0.416747 -0.367997 0.131688
v 0.441714 -0.263590 0.131688
v -0.463032 -0.263590 0.131688
v -0.206498 0.326504 0.131688
v -0.109053 0.352267 0.131688
v -0.285811 0.264307 0.131688
v 0.057493 0.352267 0.131688
v 0.156241 0.327544 0.131688
v 0.238704 0.267858 0.131688
v -0.450327 -0.083831 0.131688
v -0.411782 0.059440 0.131688
v -0.341788 0.190257 0.131688
v 0.383256 0.058093 0.131688
v 0.425597 -0.083504 0.131688
v 0.308069 0.185330 0.131688
v 0.416747 -0.367997 0.156407
v 0.441714 -0.263590 0.156407
v -0.463032 -0.263590 0.156407
v -0.438065 -0.367997 0.156407
v -0.206498 0.326504 0.156407
v -0.109053 0.352267 0.156407
v -0.285811 0.264307 0.156407
v 0.057493 0.352267 0.156407
v 0.156241 0.327544 0.156407
v 0.238704 0.267858 0.156407
v -0.450327 -0.083831 0.156407
v -0.411782 0.059440 0.156407
v -0.341788 0.190257 0.156407
v 0.383256 0.058093 0.156407
v 0.425597 -0.083504 0.156407
v 0.308069 0.185330 0.156407
v 0.315337 -0.367997 0.156407
v 0.325828 -0.290156 0.155059
v -0.348513 -0.289651 0.155059
v -0.337980 -0.367997 0.156407
v -0.161816 0.211940 0.156407
v -0.092325 0.231174 0.156407
v -0.218381 0.165503 0.156407
v 0.042965 0.231174 0.156407
v 0.114617 0.212394 0.156407
v 0.174457 0.167053 0.156407
v -0.351135 -0.130991 0.156407
v -0.319356 -0.007330 0.156407
v -0.261649 0.105581 0.156407
v 0.290955 -0.010478 0.156407
v 0.325663 -0.131989 0.156407
v 0.229325 0.098711 0.156407
v -0.065792 -0.305131 0.125948
v -0.065792 0.249737 0.125948
v -0.065792 -0.305131 0.103783
v -0.065792 0.249737 0.103783
v 0.026074 -0.305131 0.125948
v 0.026074 0.249737 0.125948
v 0.026074 -0.305131 0.103783
v 0.026074 0.249737 0.103783
v -0.382030 -0.027709 0.125948
v 0.361159 -0.027709 0.125948
v -0.382030 -0.027709 0.103783
v 0.361159 -0.027709 0.103783
v -0.382030 -0.119575 0.125948
v 0.361159 -0.119575 0.125948
v -0.382030 -0.119575 0.103783
v 0.361159 -0.119575 0.103783
vn -0.0000 0.0031 1.0000
vn 0.9726 -0.2326 -0.0000
vn 0.9974 -0.0727 -0.0000
vn -0.9726 -0.2326 -0.0000
vn -0.9966 -0.0820 -0.0000
vn 0.1224 0.9925 -0.0000
vn -0.1289 0.9917 -0.0000
vn 0.9820 0.1888 -0.0000
vn -0.0000 -0.0000 -1.0000
vn 0.6810 0.7322 -0.0000
vn 0.8160 0.5780 -0.0000
vn -0.4455 0.8953 -0.0000
vn -0.7134 0.7008 -0.0000
vn 0.4222 0.9065 -0.0000
vn -0.9861 0.1659 -0.0000
vn -0.9298 0.3682 -0.0000
vn -0.8423 0.5390 -0.0000
vn 0.9163 0.4006 -0.0000
vn -0.4371 -0.8994 -0.0000
vn -0.6971 -0.7170 -0.0000
vn -0.1278 -0.9918 -0.0000
vn 0.7287 -0.6849 -0.0000
vn 0.4606 -0.8876 -0.0000
vn 0.1346 -0.9909 -0.0000
vn 0.0007 1.0000 -0.0000
vn -0.8281 -0.5607 -0.0000
vn -0.0033 0.0134 0.9999
vn -0.0043 0.0077 1.0000
vn 0.0044 0.0077 1.0000
vn 0.0034 0.0134 0.9999
vn -0.9902 -0.1396 -0.0000
vn -1.0000 -0.0010 -0.0000
vn -0.0073 0.0088 0.9999
vn -0.0058 0.0009 1.0000
vn 0.0059 0.0009 1.0000
vn 0.0074 0.0088 0.9999
vn -0.0000 -0.0000 1.0000
vn 0.0029 -0.0025 1.0000
vn 0.0020 -0.0017 1.0000
vn -0.0028 -0.0025 1.0000
vn -0.0020 -0.0017 1.0000
vn 0.9931 -0.1176 -0.0000
vn 0.9352 -0.3542 -0.0000
vn 0.8531 -0.5218 -0.0000
vn -0.9226 -0.3858 -0.0000
vn 0.9999 0.0165 -0.0000
vn -0.0000 -1.0000 -0.0000
vn -1.0000 -0.0000 -0.0000
vn -0.0000 1.0000 -0.0000
vn 1.0000 -0.0000 -0.0000
vt 0.186735 0.946127
vt 0.250212 0.424281
vt 0.026797 0.424281
vt 0.249200 0.424281
vt 0.378878 0.424281
vt 0.048686 0.421181
vt 0.315641 0.651722
vt 0.386967 0.651722
s 1
usemtl Tex_MultiGradient
f 5/1/1 6/1/1 28/1/1 30/1/1 29/1/1 16/1/1 18/1/1 17/1/1 13/1/1 15/1/1 14/1/1 25/1/1 27/1/1 26/1/1
f 2/2/2 4/2/3 33/2/3 32/2/2
f 31/2/4 34/2/5 3/2/5 1/2/4
f 10/2/6 8/2/7 36/2/7 38/2/6
f 23/2/8 45/2/8 33/2/3 4/2/3
f 1/3/9 3/3/9 19/3/9 21/3/9 20/3/9 7/3/9 9/3/9 8/3/9 10/3/9 12/3/9 11/3/9 22/3/9 24/3/9 23/3/9 4/3/9 2/3/9
f 11/2/10 40/2/10 46/2/11 22/2/11
f 36/2/7 8/2/7 9/2/12 35/2/12
f 35/2/12 9/2/12 7/2/13 37/2/13
f 10/2/6 38/2/6 39/2/14 12/2/14
f 12/2/14 39/2/14 40/2/10 11/2/10
f 41/2/15 19/2/15 3/2/5 34/2/5
f 19/2/15 41/2/15 42/2/16 21/2/16
f 21/2/16 42/2/16 43/2/17 20/2/17
f 45/2/8 23/2/8 24/2/18 44/2/18
f 44/2/18 24/2/18 22/2/11 46/2/11
f 37/2/13 7/2/13 20/2/17 43/2/17
f 18/4/19 16/4/20 72/4/20 71/4/19
f 37/2/13 43/2/17 59/2/17 53/2/13
f 17/4/21 18/4/19 71/4/19 70/4/21
f 14/4/22 15/4/23 67/4/23 69/4/22
f 38/2/6 36/2/7 52/2/7 54/2/6
f 15/4/23 13/4/24 68/4/24 67/4/23
f 44/2/18 46/2/11 62/2/11 60/2/18
f 36/2/7 35/2/12 51/2/12 52/2/7
f 65/4/25 64/4/25 6/4/25 5/4/25
f 16/4/20 29/4/26 78/4/26 72/4/20
f 63/5/27 64/5/28 65/5/29 66/5/30
f 40/2/10 39/2/14 55/2/14 56/2/10
f 28/4/31 6/4/32 64/4/32 77/4/31
f 64/5/28 63/5/27 47/5/33 48/5/34
f 66/5/30 65/5/29 49/5/35 50/5/36
f 67/5/37 68/5/37 52/5/37 51/5/37
f 69/5/37 67/5/37 51/5/37 53/5/37
f 70/5/37 71/5/37 55/5/37 54/5/37
f 71/5/37 72/5/37 56/5/37 55/5/37
f 68/5/37 70/5/37 54/5/37 52/5/37
f 73/5/38 74/5/37 58/5/37 57/5/39
f 74/5/37 75/5/37 59/5/37 58/5/37
f 76/5/37 77/5/40 61/5/41 60/5/37
f 78/5/37 76/5/37 60/5/37 62/5/37
f 75/5/37 69/5/37 53/5/37 59/5/37
f 65/5/29 73/5/38 57/5/39 49/5/35
f 77/5/40 64/5/28 48/5/34 61/5/41
f 72/5/37 78/5/37 62/5/37 56/5/37
f 32/2/2 33/2/3 48/2/3 47/2/2
f 35/2/12 37/2/13 53/2/13 51/2/12
f 42/2/16 41/2/15 57/2/15 58/2/16
f 34/2/5 31/2/4 50/2/4 49/2/5
f 13/4/24 17/4/21 70/4/21 68/4/24
f 41/2/15 34/2/5 49/2/5 57/2/15
f 26/4/42 27/4/43 74/4/43 73/4/42
f 27/4/43 25/4/44 75/4/44 74/4/43
f 43/2/17 42/2/16 58/2/16 59/2/17
f 30/4/45 28/4/31 77/4/31 76/4/45
f 29/4/26 30/4/45 76/4/45 78/4/26
f 39/2/14 38/2/6 54/2/6 55/2/14
f 33/2/3 45/2/8 61/2/8 48/2/3
f 45/2/8 44/2/18 60/2/18 61/2/8
f 25/4/44 14/4/22 69/4/22 75/4/44
f 46/2/11 40/2/10 56/2/10 62/2/11
f 5/4/46 26/4/42 73/4/42 65/4/46
f 31/6/47 1/6/47 2/6/47 32/6/47 47/6/47 63/6/47 66/6/47 50/6/47
s 0
f 79/7/48 80/7/48 82/7/48 81/7/48
f 87/8/49 88/8/49 90/8/49 89/8/49
f 85/8/50 86/8/50 84/8/50 83/8/50
f 83/7/37 84/7/37 80/7/37 79/7/37
f 81/7/47 85/7/47 83/7/47 79/7/47
f 86/7/49 82/7/49 80/7/49 84/7/49
f 93/7/47 94/7/47 92/7/47 91/7/47
f 91/7/37 92/7/37 88/7/37 87/7/37
f 89/7/48 93/7/48 91/7/48 87/7/48
f 94/7/50 90/7/50 88/7/50 92/7/50
